<?xml version="1.0" encoding="UTF-8"?>
<svg id="Layer_1" data-name="Layer 1" xmlns="http://www.w3.org/2000/svg" xmlns:xlink="http://www.w3.org/1999/xlink" viewBox="0 0 1080 1080">
  <defs>
    <style>
      .cls-1 {
        fill: #fa906f;
      }

      .cls-2 {
        fill: #f9a858;
      }

      .cls-3 {
        fill: #fa837c;
      }

      .cls-4 {
        fill: #fe24db;
      }

      .cls-5 {
        fill: #fa8d72;
      }

      .cls-6 {
        fill: #fe0ef1;
      }

      .cls-7 {
        fill: #f9a65a;
      }

      .cls-8 {
        fill: #fc55aa;
      }

      .cls-9 {
        fill: #fa8679;
      }

      .cls-10 {
        fill: #fb7c83;
      }

      .cls-11 {
        fill: #ff0df2;
      }

      .cls-12 {
        fill: #fb7b84;
      }

      .cls-13 {
        fill: #f9a957;
      }

      .cls-14 {
        fill: #fd39c7;
      }

      .cls-15 {
        fill: #fd3ac6;
      }

      .cls-16 {
        fill: #fc5fa0;
      }

      .cls-17 {
        fill: #f8c13f;
      }

      .cls-18 {
        fill: #fd3bc5;
      }

      .cls-19 {
        fill: #fe1ce3;
      }

      .cls-20 {
        fill: #fb629d;
      }

      .cls-21 {
        opacity: .14;
      }

      .cls-22 {
        fill: #fe20df;
      }

      .cls-23 {
        fill: #fc5da2;
      }

      .cls-24 {
        fill: #fe1ae5;
      }

      .cls-25 {
        fill: #fb7986;
      }

      .cls-26 {
        fill: #f9a15e;
      }

      .cls-27 {
        fill: #fa817e;
      }

      .cls-28 {
        fill: #fa7f80;
      }

      .cls-29 {
        fill: #fa8e71;
      }

      .cls-30 {
        fill: #fc56a9;
      }

      .cls-31 {
        fill: #f8c23e;
      }

      .cls-32 {
        fill: #fe12ed;
      }

      .cls-33 {
        fill: #ff7b6c;
      }

      .cls-34 {
        fill: #fb6c93;
      }

      .cls-35 {
        fill: #fa916e;
      }

      .cls-36 {
        fill: #fe0ff0;
      }

      .cls-37 {
        fill: #f9a45b;
      }

      .cls-38 {
        fill: #fc5aa5;
      }

      .cls-39 {
        fill: #fc4db2;
      }

      .cls-40 {
        fill: #fe1de2;
      }

      .cls-41 {
        fill: #fd43bd;
      }

      .cls-42 {
        fill: #fb708f;
      }

      .cls-43 {
        fill: #f9b34d;
      }

      .cls-44 {
        fill: #f9ab55;
      }

      .cls-45 {
        fill: #fe1fe0;
      }

      .cls-46 {
        fill: #fff;
      }

      .cls-47 {
        fill: #f9a759;
      }

      .cls-48 {
        fill: #fb649b;
      }

      .cls-49 {
        fill: #fb738c;
      }

      .cls-50 {
        fill: #fb7887;
      }

      .cls-51 {
        fill: #fb6d92;
      }

      .cls-52 {
        fill: #fe26da;
      }

      .cls-53 {
        fill: #fc58a7;
      }

      .cls-54 {
        fill: #ff0cf3;
      }

      .cls-55 {
        fill: #fc4cb3;
      }

      .cls-56 {
        fill: #fd2dd3;
      }

      .cls-57 {
        fill: #f9a35c;
      }

      .cls-58 {
        fill: #fc4eb1;
      }

      .cls-59 {
        fill: #f9af51;
      }

      .cls-60 {
        fill: #fa936c;
      }

      .cls-61 {
        fill: #f9b14f;
      }

      .cls-62 {
        fill: #f99c63;
      }

      .cls-63 {
        fill: #fa9669;
      }

      .cls-64 {
        fill: #fd3fc1;
      }

      .cls-65 {
        fill: #fd42be;
      }

      .cls-66 {
        fill: none;
      }

      .cls-67 {
        fill: #fa8f70;
      }

      .cls-68 {
        fill: #f9a05f;
      }

      .cls-69 {
        fill: #ff03fc;
      }

      .cls-70 {
        fill: #fe22dd;
      }

      .cls-71 {
        fill: #f8b749;
      }

      .cls-72 {
        fill: #f8bb45;
      }

      .cls-73 {
        fill: #fb619e;
      }

      .cls-74 {
        fill: #fc50af;
      }

      .cls-75 {
        clip-path: url(#clippath-1);
      }

      .cls-76 {
        fill: #fd2bd5;
      }

      .cls-77 {
        fill: #f8be42;
      }

      .cls-78 {
        fill: #fa8976;
      }

      .cls-79 {
        fill: #ff09f6;
      }

      .cls-80 {
        fill: #fe19e6;
      }

      .cls-81 {
        fill: #fb718e;
      }

      .cls-82 {
        fill: #fe27d9;
      }

      .cls-83 {
        fill: #fe11ee;
      }

      .cls-84 {
        fill: #fe23dc;
      }

      .cls-85 {
        fill: #fd34cc;
      }

      .cls-86 {
        fill: #fd41bf;
      }

      .cls-87 {
        fill: #fb6f90;
      }

      .cls-88 {
        fill: #fa7d82;
      }

      .cls-89 {
        fill: #f9ac54;
      }

      .cls-90 {
        fill: #fc4ab5;
      }

      .cls-91 {
        fill: #fc5ca3;
      }

      .cls-92 {
        fill: #fd2ed2;
      }

      .cls-93 {
        fill: #fc4fb0;
      }

      .cls-94 {
        fill: #fc59a6;
      }

      .cls-95 {
        fill: #fa956a;
      }

      .cls-96 {
        fill: #fa857a;
      }

      .cls-97 {
        fill: #ff0af5;
      }

      .cls-98 {
        fill: #fe2ad6;
      }

      .cls-99 {
        fill: #fc4bb4;
      }

      .cls-100 {
        fill: #ff05fa;
      }

      .cls-101 {
        fill: #fd33cd;
      }

      .cls-102 {
        fill: #fd38c8;
      }

      .cls-103 {
        fill: #fd40c0;
      }

      .cls-104 {
        fill: #fd37c9;
      }

      .cls-105 {
        fill: #f8c040;
      }

      .cls-106 {
        fill: #fd36ca;
      }

      .cls-107 {
        fill: #ff07f8;
      }

      .cls-108 {
        fill: #f99f60;
      }

      .cls-109 {
        fill: #fb6798;
      }

      .cls-110 {
        fill: #f8bc44;
      }

      .cls-111 {
        fill: #fd3cc4;
      }

      .cls-112 {
        fill: #fd2fd1;
      }

      .cls-113 {
        fill: #f9ae52;
      }

      .cls-114 {
        fill: #fb728d;
      }

      .cls-115 {
        fill: #fc52ad;
      }

      .cls-116 {
        fill: #f9a55a;
      }

      .cls-117 {
        fill: #fb6897;
      }

      .cls-118 {
        fill: #fc57a8;
      }

      .cls-119 {
        fill: #fa827d;
      }

      .cls-120 {
        fill: #f9b24e;
      }

      .cls-121 {
        fill: #fb6e91;
      }

      .cls-122 {
        fill: #fe18e7;
      }

      .cls-123 {
        fill: #fb6b94;
      }

      .cls-124 {
        fill: #fb6a95;
      }

      .cls-125 {
        fill: #fe14eb;
      }

      .cls-126 {
        fill: #ff02fd;
      }

      .cls-127 {
        fill: #f8bf41;
      }

      .cls-128 {
        fill: #f8b947;
      }

      .cls-129 {
        fill: #fe17e8;
      }

      .cls-130 {
        fill: #fd3ec2;
      }

      .cls-131 {
        fill: #f8bd43;
      }

      .cls-132 {
        fill: #fa807f;
      }

      .cls-133 {
        fill: #fd45ba;
      }

      .cls-134 {
        fill: #f9a25d;
      }

      .cls-135 {
        fill: #f99e61;
      }

      .cls-136 {
        fill: #fb659a;
      }

      .cls-137 {
        fill: #fd44bc;
      }

      .cls-138 {
        fill: #fc47b8;
      }

      .cls-139 {
        fill: #fe13ec;
      }

      .cls-140 {
        fill: #fa8877;
      }

      .cls-141 {
        fill: #fa946b;
      }

      .cls-142 {
        fill: #fc5ea1;
      }

      .cls-143 {
        fill: #ff08f7;
      }

      .cls-144 {
        fill: #f0f;
      }

      .cls-145 {
        fill: #f8ba46;
      }

      .cls-146 {
        fill: #ff04fb;
      }

      .cls-147 {
        fill: #fa8a75;
      }

      .cls-148 {
        fill: #fb748b;
      }

      .cls-149 {
        fill: #f99d62;
      }

      .cls-150 {
        fill: #fd35cb;
      }

      .cls-151 {
        fill: #fb6996;
      }

      .cls-152 {
        fill: #fa8b74;
      }

      .cls-153 {
        fill: #fb7a85;
      }

      .cls-154 {
        fill: #fe21de;
      }

      .cls-155 {
        fill: #fe1ee1;
      }

      .cls-156 {
        fill: #fc48b7;
      }

      .cls-157 {
        fill: #fe15ea;
      }

      .cls-158 {
        fill: #fc5ba4;
      }

      .cls-159 {
        fill: #f99a65;
      }

      .cls-160 {
        fill: #f8b848;
      }

      .cls-161 {
        fill: #fb639c;
      }

      .cls-162 {
        fill: #f99966;
      }

      .cls-163 {
        fill: #ff0bf4;
      }

      .cls-164 {
        fill: #fe1be4;
      }

      .cls-165 {
        fill: #fe28d8;
      }

      .cls-166 {
        fill: #f9aa56;
      }

      .cls-167 {
        fill: #fa9768;
      }

      .cls-168 {
        fill: #fc53ac;
      }

      .cls-169 {
        fill: #f8b54b;
      }

      .cls-170 {
        fill: #fa8778;
      }

      .cls-171 {
        fill: #0274bb;
      }

      .cls-172 {
        fill: #f8b44c;
      }

      .cls-173 {
        fill: #fc54ab;
      }

      .cls-174 {
        fill: #fd31cf;
      }

      .cls-175 {
        fill: #fd30d0;
      }

      .cls-176 {
        fill: #fa926d;
      }

      .cls-177 {
        fill: #fa9867;
      }

      .cls-178 {
        fill: #fc46b9;
      }

      .cls-179 {
        fill: #fb758a;
      }

      .cls-180 {
        fill: #fd3dc3;
      }

      .cls-181 {
        fill: #f9ad53;
      }

      .cls-182 {
        fill: #fa7e81;
      }

      .cls-183 {
        fill: #f9b050;
      }

      .cls-184 {
        fill: #fb6699;
      }

      .cls-185 {
        fill: #fa8c73;
      }

      .cls-186 {
        fill: #fc609f;
      }

      .cls-187 {
        clip-path: url(#clippath);
      }

      .cls-188 {
        fill: #fe16e9;
      }

      .cls-189 {
        fill: #fc49b6;
      }

      .cls-190 {
        fill: #fa847b;
      }

      .cls-191 {
        fill: #f99b64;
      }

      .cls-192 {
        fill: #fd32ce;
      }

      .cls-193 {
        fill: #ff01fe;
      }

      .cls-194 {
        fill: #fe10ef;
      }

      .cls-195 {
        fill: #fd2cd4;
      }

      .cls-196 {
        fill: #fb7689;
      }

      .cls-197 {
        fill: #fb7788;
      }

      .cls-198 {
        fill: #f8b64a;
      }

      .cls-199 {
        fill: #fc51ae;
      }

      .cls-200 {
        fill: #ff06f9;
      }

      .cls-201 {
        fill: #fe29d7;
      }

      .cls-202 {
        fill: #3e4b5b;
      }
    </style>
    <clipPath id="clippath">
      <ellipse class="cls-66" cx="690.96" cy="376.56" rx="115.12" ry="67.01"/>
    </clipPath>
    <clipPath id="clippath-1">
      <ellipse class="cls-66" cx="395.6" cy="371.61" rx="115.12" ry="67.01"/>
    </clipPath>
  </defs>
  <g>
    <path class="cls-33" d="M341.91,729.51c-4.13,0-7.55-.51-10.28-1.55-2.73-1.03-4.9-2.87-6.52-5.52-1.62-2.65-2.76-6.26-3.42-10.83-.66-4.56-1-10.39-1-17.46s.04-14.58.11-22.1c.07-7.51.11-14.88.11-22.1,0-14.58.37-29.09,1.1-43.53.74-14.44,1.1-28.95,1.1-43.53v-24.97c0-5.15,1.4-8.76,4.2-10.83,2.8-2.06,6.26-3.09,10.39-3.09,4.71,0,8.25.3,10.61.88,2.35.59,3.98,1.44,4.86,2.54.88,1.1,1.33,2.54,1.33,4.31v6.41c0,.88.11,1.47.33,1.77.22.3.77.44,1.66.44,7.95,0,15.65.63,23.09,1.88,7.44,1.25,14.1,3.46,20,6.63,5.89,3.17,10.61,7.51,14.14,13.04,3.54,5.52,5.3,12.56,5.3,21.1,0,6.48-.88,11.97-2.65,16.46-1.77,4.5-3.94,8.25-6.52,11.27-2.58,3.02-5.41,5.41-8.51,7.18-3.09,1.77-5.93,3.24-8.51,4.42-2.58,1.18-4.75,2.14-6.52,2.87-1.77.74-2.65,1.62-2.65,2.65,0,.3,1.03.55,3.09.77,2.06.22,4.6.74,7.62,1.55,3.02.81,6.3,2.06,9.83,3.76,3.54,1.7,6.81,4.24,9.83,7.62,3.02,3.39,5.56,7.81,7.62,13.26,2.06,5.45,3.09,12.23,3.09,20.33,0,12.52-2.54,22.43-7.62,29.72-5.08,7.29-11.6,12.74-19.56,16.35-7.95,3.61-16.83,5.89-26.62,6.85-9.8.96-19.48,1.44-29.06,1.44ZM350.75,605.78c0,1.62.37,3.13,1.1,4.53.74,1.4,2.06,2.1,3.98,2.1,4.27,0,8.62-.81,13.04-2.43,4.42-1.62,8.43-3.72,12.04-6.3,3.61-2.58,6.59-5.52,8.95-8.84,2.35-3.31,3.54-6.74,3.54-10.27,0-4.71-1.21-8.47-3.65-11.27-2.43-2.8-5.49-4.97-9.17-6.52-3.68-1.55-7.66-2.58-11.93-3.09-4.27-.51-8.25-.77-11.93-.77-1.62,0-2.73.48-3.31,1.44-.59.96-1.03,2.25-1.33,3.87-.88,5.75-1.33,11.97-1.33,18.67v18.89ZM357.6,702.56c7.36,0,13.55-.7,18.56-2.1,5.01-1.4,9.06-3.35,12.15-5.86,3.09-2.5,5.3-5.56,6.63-9.17,1.33-3.61,1.99-7.62,1.99-12.04,0-5.74-1.55-10.75-4.64-15.02-3.09-4.27-6.63-7.81-10.61-10.61-3.98-2.8-7.92-4.86-11.82-6.19-3.91-1.33-6.74-1.99-8.51-1.99-.88,0-1.92.04-3.09.11-1.18.08-2.32.3-3.42.66-1.11.37-2.06.92-2.87,1.66-.81.74-1.21,1.77-1.21,3.09v38.45c0,2.8.14,5.6.44,8.4.29,2.8.96,5.27,1.99,7.4,1.03,2.14,2.5,3.2,4.42,3.2Z"/>
    <path class="cls-33" d="M431.84,644c0-6.48.85-12.85,2.54-19.11,1.69-6.26,4.27-11.82,7.73-16.68,3.46-4.86,7.84-8.76,13.15-11.71,5.3-2.94,11.63-4.42,19-4.42,2.65,0,5.27.22,7.84.66,2.58.44,5.12.66,7.62.66,3.68,0,5.52-1.84,5.52-5.52v-13.37c0-4.05-.37-7.58-1.1-10.61-.74-3.02-1.99-5.38-3.76-7.07-1.77-1.69-4.35-2.54-7.73-2.54-2.21,0-4.09.41-5.63,1.22-1.55.81-2.91,1.88-4.09,3.2-1.18,1.33-2.14,2.76-2.87,4.31-.74,1.55-1.33,3.06-1.77,4.53-.74,2.36-1.77,3.79-3.09,4.31-1.33.52-3.02.77-5.08.77-1.77,0-3.46-.11-5.08-.33-1.62-.22-3.06-.7-4.31-1.44-1.25-.74-2.25-1.73-2.98-2.98-.74-1.25-1.11-2.98-1.11-5.19,0-4.56,1.07-8.84,3.2-12.82,2.13-3.98,4.9-7.44,8.29-10.39,3.39-2.94,7.18-5.26,11.38-6.96,4.2-1.69,8.36-2.54,12.48-2.54,10.02,0,17.93,1.47,23.75,4.42,5.82,2.95,10.2,7.11,13.15,12.48,2.95,5.38,4.86,11.86,5.75,19.44.88,7.59,1.33,16.1,1.33,25.52,0,7.51-.11,15.1-.33,22.76-.22,7.66-.33,15.25-.33,22.76,0,1.62-.04,3.54-.11,5.75-.08,2.21-.11,4.42-.11,6.63v6.41c0,2.06.07,3.76.22,5.08.14.88.51,2.06,1.1,3.54.59,1.47,1.21,2.95,1.88,4.42.66,1.47,1.25,2.76,1.77,3.87.51,1.1.77,1.81.77,2.1,0,2.21-.74,4.09-2.21,5.63-1.47,1.55-3.24,2.8-5.3,3.76-2.06.96-4.16,1.66-6.3,2.1-2.14.44-3.94.66-5.41.66-2.06,0-3.9-.96-5.52-2.87-1.62-1.91-2.98-4.16-4.09-6.74-1.1-2.58-1.95-5.23-2.54-7.95-.59-2.72-.88-4.82-.88-6.3-2.06,6.48-5.97,11.6-11.71,15.36s-11.93,5.63-18.56,5.63c-5.3,0-10.16-1.18-14.58-3.54-4.42-2.35-8.25-5.45-11.49-9.28-3.24-3.83-5.78-8.14-7.62-12.93-1.84-4.79-2.76-9.68-2.76-14.69ZM446.64,725.31c-2.21,0-4.09-1.22-5.63-3.65-1.55-2.43-2.32-5.49-2.32-9.17,0-8.54,2.58-12.82,7.73-12.82,2.65,0,6,.04,10.05.11,4.05.08,8.47.11,13.26.11s9.76.08,14.91.22c5.16.15,10.16.22,15.03.22s9.35.04,13.48.11c4.12.08,7.58.11,10.38.11,1.77,0,3.17.44,4.2,1.33,1.03.88,1.84,1.99,2.43,3.31.59,1.33.96,2.76,1.11,4.31.14,1.55.22,2.98.22,4.31s-.08,2.65-.22,3.98c-.15,1.33-.52,2.58-1.11,3.76-.59,1.18-1.36,2.14-2.32,2.87-.96.74-2.32,1.1-4.09,1.1h-16.68c-7,0-14.25-.03-21.76-.11-7.51-.07-14.77-.11-21.76-.11h-16.9ZM493.49,621.02c0-.88-.44-1.58-1.33-2.1-.88-.51-1.88-.88-2.98-1.1-1.11-.22-2.25-.37-3.42-.44-1.18-.07-2.06-.11-2.65-.11-8.84,0-15.17,2.14-19,6.41-3.83,4.27-5.75,10.09-5.75,17.46,0,4.57,1.22,8.51,3.65,11.82,2.43,3.31,6.15,4.97,11.16,4.97,3.39,0,6.33-1.4,8.84-4.2,2.5-2.8,4.6-6.15,6.3-10.05,1.69-3.9,2.98-7.95,3.87-12.15s1.33-7.7,1.33-10.5Z"/>
    <path class="cls-33" d="M595.57,731.72c-8.69,0-15.99-.7-21.88-2.1-5.89-1.4-10.64-3.5-14.25-6.3-3.61-2.8-6.19-6.19-7.73-10.16-1.55-3.98-2.32-8.54-2.32-13.7,0-25.92-.33-51.56-.99-76.89-.66-25.33-.99-51.04-.99-77.11,0-4.86.25-8.84.77-11.93.51-3.09,1.47-5.56,2.87-7.4,1.4-1.84,3.39-3.13,5.97-3.87,2.58-.74,5.93-1.1,10.05-1.1,2.95,0,5.23.41,6.85,1.22,1.62.81,2.83,2.21,3.65,4.2.81,1.99,1.29,4.61,1.44,7.84.15,3.24.22,7.22.22,11.93,0,4.27-.04,9.17-.11,14.69-.08,5.52-.11,10.83-.11,15.91s.04,9.58.11,13.48c.07,3.9.18,6.3.33,7.18.88-2.35,2.1-5.12,3.65-8.29,1.55-3.17,3.65-6.19,6.3-9.06,2.65-2.87,5.97-5.3,9.94-7.29,3.98-1.99,8.84-2.98,14.58-2.98,13.4,0,23.83,6.56,31.27,19.67,7.44,13.11,11.16,33.22,11.16,60.32,0,10.16-1.07,20.15-3.2,29.94-2.14,9.8-5.56,18.53-10.27,26.18-4.72,7.66-10.94,13.85-18.67,18.56-7.73,4.72-17.27,7.07-28.61,7.07ZM608.61,601.14c-3.98,0-7.66,2.54-11.05,7.62-3.39,5.08-6.3,11.6-8.73,19.56-2.43,7.95-4.35,16.76-5.75,26.4-1.4,9.65-2.1,18.97-2.1,27.95,0,3.09.33,6.04.99,8.84.66,2.8,1.66,5.3,2.98,7.51,1.33,2.21,3.09,3.98,5.3,5.3,2.21,1.33,4.86,1.99,7.96,1.99,3.68,0,6.92-.99,9.72-2.98,2.8-1.99,5.23-4.64,7.29-7.95,2.06-3.31,3.76-6.99,5.08-11.05,1.33-4.05,2.39-8.18,3.2-12.37.81-4.2,1.36-8.21,1.66-12.04.29-3.83.44-7.14.44-9.94,0-6.19-.33-12.23-.99-18.12-.66-5.89-1.7-11.08-3.09-15.58-1.4-4.49-3.17-8.14-5.3-10.94-2.14-2.8-4.68-4.2-7.62-4.2Z"/>
    <path class="cls-33" d="M703.18,660.13c-8.1,0-14.73-1.58-19.89-4.75-5.16-3.17-9.21-7.4-12.15-12.71-2.95-5.3-5.01-11.45-6.19-18.45-1.18-6.99-1.77-14.4-1.77-22.21,0-8.69.07-16.94.22-24.75.14-7.81.22-15.98.22-24.53,0-1.91.22-3.87.66-5.86.44-1.99,1.29-3.76,2.54-5.3,1.25-1.55,2.95-2.8,5.08-3.76,2.13-.96,4.82-1.44,8.07-1.44,3.54,0,6.15.44,7.84,1.33,1.69.88,2.87,2.03,3.54,3.42.66,1.4.96,3.02.88,4.86-.08,1.84-.11,3.72-.11,5.63v51.26c0,10.46,1.66,18.38,4.97,23.75,3.31,5.38,7.7,8.06,13.15,8.06,3.98,0,7.36-.96,10.16-2.87,2.8-1.91,5.08-4.53,6.85-7.84,1.77-3.31,3.02-7.22,3.76-11.71.74-4.49,1.1-9.39,1.1-14.69v-34.69c0-4.27.26-7.88.77-10.83.51-2.94,1.44-5.3,2.76-7.07,1.33-1.77,3.05-3.02,5.19-3.76,2.13-.74,4.82-1.1,8.06-1.1,4.71,0,8.07.99,10.05,2.98s2.98,4.9,2.98,8.73v128.38c0,8.99-1.29,16.76-3.87,23.31-2.58,6.56-6.11,11.97-10.61,16.24-4.5,4.27-9.91,7.4-16.24,9.39-6.33,1.99-13.26,2.98-20.77,2.98-6.93,0-13.26-1.03-19-3.09s-10.72-4.97-14.91-8.73-7.48-8.18-9.83-13.26c-2.36-5.08-3.54-10.72-3.54-16.9s1.18-11.19,3.54-15.03c2.35-3.83,6.48-5.74,12.37-5.74,5.15,0,8.62.96,10.38,2.87,1.77,1.92,2.65,5.38,2.65,10.38,0,3.24.33,6.41.99,9.5.66,3.09,1.69,5.82,3.09,8.18,1.4,2.36,3.28,4.24,5.63,5.63,2.35,1.4,5.3,2.1,8.84,2.1,8.25,0,14.29-2.32,18.12-6.96,3.83-4.64,5.75-11.45,5.75-20.44v-26.07c0-.74-.59-1.1-1.77-1.1-1.33,0-3.13.33-5.41.99-2.29.66-4.79,1.44-7.51,2.32-2.73.88-5.56,1.66-8.51,2.32-2.95.66-5.67.99-8.18.99Z"/>
    <path class="cls-171" d="M386.21,779.6c0,4.27-.3,7.62-.88,10.05-.59,2.43-1.44,4.2-2.54,5.3-1.11,1.1-2.54,1.77-4.31,1.99-1.77.22-3.83.33-6.19.33-3.83,0-6.45-1.55-7.84-4.64-1.4-3.09-2.1-7.22-2.1-12.37,0-5.75-2.1-9.87-6.3-12.37-4.2-2.5-9.32-3.76-15.36-3.76-4.42,0-8.21.85-11.38,2.54-3.17,1.69-5.78,3.87-7.84,6.52-2.06,2.65-3.57,5.6-4.53,8.84-.96,3.24-1.44,6.41-1.44,9.5,0,6.63,1.88,11.97,5.63,16.02,3.76,4.05,8.47,7.59,14.14,10.61,5.67,3.02,11.82,5.93,18.45,8.73,6.63,2.8,12.78,6.26,18.45,10.39,5.67,4.13,10.38,9.36,14.14,15.69,3.76,6.34,5.63,14.51,5.63,24.53,0,7.51-1.47,14.51-4.42,20.99-2.95,6.48-7.04,12.15-12.26,17.01-5.23,4.86-11.42,8.69-18.56,11.49-7.15,2.8-14.92,4.2-23.31,4.2-7.22,0-13.96-1.25-20.22-3.76-6.26-2.5-11.71-5.86-16.35-10.05-4.64-4.2-8.29-9.09-10.94-14.69-2.65-5.6-3.98-11.56-3.98-17.9,0-7.95,1-13.4,2.98-16.35,1.99-2.94,5.41-4.42,10.27-4.42s7.88.96,9.5,2.87c1.62,1.92,2.43,5.74,2.43,11.49,0,3.39.7,6.59,2.1,9.61,1.4,3.02,3.24,5.63,5.52,7.84,2.28,2.21,4.9,3.98,7.84,5.3,2.94,1.33,5.97,1.99,9.06,1.99,3.83,0,7.55-.55,11.16-1.66,3.61-1.1,6.85-2.69,9.72-4.75,2.87-2.06,5.15-4.53,6.85-7.4,1.69-2.87,2.54-6,2.54-9.39,0-6.33-1.88-11.49-5.63-15.47-3.76-3.98-8.43-7.55-14.03-10.72-5.6-3.17-11.68-6.26-18.23-9.28-6.56-3.02-12.63-6.66-18.23-10.94-5.6-4.27-10.28-9.46-14.03-15.58-3.76-6.11-5.63-13.88-5.63-23.31,0-7.51,1.33-14.69,3.98-21.54s6.37-12.89,11.16-18.12c4.79-5.23,10.53-9.39,17.24-12.48,6.7-3.09,14.1-4.64,22.21-4.64,7.36,0,13.88,1.1,19.55,3.31,5.67,2.21,10.42,5.23,14.25,9.06,3.83,3.83,6.74,8.25,8.73,13.26,1.99,5.01,2.98,10.39,2.98,16.13Z"/>
    <path class="cls-171" d="M403.45,883.01c0-8.69-.04-18.78-.11-30.27-.08-11.49-.15-23.2-.22-35.13-.08-11.93-.15-23.53-.22-34.8-.08-11.27-.11-21.03-.11-29.28,0-3.83,1.03-7.03,3.09-9.61,2.06-2.58,6.33-3.87,12.82-3.87,5.3,0,9.09,1.03,11.38,3.09,2.28,2.06,3.42,5.89,3.42,11.49,0,2.21-.04,4.38-.11,6.52-.08,2.14-.11,4.09-.11,5.85,0,1.47.4,2.4,1.21,2.76.81.37,2.24.55,4.31.55,2.65,0,6.08-.07,10.27-.22,4.2-.15,9.24-.22,15.14-.22,1.91,0,3.68.08,5.3.22,1.62.15,3.05.55,4.31,1.22,1.25.66,2.24,1.77,2.98,3.31.74,1.55,1.1,3.79,1.1,6.74,0,4.27-1.03,7.51-3.09,9.72-2.06,2.21-4.72,3.31-7.96,3.31h-26.74c-2.95,0-4.79.52-5.52,1.55-.74,1.03-1.1,2.14-1.1,3.31v73.58c0,12.23.74,20.96,2.21,26.18,1.47,5.23,4.05,7.84,7.73,7.84,2.5,0,4.56-1.29,6.19-3.87,1.62-2.58,2.87-5.97,3.76-10.16s1.51-8.98,1.88-14.36c.37-5.38.55-10.79.55-16.24,0-1.03-.04-2.47-.11-4.31-.08-1.84.18-3.68.77-5.52.59-1.84,1.62-3.43,3.09-4.75,1.47-1.33,3.83-1.99,7.07-1.99,3.68,0,6.41.52,8.18,1.55,1.77,1.03,2.98,2.29,3.65,3.76.66,1.47.99,3.06.99,4.75v4.31c0,9.72-.44,19.04-1.33,27.95-.88,8.91-2.58,16.76-5.08,23.53-2.51,6.78-6.11,12.19-10.83,16.24-4.72,4.05-10.9,6.08-18.56,6.08-14.88,0-25.3-4.31-31.27-12.93-5.97-8.62-8.95-21.25-8.95-37.89Z"/>
    <path class="cls-171" d="M538.46,890.96c-8.84,0-16.5-1.73-22.98-5.19-6.48-3.46-11.82-8.18-16.02-14.14s-7.33-13-9.39-21.1c-2.06-8.1-3.09-16.79-3.09-26.07,0-10.46.92-20.66,2.76-30.6,1.84-9.94,4.97-18.78,9.39-26.52,4.42-7.73,10.28-13.95,17.57-18.67,7.29-4.71,16.31-7.07,27.07-7.07,6.04,0,11.41,1.29,16.13,3.87,4.71,2.58,8.69,5.97,11.93,10.16,3.24,4.2,5.67,9.06,7.29,14.58,1.62,5.52,2.43,11.23,2.43,17.12,0,6.93-1.1,13.3-3.31,19.11-2.21,5.82-5.3,10.83-9.28,15.02s-8.69,7.48-14.14,9.83c-5.45,2.36-11.42,3.54-17.9,3.54-4.27,0-7.95-.59-11.05-1.77-3.09-1.18-5.97-2.72-8.62-4.64,0,1.47.25,4.16.77,8.06.51,3.9,1.51,7.95,2.98,12.15,1.47,4.2,3.61,7.92,6.41,11.16,2.8,3.24,6.63,4.86,11.49,4.86,4.27,0,7.59-.33,9.94-.99,2.35-.66,4.09-1.58,5.19-2.76,1.11-1.18,1.8-2.61,2.1-4.31.29-1.69.44-3.65.44-5.85,0-1.77.07-3.35.22-4.75.14-1.4.59-2.58,1.33-3.54.74-.96,1.99-1.69,3.76-2.21,1.77-.51,4.2-.77,7.29-.77s5.49.52,7.18,1.55c1.69,1.03,2.91,2.21,3.65,3.54.74,1.33,1.18,2.65,1.33,3.98.14,1.33.22,2.36.22,3.09,0,5.6-.92,10.79-2.76,15.58-1.84,4.79-4.61,8.95-8.29,12.48-3.68,3.54-8.18,6.3-13.48,8.29-5.3,1.99-11.49,2.98-18.56,2.98ZM500.01,927.86c-2.21,0-4.09-1.22-5.63-3.65-1.55-2.43-2.32-5.49-2.32-9.17,0-8.54,2.58-12.82,7.73-12.82,2.65,0,6,.04,10.05.11,4.05.08,8.47.11,13.26.11s9.76.08,14.91.22c5.16.15,10.16.22,15.03.22s9.35.04,13.48.11c4.12.08,7.58.11,10.38.11,1.77,0,3.17.44,4.2,1.33,1.03.88,1.84,1.99,2.43,3.31.59,1.33.96,2.76,1.11,4.31.14,1.55.22,2.98.22,4.31s-.08,2.65-.22,3.98c-.15,1.33-.52,2.58-1.11,3.76-.59,1.18-1.36,2.14-2.32,2.87-.96.74-2.32,1.1-4.09,1.1h-16.68c-7,0-14.25-.03-21.76-.11-7.51-.07-14.77-.11-21.76-.11h-16.9ZM517.24,799.04c0,1.77.66,3.42,1.99,4.97,1.33,1.55,2.91,2.87,4.75,3.98,1.84,1.1,3.83,1.99,5.97,2.65,2.13.66,4.01.99,5.63.99,6.33,0,11.67-1.88,16.02-5.63,4.34-3.76,6.52-9.83,6.52-18.23,0-7.07-1.4-12.82-4.2-17.23-2.8-4.42-7.15-6.63-13.04-6.63-3.98,0-7.44,1.14-10.38,3.42-2.95,2.29-5.41,5.19-7.4,8.73-1.99,3.54-3.46,7.37-4.42,11.49-.96,4.13-1.44,7.95-1.44,11.49Z"/>
    <path class="cls-171" d="M651.81,742.25c8.25,0,15.32,1.99,21.21,5.97,5.89,3.98,10.72,9.43,14.47,16.35,3.76,6.93,6.55,14.99,8.4,24.19,1.84,9.21,2.76,19.11,2.76,29.72,0,9.43-1.07,18.27-3.2,26.52-2.14,8.25-5.34,15.47-9.61,21.65-4.27,6.19-9.72,11.05-16.35,14.58-6.63,3.54-14.44,5.3-23.42,5.3-3.54,0-6.59-.29-9.17-.88-2.58-.59-4.68-.88-6.3-.88-1.18,0-2.1.33-2.76.99-.66.66-.99,1.88-.99,3.65v35.8c0,4.72-.99,8.69-2.98,11.93-1.99,3.24-4.9,4.86-8.73,4.86-2.06,0-4.12-.19-6.19-.55-2.06-.37-3.94-.96-5.63-1.77-1.7-.81-3.06-1.95-4.09-3.42-1.03-1.47-1.55-3.31-1.55-5.52v-161.3c0-3.39-.55-6.33-1.66-8.84-1.11-2.5-2.25-4.71-3.42-6.63-.88-1.33-.92-2.8-.11-4.42.81-1.62,2.06-3.17,3.76-4.64,1.69-1.47,3.65-2.69,5.86-3.65,2.21-.96,4.27-1.44,6.19-1.44,3.39,0,6.33,1.4,8.84,4.2,2.5,2.8,4.71,6.11,6.63,9.94.29.59.59,1.1.88,1.55.29.44.74.66,1.33.66.74,0,1.84-.74,3.31-2.21,2.65-2.95,5.82-5.63,9.5-8.06,3.68-2.43,8.03-3.65,13.04-3.65ZM670.37,818.04c0-5.74-.33-11.52-.99-17.35-.66-5.82-1.84-11.08-3.54-15.8-1.7-4.71-3.87-8.58-6.52-11.6-2.65-3.02-5.97-4.53-9.94-4.53-2.65,0-5.3.88-7.96,2.65-2.65,1.77-5.08,4.02-7.29,6.74-2.21,2.73-4.02,5.86-5.41,9.39-1.4,3.54-2.1,7.07-2.1,10.61v49.94c0,5.01,1.03,8.51,3.09,10.5,2.06,1.99,6.55,2.98,13.48,2.98,4.27,0,8.1-1.07,11.49-3.2,3.39-2.13,6.26-5.12,8.62-8.95,2.35-3.83,4.12-8.43,5.3-13.81,1.18-5.38,1.77-11.23,1.77-17.57Z"/>
    <path class="cls-171" d="M764.49,884.11c0-5.45-1.47-10.27-4.42-14.47-2.95-4.2-6.67-8.14-11.16-11.82-4.5-3.68-9.32-7.33-14.47-10.94-5.16-3.61-9.98-7.62-14.47-12.04-4.5-4.42-8.21-9.43-11.16-15.03-2.95-5.6-4.42-12.23-4.42-19.89s1.1-14.91,3.31-21.32,5.38-11.93,9.5-16.57c4.12-4.64,9.13-8.25,15.03-10.83,5.89-2.58,12.59-3.87,20.11-3.87,6.48,0,12.41,1.03,17.79,3.09,5.38,2.06,9.94,4.94,13.7,8.62,3.76,3.68,6.66,8.14,8.73,13.37,2.06,5.23,3.09,11.09,3.09,17.57s-1.14,10.75-3.42,13.26c-2.29,2.51-6.22,3.76-11.82,3.76-4.72,0-7.99-.96-9.83-2.87-1.84-1.91-2.76-5.3-2.76-10.16,0-6.63-1.33-11.97-3.98-16.02-2.65-4.05-6.11-6.08-10.38-6.08-2.51,0-4.9.7-7.18,2.1-2.29,1.4-4.27,3.24-5.97,5.52-1.7,2.29-3.06,4.97-4.09,8.06-1.03,3.09-1.55,6.34-1.55,9.72,0,5.89,1.55,11.01,4.64,15.36,3.09,4.35,6.92,8.43,11.49,12.26,4.56,3.83,9.57,7.59,15.03,11.27,5.45,3.68,10.46,7.81,15.03,12.37,4.56,4.57,8.4,9.8,11.49,15.69,3.09,5.89,4.64,12.89,4.64,20.99,0,7.22-1.36,13.96-4.09,20.22-2.73,6.26-6.41,11.75-11.05,16.46-4.64,4.72-9.98,8.43-16.02,11.16-6.04,2.72-12.45,4.09-19.22,4.09s-12.78-1.14-18.45-3.42c-5.67-2.28-10.53-5.45-14.58-9.5-4.05-4.05-7.22-8.84-9.5-14.36-2.29-5.52-3.42-11.6-3.42-18.23,0-11.19,4.42-16.79,13.26-16.79,6.19,0,10.05,1.4,11.6,4.2,1.55,2.8,2.32,6.63,2.32,11.49,0,2.06.4,4.35,1.21,6.85.81,2.51,2.02,4.83,3.65,6.96,1.62,2.14,3.57,3.94,5.85,5.41,2.28,1.47,4.82,2.21,7.62,2.21,2.21,0,4.42-.74,6.63-2.21,2.21-1.47,4.2-3.46,5.97-5.97,1.77-2.5,3.17-5.45,4.2-8.84,1.03-3.39,1.55-6.99,1.55-10.83Z"/>
  </g>
  <g>
    <g class="cls-21">
      <g class="cls-187">
        <rect class="cls-31" x="575.84" y="309.55" width="230.24" height="134.02"/>
        <ellipse class="cls-31" cx="690.96" cy="376.56" rx="115.12" ry="67.01"/>
        <ellipse class="cls-17" cx="690.96" cy="376.56" rx="114.53" ry="66.67"/>
        <ellipse class="cls-105" cx="690.96" cy="376.56" rx="113.94" ry="66.32"/>
        <ellipse class="cls-127" cx="690.96" cy="376.56" rx="113.34" ry="65.98"/>
        <ellipse class="cls-77" cx="690.96" cy="376.56" rx="112.75" ry="65.63"/>
        <ellipse class="cls-131" cx="690.96" cy="376.56" rx="112.15" ry="65.28"/>
        <ellipse class="cls-110" cx="690.96" cy="376.56" rx="111.56" ry="64.94"/>
        <ellipse class="cls-72" cx="690.96" cy="376.56" rx="110.97" ry="64.59"/>
        <ellipse class="cls-145" cx="690.96" cy="376.56" rx="110.37" ry="64.25"/>
        <ellipse class="cls-128" cx="690.96" cy="376.56" rx="109.78" ry="63.9"/>
        <ellipse class="cls-160" cx="690.96" cy="376.56" rx="109.19" ry="63.56"/>
        <ellipse class="cls-71" cx="690.96" cy="376.56" rx="108.59" ry="63.21"/>
        <ellipse class="cls-198" cx="690.96" cy="376.56" rx="108" ry="62.87"/>
        <ellipse class="cls-169" cx="690.96" cy="376.56" rx="107.41" ry="62.52"/>
        <ellipse class="cls-172" cx="690.96" cy="376.56" rx="106.81" ry="62.18"/>
        <ellipse class="cls-43" cx="690.96" cy="376.56" rx="106.22" ry="61.83"/>
        <ellipse class="cls-120" cx="690.96" cy="376.56" rx="105.63" ry="61.48"/>
        <ellipse class="cls-61" cx="690.96" cy="376.56" rx="105.03" ry="61.14"/>
        <ellipse class="cls-183" cx="690.96" cy="376.56" rx="104.44" ry="60.79"/>
        <ellipse class="cls-59" cx="690.96" cy="376.56" rx="103.85" ry="60.45"/>
        <ellipse class="cls-113" cx="690.96" cy="376.56" rx="103.25" ry="60.1"/>
        <ellipse class="cls-181" cx="690.96" cy="376.56" rx="102.66" ry="59.76"/>
        <ellipse class="cls-89" cx="690.96" cy="376.56" rx="102.07" ry="59.41"/>
        <ellipse class="cls-44" cx="690.96" cy="376.56" rx="101.47" ry="59.07"/>
        <ellipse class="cls-166" cx="690.96" cy="376.56" rx="100.88" ry="58.72"/>
        <ellipse class="cls-13" cx="690.96" cy="376.56" rx="100.29" ry="58.38"/>
        <ellipse class="cls-2" cx="690.96" cy="376.56" rx="99.69" ry="58.03"/>
        <ellipse class="cls-47" cx="690.96" cy="376.56" rx="99.1" ry="57.69"/>
        <ellipse class="cls-7" cx="690.96" cy="376.56" rx="98.51" ry="57.34"/>
        <ellipse class="cls-116" cx="690.96" cy="376.56" rx="97.91" ry="56.99"/>
        <ellipse class="cls-37" cx="690.96" cy="376.56" rx="97.32" ry="56.65"/>
        <ellipse class="cls-57" cx="690.96" cy="376.56" rx="96.73" ry="56.3"/>
        <ellipse class="cls-134" cx="690.96" cy="376.56" rx="96.13" ry="55.96"/>
        <ellipse class="cls-26" cx="690.96" cy="376.56" rx="95.54" ry="55.61"/>
        <ellipse class="cls-68" cx="690.96" cy="376.56" rx="94.95" ry="55.27"/>
        <ellipse class="cls-108" cx="690.96" cy="376.56" rx="94.35" ry="54.92"/>
        <ellipse class="cls-135" cx="690.96" cy="376.56" rx="93.76" ry="54.58"/>
        <ellipse class="cls-149" cx="690.96" cy="376.56" rx="93.17" ry="54.23"/>
        <ellipse class="cls-62" cx="690.96" cy="376.56" rx="92.57" ry="53.89"/>
        <ellipse class="cls-191" cx="690.96" cy="376.56" rx="91.98" ry="53.54"/>
        <ellipse class="cls-159" cx="690.96" cy="376.56" rx="91.39" ry="53.19"/>
        <ellipse class="cls-162" cx="690.96" cy="376.56" rx="90.79" ry="52.85"/>
        <ellipse class="cls-177" cx="690.96" cy="376.56" rx="90.2" ry="52.5"/>
        <ellipse class="cls-167" cx="690.96" cy="376.56" rx="89.61" ry="52.16"/>
        <ellipse class="cls-63" cx="690.96" cy="376.56" rx="89.01" ry="51.81"/>
        <ellipse class="cls-95" cx="690.96" cy="376.56" rx="88.42" ry="51.47"/>
        <ellipse class="cls-141" cx="690.96" cy="376.56" rx="87.83" ry="51.12"/>
        <ellipse class="cls-60" cx="690.96" cy="376.56" rx="87.23" ry="50.78"/>
        <ellipse class="cls-176" cx="690.96" cy="376.56" rx="86.64" ry="50.43"/>
        <ellipse class="cls-35" cx="690.96" cy="376.56" rx="86.04" ry="50.09"/>
        <ellipse class="cls-1" cx="690.96" cy="376.56" rx="85.45" ry="49.74"/>
        <ellipse class="cls-67" cx="690.96" cy="376.56" rx="84.86" ry="49.4"/>
        <ellipse class="cls-29" cx="690.96" cy="376.56" rx="84.26" ry="49.05"/>
        <ellipse class="cls-5" cx="690.96" cy="376.56" rx="83.67" ry="48.7"/>
        <ellipse class="cls-185" cx="690.96" cy="376.56" rx="83.08" ry="48.36"/>
        <ellipse class="cls-152" cx="690.96" cy="376.56" rx="82.48" ry="48.01"/>
        <ellipse class="cls-147" cx="690.96" cy="376.56" rx="81.89" ry="47.67"/>
        <ellipse class="cls-78" cx="690.96" cy="376.56" rx="81.3" ry="47.32"/>
        <ellipse class="cls-140" cx="690.96" cy="376.56" rx="80.7" ry="46.98"/>
        <ellipse class="cls-170" cx="690.96" cy="376.56" rx="80.11" ry="46.63"/>
        <ellipse class="cls-9" cx="690.96" cy="376.56" rx="79.52" ry="46.29"/>
        <ellipse class="cls-96" cx="690.96" cy="376.56" rx="78.92" ry="45.94"/>
        <ellipse class="cls-190" cx="690.96" cy="376.56" rx="78.33" ry="45.6"/>
        <ellipse class="cls-3" cx="690.96" cy="376.56" rx="77.74" ry="45.25"/>
        <ellipse class="cls-119" cx="690.96" cy="376.56" rx="77.14" ry="44.9"/>
        <ellipse class="cls-27" cx="690.96" cy="376.56" rx="76.55" ry="44.56"/>
        <ellipse class="cls-132" cx="690.96" cy="376.56" rx="75.96" ry="44.21"/>
        <ellipse class="cls-28" cx="690.96" cy="376.56" rx="75.36" ry="43.87"/>
        <ellipse class="cls-182" cx="690.96" cy="376.56" rx="74.77" ry="43.52"/>
        <ellipse class="cls-88" cx="690.96" cy="376.56" rx="74.18" ry="43.18"/>
        <ellipse class="cls-10" cx="690.96" cy="376.56" rx="73.58" ry="42.83"/>
        <ellipse class="cls-12" cx="690.96" cy="376.56" rx="72.99" ry="42.49"/>
        <ellipse class="cls-153" cx="690.96" cy="376.56" rx="72.4" ry="42.14"/>
        <ellipse class="cls-25" cx="690.96" cy="376.56" rx="71.8" ry="41.8"/>
        <ellipse class="cls-50" cx="690.96" cy="376.56" rx="71.21" ry="41.45"/>
        <ellipse class="cls-197" cx="690.96" cy="376.56" rx="70.62" ry="41.11"/>
        <ellipse class="cls-196" cx="690.96" cy="376.56" rx="70.02" ry="40.76"/>
        <ellipse class="cls-179" cx="690.96" cy="376.56" rx="69.43" ry="40.41"/>
        <ellipse class="cls-148" cx="690.96" cy="376.56" rx="68.84" ry="40.07"/>
        <ellipse class="cls-49" cx="690.96" cy="376.56" rx="68.24" ry="39.72"/>
        <ellipse class="cls-114" cx="690.96" cy="376.56" rx="67.65" ry="39.38"/>
        <ellipse class="cls-81" cx="690.96" cy="376.56" rx="67.06" ry="39.03"/>
        <ellipse class="cls-42" cx="690.96" cy="376.56" rx="66.46" ry="38.69"/>
        <ellipse class="cls-87" cx="690.96" cy="376.56" rx="65.87" ry="38.34"/>
        <ellipse class="cls-121" cx="690.96" cy="376.56" rx="65.28" ry="38"/>
        <ellipse class="cls-51" cx="690.96" cy="376.56" rx="64.68" ry="37.65"/>
        <ellipse class="cls-34" cx="690.96" cy="376.56" rx="64.09" ry="37.31"/>
        <ellipse class="cls-123" cx="690.96" cy="376.56" rx="63.5" ry="36.96"/>
        <ellipse class="cls-124" cx="690.96" cy="376.56" rx="62.9" ry="36.61"/>
        <ellipse class="cls-151" cx="690.96" cy="376.56" rx="62.31" ry="36.27"/>
        <ellipse class="cls-117" cx="690.96" cy="376.56" rx="61.71" ry="35.92"/>
        <ellipse class="cls-109" cx="690.96" cy="376.56" rx="61.12" ry="35.58"/>
        <ellipse class="cls-184" cx="690.96" cy="376.56" rx="60.53" ry="35.23"/>
        <ellipse class="cls-136" cx="690.96" cy="376.56" rx="59.93" ry="34.89"/>
        <ellipse class="cls-48" cx="690.96" cy="376.56" rx="59.34" ry="34.54"/>
        <ellipse class="cls-161" cx="690.96" cy="376.56" rx="58.75" ry="34.2"/>
        <ellipse class="cls-20" cx="690.96" cy="376.56" rx="58.15" ry="33.85"/>
        <ellipse class="cls-73" cx="690.96" cy="376.56" rx="57.56" ry="33.51"/>
        <ellipse class="cls-186" cx="690.96" cy="376.56" rx="56.97" ry="33.16"/>
        <ellipse class="cls-16" cx="690.96" cy="376.56" rx="56.37" ry="32.81"/>
        <ellipse class="cls-142" cx="690.96" cy="376.56" rx="55.78" ry="32.47"/>
        <ellipse class="cls-23" cx="690.96" cy="376.56" rx="55.19" ry="32.12"/>
        <ellipse class="cls-91" cx="690.96" cy="376.56" rx="54.59" ry="31.78"/>
        <ellipse class="cls-158" cx="690.96" cy="376.56" rx="54" ry="31.43"/>
        <ellipse class="cls-38" cx="690.96" cy="376.56" rx="53.41" ry="31.09"/>
        <ellipse class="cls-94" cx="690.96" cy="376.56" rx="52.81" ry="30.74"/>
        <ellipse class="cls-53" cx="690.96" cy="376.56" rx="52.22" ry="30.4"/>
        <ellipse class="cls-118" cx="690.96" cy="376.56" rx="51.63" ry="30.05"/>
        <ellipse class="cls-30" cx="690.96" cy="376.56" rx="51.03" ry="29.71"/>
        <ellipse class="cls-8" cx="690.96" cy="376.56" rx="50.44" ry="29.36"/>
        <ellipse class="cls-173" cx="690.96" cy="376.56" rx="49.85" ry="29.02"/>
        <ellipse class="cls-168" cx="690.96" cy="376.56" rx="49.25" ry="28.67"/>
        <ellipse class="cls-115" cx="690.96" cy="376.56" rx="48.66" ry="28.32"/>
        <ellipse class="cls-199" cx="690.96" cy="376.56" rx="48.07" ry="27.98"/>
        <ellipse class="cls-74" cx="690.96" cy="376.56" rx="47.47" ry="27.63"/>
        <ellipse class="cls-93" cx="690.96" cy="376.56" rx="46.88" ry="27.29"/>
        <ellipse class="cls-58" cx="690.96" cy="376.56" rx="46.29" ry="26.94"/>
        <ellipse class="cls-39" cx="690.96" cy="376.56" rx="45.69" ry="26.6"/>
        <ellipse class="cls-55" cx="690.96" cy="376.56" rx="45.1" ry="26.25"/>
        <ellipse class="cls-99" cx="690.96" cy="376.56" rx="44.51" ry="25.91"/>
        <ellipse class="cls-90" cx="690.96" cy="376.56" rx="43.91" ry="25.56"/>
        <ellipse class="cls-189" cx="690.96" cy="376.56" rx="43.32" ry="25.22"/>
        <ellipse class="cls-156" cx="690.96" cy="376.56" rx="42.73" ry="24.87"/>
        <ellipse class="cls-138" cx="690.96" cy="376.56" rx="42.13" ry="24.52"/>
        <ellipse class="cls-178" cx="690.96" cy="376.56" rx="41.54" ry="24.18"/>
        <ellipse class="cls-133" cx="690.96" cy="376.56" rx="40.95" ry="23.83"/>
        <ellipse class="cls-137" cx="690.96" cy="376.56" rx="40.35" ry="23.49"/>
        <ellipse class="cls-41" cx="690.96" cy="376.56" rx="39.76" ry="23.14"/>
        <ellipse class="cls-65" cx="690.96" cy="376.56" rx="39.17" ry="22.8"/>
        <ellipse class="cls-86" cx="690.96" cy="376.56" rx="38.57" ry="22.45"/>
        <ellipse class="cls-103" cx="690.96" cy="376.56" rx="37.98" ry="22.11"/>
        <ellipse class="cls-64" cx="690.96" cy="376.56" rx="37.38" ry="21.76"/>
        <ellipse class="cls-130" cx="690.96" cy="376.56" rx="36.79" ry="21.42"/>
        <ellipse class="cls-180" cx="690.96" cy="376.56" rx="36.2" ry="21.07"/>
        <ellipse class="cls-111" cx="690.96" cy="376.56" rx="35.6" ry="20.73"/>
        <ellipse class="cls-18" cx="690.96" cy="376.56" rx="35.01" ry="20.38"/>
        <ellipse class="cls-15" cx="690.96" cy="376.56" rx="34.42" ry="20.03"/>
        <ellipse class="cls-14" cx="690.96" cy="376.56" rx="33.82" ry="19.69"/>
        <ellipse class="cls-102" cx="690.96" cy="376.56" rx="33.23" ry="19.34"/>
        <ellipse class="cls-104" cx="690.96" cy="376.56" rx="32.64" ry="19"/>
        <ellipse class="cls-106" cx="690.96" cy="376.56" rx="32.04" ry="18.65"/>
        <ellipse class="cls-150" cx="690.96" cy="376.56" rx="31.45" ry="18.31"/>
        <ellipse class="cls-85" cx="690.96" cy="376.56" rx="30.86" ry="17.96"/>
        <ellipse class="cls-101" cx="690.96" cy="376.56" rx="30.26" ry="17.62"/>
        <ellipse class="cls-192" cx="690.96" cy="376.56" rx="29.67" ry="17.27"/>
        <ellipse class="cls-174" cx="690.96" cy="376.56" rx="29.08" ry="16.93"/>
        <ellipse class="cls-175" cx="690.96" cy="376.56" rx="28.48" ry="16.58"/>
        <ellipse class="cls-112" cx="690.96" cy="376.56" rx="27.89" ry="16.23"/>
        <ellipse class="cls-92" cx="690.96" cy="376.56" rx="27.3" ry="15.89"/>
        <ellipse class="cls-56" cx="690.96" cy="376.56" rx="26.7" ry="15.54"/>
        <ellipse class="cls-195" cx="690.96" cy="376.56" rx="26.11" ry="15.2"/>
        <ellipse class="cls-76" cx="690.96" cy="376.56" rx="25.52" ry="14.85"/>
        <ellipse class="cls-98" cx="690.96" cy="376.56" rx="24.92" ry="14.51"/>
        <ellipse class="cls-201" cx="690.96" cy="376.56" rx="24.33" ry="14.16"/>
        <ellipse class="cls-165" cx="690.96" cy="376.56" rx="23.74" ry="13.82"/>
        <ellipse class="cls-82" cx="690.96" cy="376.56" rx="23.14" ry="13.47"/>
        <ellipse class="cls-52" cx="690.96" cy="376.56" rx="22.55" ry="13.13"/>
        <ellipse class="cls-4" cx="690.96" cy="376.56" rx="21.96" ry="12.78"/>
        <ellipse class="cls-84" cx="690.96" cy="376.56" rx="21.36" ry="12.44"/>
        <ellipse class="cls-70" cx="690.96" cy="376.56" rx="20.77" ry="12.09"/>
        <ellipse class="cls-154" cx="690.96" cy="376.56" rx="20.18" ry="11.74"/>
        <ellipse class="cls-22" cx="690.96" cy="376.56" rx="19.58" ry="11.4"/>
        <ellipse class="cls-45" cx="690.96" cy="376.56" rx="18.99" ry="11.05"/>
        <ellipse class="cls-155" cx="690.96" cy="376.56" rx="18.4" ry="10.71"/>
        <ellipse class="cls-40" cx="690.96" cy="376.56" rx="17.8" ry="10.36"/>
        <ellipse class="cls-19" cx="690.96" cy="376.56" rx="17.21" ry="10.02"/>
        <ellipse class="cls-164" cx="690.96" cy="376.56" rx="16.62" ry="9.67"/>
        <ellipse class="cls-24" cx="690.96" cy="376.56" rx="16.02" ry="9.33"/>
        <ellipse class="cls-80" cx="690.96" cy="376.56" rx="15.43" ry="8.98"/>
        <ellipse class="cls-122" cx="690.96" cy="376.56" rx="14.84" ry="8.64"/>
        <ellipse class="cls-129" cx="690.96" cy="376.56" rx="14.24" ry="8.29"/>
        <ellipse class="cls-188" cx="690.96" cy="376.56" rx="13.65" ry="7.94"/>
        <ellipse class="cls-157" cx="690.96" cy="376.56" rx="13.06" ry="7.6"/>
        <ellipse class="cls-125" cx="690.96" cy="376.56" rx="12.46" ry="7.25"/>
        <ellipse class="cls-139" cx="690.96" cy="376.56" rx="11.87" ry="6.91"/>
        <ellipse class="cls-32" cx="690.96" cy="376.56" rx="11.27" ry="6.56"/>
        <ellipse class="cls-83" cx="690.96" cy="376.56" rx="10.68" ry="6.22"/>
        <ellipse class="cls-194" cx="690.96" cy="376.56" rx="10.09" ry="5.87"/>
        <ellipse class="cls-36" cx="690.96" cy="376.56" rx="9.49" ry="5.53"/>
        <ellipse class="cls-6" cx="690.96" cy="376.56" rx="8.9" ry="5.18"/>
        <ellipse class="cls-11" cx="690.96" cy="376.56" rx="8.31" ry="4.84"/>
        <ellipse class="cls-54" cx="690.96" cy="376.56" rx="7.71" ry="4.49"/>
        <ellipse class="cls-163" cx="690.96" cy="376.56" rx="7.12" ry="4.15"/>
        <ellipse class="cls-97" cx="690.96" cy="376.56" rx="6.53" ry="3.8"/>
        <ellipse class="cls-79" cx="690.96" cy="376.56" rx="5.93" ry="3.45"/>
        <ellipse class="cls-143" cx="690.96" cy="376.56" rx="5.34" ry="3.11"/>
        <ellipse class="cls-107" cx="690.96" cy="376.56" rx="4.75" ry="2.76"/>
        <ellipse class="cls-200" cx="690.96" cy="376.56" rx="4.15" ry="2.42"/>
        <ellipse class="cls-100" cx="690.96" cy="376.56" rx="3.56" ry="2.07"/>
        <ellipse class="cls-146" cx="690.96" cy="376.56" rx="2.97" ry="1.73"/>
        <ellipse class="cls-69" cx="690.96" cy="376.56" rx="2.37" ry="1.38"/>
        <ellipse class="cls-126" cx="690.96" cy="376.56" rx="1.78" ry="1.04"/>
        <ellipse class="cls-193" cx="690.96" cy="376.56" rx="1.19" ry=".69"/>
        <ellipse class="cls-144" cx="690.96" cy="376.56" rx=".59" ry=".35"/>
      </g>
    </g>
    <g class="cls-21">
      <g class="cls-75">
        <rect class="cls-31" x="280.48" y="304.6" width="230.24" height="134.02"/>
        <ellipse class="cls-31" cx="395.6" cy="371.61" rx="115.12" ry="67.01"/>
        <ellipse class="cls-17" cx="395.6" cy="371.61" rx="114.53" ry="66.67"/>
        <ellipse class="cls-105" cx="395.6" cy="371.61" rx="113.94" ry="66.32"/>
        <ellipse class="cls-127" cx="395.6" cy="371.61" rx="113.34" ry="65.98"/>
        <ellipse class="cls-77" cx="395.6" cy="371.61" rx="112.75" ry="65.63"/>
        <ellipse class="cls-131" cx="395.6" cy="371.61" rx="112.15" ry="65.28"/>
        <ellipse class="cls-110" cx="395.6" cy="371.61" rx="111.56" ry="64.94"/>
        <ellipse class="cls-72" cx="395.6" cy="371.61" rx="110.97" ry="64.59"/>
        <ellipse class="cls-145" cx="395.6" cy="371.61" rx="110.37" ry="64.25"/>
        <ellipse class="cls-128" cx="395.6" cy="371.61" rx="109.78" ry="63.9"/>
        <ellipse class="cls-160" cx="395.6" cy="371.61" rx="109.19" ry="63.56"/>
        <ellipse class="cls-71" cx="395.6" cy="371.61" rx="108.59" ry="63.21"/>
        <ellipse class="cls-198" cx="395.6" cy="371.61" rx="108" ry="62.87"/>
        <ellipse class="cls-169" cx="395.6" cy="371.61" rx="107.41" ry="62.52"/>
        <ellipse class="cls-172" cx="395.6" cy="371.61" rx="106.81" ry="62.18"/>
        <ellipse class="cls-43" cx="395.6" cy="371.61" rx="106.22" ry="61.83"/>
        <ellipse class="cls-120" cx="395.6" cy="371.61" rx="105.63" ry="61.48"/>
        <ellipse class="cls-61" cx="395.6" cy="371.61" rx="105.03" ry="61.14"/>
        <ellipse class="cls-183" cx="395.6" cy="371.61" rx="104.44" ry="60.79"/>
        <ellipse class="cls-59" cx="395.6" cy="371.61" rx="103.85" ry="60.45"/>
        <ellipse class="cls-113" cx="395.6" cy="371.61" rx="103.25" ry="60.1"/>
        <ellipse class="cls-181" cx="395.6" cy="371.61" rx="102.66" ry="59.76"/>
        <ellipse class="cls-89" cx="395.6" cy="371.61" rx="102.07" ry="59.41"/>
        <ellipse class="cls-44" cx="395.6" cy="371.61" rx="101.47" ry="59.07"/>
        <ellipse class="cls-166" cx="395.6" cy="371.61" rx="100.88" ry="58.72"/>
        <ellipse class="cls-13" cx="395.6" cy="371.61" rx="100.29" ry="58.38"/>
        <ellipse class="cls-2" cx="395.6" cy="371.61" rx="99.69" ry="58.03"/>
        <ellipse class="cls-47" cx="395.6" cy="371.61" rx="99.1" ry="57.69"/>
        <ellipse class="cls-7" cx="395.6" cy="371.61" rx="98.51" ry="57.34"/>
        <ellipse class="cls-116" cx="395.6" cy="371.61" rx="97.91" ry="56.99"/>
        <ellipse class="cls-37" cx="395.6" cy="371.61" rx="97.32" ry="56.65"/>
        <ellipse class="cls-57" cx="395.6" cy="371.61" rx="96.73" ry="56.3"/>
        <ellipse class="cls-134" cx="395.6" cy="371.61" rx="96.13" ry="55.96"/>
        <ellipse class="cls-26" cx="395.6" cy="371.61" rx="95.54" ry="55.61"/>
        <ellipse class="cls-68" cx="395.6" cy="371.61" rx="94.95" ry="55.27"/>
        <ellipse class="cls-108" cx="395.6" cy="371.61" rx="94.35" ry="54.92"/>
        <ellipse class="cls-135" cx="395.6" cy="371.61" rx="93.76" ry="54.58"/>
        <ellipse class="cls-149" cx="395.6" cy="371.61" rx="93.17" ry="54.23"/>
        <ellipse class="cls-62" cx="395.6" cy="371.61" rx="92.57" ry="53.89"/>
        <ellipse class="cls-191" cx="395.6" cy="371.61" rx="91.98" ry="53.54"/>
        <ellipse class="cls-159" cx="395.6" cy="371.61" rx="91.39" ry="53.19"/>
        <ellipse class="cls-162" cx="395.6" cy="371.61" rx="90.79" ry="52.85"/>
        <ellipse class="cls-177" cx="395.6" cy="371.61" rx="90.2" ry="52.5"/>
        <ellipse class="cls-167" cx="395.6" cy="371.61" rx="89.61" ry="52.16"/>
        <ellipse class="cls-63" cx="395.6" cy="371.61" rx="89.01" ry="51.81"/>
        <ellipse class="cls-95" cx="395.6" cy="371.61" rx="88.42" ry="51.47"/>
        <ellipse class="cls-141" cx="395.6" cy="371.61" rx="87.83" ry="51.12"/>
        <ellipse class="cls-60" cx="395.6" cy="371.61" rx="87.23" ry="50.78"/>
        <ellipse class="cls-176" cx="395.6" cy="371.61" rx="86.64" ry="50.43"/>
        <ellipse class="cls-35" cx="395.6" cy="371.61" rx="86.04" ry="50.09"/>
        <ellipse class="cls-1" cx="395.6" cy="371.61" rx="85.45" ry="49.74"/>
        <ellipse class="cls-67" cx="395.6" cy="371.61" rx="84.86" ry="49.4"/>
        <ellipse class="cls-29" cx="395.6" cy="371.61" rx="84.26" ry="49.05"/>
        <ellipse class="cls-5" cx="395.6" cy="371.61" rx="83.67" ry="48.7"/>
        <ellipse class="cls-185" cx="395.6" cy="371.61" rx="83.08" ry="48.36"/>
        <ellipse class="cls-152" cx="395.6" cy="371.61" rx="82.48" ry="48.01"/>
        <ellipse class="cls-147" cx="395.6" cy="371.61" rx="81.89" ry="47.67"/>
        <ellipse class="cls-78" cx="395.6" cy="371.61" rx="81.3" ry="47.32"/>
        <ellipse class="cls-140" cx="395.6" cy="371.61" rx="80.7" ry="46.98"/>
        <ellipse class="cls-170" cx="395.6" cy="371.61" rx="80.11" ry="46.63"/>
        <ellipse class="cls-9" cx="395.6" cy="371.61" rx="79.52" ry="46.29"/>
        <ellipse class="cls-96" cx="395.6" cy="371.61" rx="78.92" ry="45.94"/>
        <ellipse class="cls-190" cx="395.6" cy="371.61" rx="78.33" ry="45.6"/>
        <ellipse class="cls-3" cx="395.6" cy="371.61" rx="77.74" ry="45.25"/>
        <ellipse class="cls-119" cx="395.6" cy="371.61" rx="77.14" ry="44.9"/>
        <ellipse class="cls-27" cx="395.6" cy="371.61" rx="76.55" ry="44.56"/>
        <ellipse class="cls-132" cx="395.6" cy="371.61" rx="75.96" ry="44.21"/>
        <ellipse class="cls-28" cx="395.6" cy="371.61" rx="75.36" ry="43.87"/>
        <ellipse class="cls-182" cx="395.6" cy="371.61" rx="74.77" ry="43.52"/>
        <ellipse class="cls-88" cx="395.6" cy="371.61" rx="74.18" ry="43.18"/>
        <ellipse class="cls-10" cx="395.6" cy="371.61" rx="73.58" ry="42.83"/>
        <ellipse class="cls-12" cx="395.6" cy="371.61" rx="72.99" ry="42.49"/>
        <ellipse class="cls-153" cx="395.6" cy="371.61" rx="72.4" ry="42.14"/>
        <ellipse class="cls-25" cx="395.6" cy="371.61" rx="71.8" ry="41.8"/>
        <ellipse class="cls-50" cx="395.6" cy="371.61" rx="71.21" ry="41.45"/>
        <ellipse class="cls-197" cx="395.6" cy="371.61" rx="70.62" ry="41.11"/>
        <ellipse class="cls-196" cx="395.6" cy="371.61" rx="70.02" ry="40.76"/>
        <ellipse class="cls-179" cx="395.6" cy="371.61" rx="69.43" ry="40.41"/>
        <ellipse class="cls-148" cx="395.6" cy="371.61" rx="68.84" ry="40.07"/>
        <ellipse class="cls-49" cx="395.6" cy="371.61" rx="68.24" ry="39.72"/>
        <ellipse class="cls-114" cx="395.6" cy="371.61" rx="67.65" ry="39.38"/>
        <ellipse class="cls-81" cx="395.6" cy="371.61" rx="67.06" ry="39.03"/>
        <ellipse class="cls-42" cx="395.6" cy="371.61" rx="66.46" ry="38.69"/>
        <ellipse class="cls-87" cx="395.6" cy="371.61" rx="65.87" ry="38.34"/>
        <ellipse class="cls-121" cx="395.6" cy="371.61" rx="65.28" ry="38"/>
        <ellipse class="cls-51" cx="395.6" cy="371.61" rx="64.68" ry="37.65"/>
        <ellipse class="cls-34" cx="395.6" cy="371.61" rx="64.09" ry="37.31"/>
        <ellipse class="cls-123" cx="395.6" cy="371.61" rx="63.5" ry="36.96"/>
        <ellipse class="cls-124" cx="395.6" cy="371.61" rx="62.9" ry="36.61"/>
        <ellipse class="cls-151" cx="395.6" cy="371.61" rx="62.31" ry="36.27"/>
        <ellipse class="cls-117" cx="395.6" cy="371.61" rx="61.71" ry="35.92"/>
        <ellipse class="cls-109" cx="395.6" cy="371.61" rx="61.12" ry="35.58"/>
        <ellipse class="cls-184" cx="395.6" cy="371.61" rx="60.53" ry="35.23"/>
        <ellipse class="cls-136" cx="395.6" cy="371.61" rx="59.93" ry="34.89"/>
        <ellipse class="cls-48" cx="395.6" cy="371.61" rx="59.34" ry="34.54"/>
        <ellipse class="cls-161" cx="395.6" cy="371.61" rx="58.75" ry="34.2"/>
        <ellipse class="cls-20" cx="395.6" cy="371.61" rx="58.15" ry="33.85"/>
        <ellipse class="cls-73" cx="395.6" cy="371.61" rx="57.56" ry="33.51"/>
        <ellipse class="cls-186" cx="395.6" cy="371.61" rx="56.97" ry="33.16"/>
        <ellipse class="cls-16" cx="395.6" cy="371.61" rx="56.37" ry="32.81"/>
        <ellipse class="cls-142" cx="395.6" cy="371.61" rx="55.78" ry="32.47"/>
        <ellipse class="cls-23" cx="395.6" cy="371.61" rx="55.19" ry="32.12"/>
        <ellipse class="cls-91" cx="395.6" cy="371.61" rx="54.59" ry="31.78"/>
        <ellipse class="cls-158" cx="395.6" cy="371.61" rx="54" ry="31.43"/>
        <ellipse class="cls-38" cx="395.6" cy="371.61" rx="53.41" ry="31.09"/>
        <ellipse class="cls-94" cx="395.6" cy="371.61" rx="52.81" ry="30.74"/>
        <ellipse class="cls-53" cx="395.6" cy="371.61" rx="52.22" ry="30.4"/>
        <ellipse class="cls-118" cx="395.6" cy="371.61" rx="51.63" ry="30.05"/>
        <ellipse class="cls-30" cx="395.6" cy="371.61" rx="51.03" ry="29.71"/>
        <ellipse class="cls-8" cx="395.6" cy="371.61" rx="50.44" ry="29.36"/>
        <ellipse class="cls-173" cx="395.6" cy="371.61" rx="49.85" ry="29.02"/>
        <ellipse class="cls-168" cx="395.6" cy="371.61" rx="49.25" ry="28.67"/>
        <ellipse class="cls-115" cx="395.6" cy="371.61" rx="48.66" ry="28.32"/>
        <ellipse class="cls-199" cx="395.6" cy="371.61" rx="48.07" ry="27.98"/>
        <ellipse class="cls-74" cx="395.6" cy="371.61" rx="47.47" ry="27.63"/>
        <ellipse class="cls-93" cx="395.6" cy="371.61" rx="46.88" ry="27.29"/>
        <ellipse class="cls-58" cx="395.6" cy="371.61" rx="46.29" ry="26.94"/>
        <ellipse class="cls-39" cx="395.6" cy="371.61" rx="45.69" ry="26.6"/>
        <ellipse class="cls-55" cx="395.6" cy="371.61" rx="45.1" ry="26.25"/>
        <ellipse class="cls-99" cx="395.6" cy="371.61" rx="44.51" ry="25.91"/>
        <ellipse class="cls-90" cx="395.6" cy="371.61" rx="43.91" ry="25.56"/>
        <ellipse class="cls-189" cx="395.6" cy="371.61" rx="43.32" ry="25.22"/>
        <ellipse class="cls-156" cx="395.6" cy="371.61" rx="42.73" ry="24.87"/>
        <ellipse class="cls-138" cx="395.6" cy="371.61" rx="42.13" ry="24.52"/>
        <ellipse class="cls-178" cx="395.6" cy="371.61" rx="41.54" ry="24.18"/>
        <ellipse class="cls-133" cx="395.6" cy="371.61" rx="40.95" ry="23.83"/>
        <ellipse class="cls-137" cx="395.6" cy="371.61" rx="40.35" ry="23.49"/>
        <ellipse class="cls-41" cx="395.6" cy="371.61" rx="39.76" ry="23.14"/>
        <ellipse class="cls-65" cx="395.6" cy="371.61" rx="39.17" ry="22.8"/>
        <ellipse class="cls-86" cx="395.6" cy="371.61" rx="38.57" ry="22.45"/>
        <ellipse class="cls-103" cx="395.6" cy="371.61" rx="37.98" ry="22.11"/>
        <ellipse class="cls-64" cx="395.6" cy="371.61" rx="37.38" ry="21.76"/>
        <ellipse class="cls-130" cx="395.6" cy="371.61" rx="36.79" ry="21.42"/>
        <ellipse class="cls-180" cx="395.6" cy="371.61" rx="36.2" ry="21.07"/>
        <ellipse class="cls-111" cx="395.6" cy="371.61" rx="35.6" ry="20.73"/>
        <ellipse class="cls-18" cx="395.6" cy="371.61" rx="35.01" ry="20.38"/>
        <ellipse class="cls-15" cx="395.6" cy="371.61" rx="34.42" ry="20.03"/>
        <ellipse class="cls-14" cx="395.6" cy="371.61" rx="33.82" ry="19.69"/>
        <ellipse class="cls-102" cx="395.6" cy="371.61" rx="33.23" ry="19.34"/>
        <ellipse class="cls-104" cx="395.6" cy="371.61" rx="32.64" ry="19"/>
        <ellipse class="cls-106" cx="395.6" cy="371.61" rx="32.04" ry="18.65"/>
        <ellipse class="cls-150" cx="395.6" cy="371.61" rx="31.45" ry="18.31"/>
        <ellipse class="cls-85" cx="395.6" cy="371.61" rx="30.86" ry="17.96"/>
        <ellipse class="cls-101" cx="395.6" cy="371.61" rx="30.26" ry="17.62"/>
        <ellipse class="cls-192" cx="395.6" cy="371.61" rx="29.67" ry="17.27"/>
        <ellipse class="cls-174" cx="395.6" cy="371.61" rx="29.08" ry="16.93"/>
        <ellipse class="cls-175" cx="395.6" cy="371.61" rx="28.48" ry="16.58"/>
        <ellipse class="cls-112" cx="395.6" cy="371.61" rx="27.89" ry="16.23"/>
        <ellipse class="cls-92" cx="395.6" cy="371.61" rx="27.3" ry="15.89"/>
        <ellipse class="cls-56" cx="395.6" cy="371.61" rx="26.7" ry="15.54"/>
        <ellipse class="cls-195" cx="395.6" cy="371.61" rx="26.11" ry="15.2"/>
        <ellipse class="cls-76" cx="395.6" cy="371.61" rx="25.52" ry="14.85"/>
        <ellipse class="cls-98" cx="395.6" cy="371.61" rx="24.92" ry="14.51"/>
        <ellipse class="cls-201" cx="395.6" cy="371.61" rx="24.33" ry="14.16"/>
        <ellipse class="cls-165" cx="395.6" cy="371.61" rx="23.74" ry="13.82"/>
        <ellipse class="cls-82" cx="395.6" cy="371.61" rx="23.14" ry="13.47"/>
        <ellipse class="cls-52" cx="395.6" cy="371.61" rx="22.55" ry="13.13"/>
        <ellipse class="cls-4" cx="395.6" cy="371.61" rx="21.96" ry="12.78"/>
        <ellipse class="cls-84" cx="395.6" cy="371.61" rx="21.36" ry="12.44"/>
        <ellipse class="cls-70" cx="395.6" cy="371.61" rx="20.77" ry="12.09"/>
        <ellipse class="cls-154" cx="395.6" cy="371.61" rx="20.18" ry="11.74"/>
        <ellipse class="cls-22" cx="395.6" cy="371.61" rx="19.58" ry="11.4"/>
        <ellipse class="cls-45" cx="395.6" cy="371.61" rx="18.99" ry="11.05"/>
        <ellipse class="cls-155" cx="395.6" cy="371.61" rx="18.4" ry="10.71"/>
        <ellipse class="cls-40" cx="395.6" cy="371.61" rx="17.8" ry="10.36"/>
        <ellipse class="cls-19" cx="395.6" cy="371.61" rx="17.21" ry="10.02"/>
        <ellipse class="cls-164" cx="395.6" cy="371.61" rx="16.62" ry="9.67"/>
        <ellipse class="cls-24" cx="395.6" cy="371.61" rx="16.02" ry="9.33"/>
        <ellipse class="cls-80" cx="395.6" cy="371.61" rx="15.43" ry="8.98"/>
        <ellipse class="cls-122" cx="395.6" cy="371.61" rx="14.84" ry="8.64"/>
        <ellipse class="cls-129" cx="395.6" cy="371.61" rx="14.24" ry="8.29"/>
        <ellipse class="cls-188" cx="395.6" cy="371.61" rx="13.65" ry="7.94"/>
        <ellipse class="cls-157" cx="395.6" cy="371.61" rx="13.06" ry="7.6"/>
        <ellipse class="cls-125" cx="395.6" cy="371.61" rx="12.46" ry="7.25"/>
        <ellipse class="cls-139" cx="395.6" cy="371.61" rx="11.87" ry="6.91"/>
        <ellipse class="cls-32" cx="395.6" cy="371.61" rx="11.27" ry="6.56"/>
        <ellipse class="cls-83" cx="395.6" cy="371.61" rx="10.68" ry="6.22"/>
        <ellipse class="cls-194" cx="395.6" cy="371.61" rx="10.09" ry="5.87"/>
        <ellipse class="cls-36" cx="395.6" cy="371.61" rx="9.49" ry="5.53"/>
        <ellipse class="cls-6" cx="395.6" cy="371.61" rx="8.9" ry="5.18"/>
        <ellipse class="cls-11" cx="395.6" cy="371.61" rx="8.31" ry="4.84"/>
        <ellipse class="cls-54" cx="395.6" cy="371.61" rx="7.71" ry="4.49"/>
        <ellipse class="cls-163" cx="395.6" cy="371.61" rx="7.12" ry="4.15"/>
        <ellipse class="cls-97" cx="395.6" cy="371.61" rx="6.53" ry="3.8"/>
        <ellipse class="cls-79" cx="395.6" cy="371.61" rx="5.93" ry="3.45"/>
        <ellipse class="cls-143" cx="395.6" cy="371.61" rx="5.34" ry="3.11"/>
        <ellipse class="cls-107" cx="395.6" cy="371.61" rx="4.75" ry="2.76"/>
        <ellipse class="cls-200" cx="395.6" cy="371.61" rx="4.15" ry="2.42"/>
        <ellipse class="cls-100" cx="395.6" cy="371.61" rx="3.56" ry="2.07"/>
        <ellipse class="cls-146" cx="395.6" cy="371.61" rx="2.97" ry="1.73"/>
        <ellipse class="cls-69" cx="395.6" cy="371.61" rx="2.37" ry="1.38"/>
        <ellipse class="cls-126" cx="395.6" cy="371.61" rx="1.78" ry="1.04"/>
        <ellipse class="cls-193" cx="395.6" cy="371.61" rx="1.19" ry=".69"/>
        <ellipse class="cls-144" cx="395.6" cy="371.61" rx=".59" ry=".35"/>
      </g>
    </g>
    <g>
      <path class="cls-202" d="M604.53,400.29c-9.22-12.85-24.33,9.97-66.04,10.73-39.59.76-56.67-24.78-63.77-10.28-11.49,22.82,16.93,71.78,69.67,71.03,45.64-.76,73.45-53.35,60.15-71.48ZM582.31,449.41c-5.89,5.59-18.29,15.57-33.4,16.02-22.67.76-34.15-6.95-38.99-11.33-1.51-1.36-1.51-3.93.15-5.29,5.74-4.68,16.47-14.51,33.7-14.81,21.61-.45,29.77,6.2,37.48,9.52,2.27,1.06,2.87,4.08,1.06,5.89Z"/>
      <path class="cls-33" d="M582.31,449.41c-5.89,5.59-18.29,15.57-33.4,16.02-22.67.76-34.15-6.95-38.99-11.33-1.51-1.36-1.51-3.93.15-5.29,5.74-4.68,16.47-14.51,33.7-14.81,21.61-.45,29.77,6.2,37.48,9.52,2.27,1.06,2.87,4.08,1.06,5.89Z"/>
      <g>
        <path class="cls-202" d="M467.01,196.28c-18.29-19.65-44.58-31.89-73.6-31.89s-57.43,13.3-75.71,34.46h-.15c-7.25,1.06-10.43-5.14-11.03-6.35-1.66-3.93-6.2-5.74-10.12-4.08-3.93,1.66-5.74,6.2-4.08,10.12,1.81,4.53,6.8,11.33,14.96,14.36-.76,1.06-1.36,2.12-1.81,3.17-.15-.15-.3,0-.45,0-14.36,2.27-20.4-11.33-21.16-13-1.51-3.93-6.05-5.89-9.97-4.38-3.93,1.66-5.89,6.2-4.38,10.12,3.17,8.01,12.69,21.16,28.86,22.82-3.93,10.43-5.89,21.91-5.89,33.7,0,33.25,16.02,62.72,40.95,81,16.77,12.54,37.48,19.8,60,19.8,55.76,0,100.95-45.19,100.95-100.8,0-26.75-10.28-51.08-27.35-69.06ZM393.41,362.36h-.6c-3.02,0-5.89-.15-8.92-.45-34.91-4.08-64.38-30.68-71.93-64.98-.3-1.21-.6-2.27-.6-3.48-.3-1.36-.6-2.72-.76-4.08-.15-.91-.15-1.66-.15-2.57-.3-2.87-.45-5.89-.45-8.76v-.91c0-2.57.15-5.29.3-7.86.15-.91.3-1.96.3-3.02.45-3.02.91-6.04,1.66-9.22.15-1.51.6-2.87.91-4.38.3-1.36.76-2.72,1.21-3.93,8.16-27.5,28.86-50.02,55.16-60.75,2.87-1.36,5.89-2.42,8.92-3.17,1.51-.6,3.17-1.06,4.68-1.36.76-.15,1.66-.45,2.42-.45,2.12-.6,4.23-1.06,6.5-1.21.61-.15,1.21-.3,1.81-.3,2.87-.6,5.89-.76,8.92-.91h1.21c38.23-1.21,72.84,24.78,83.42,60.45.76,2.27,1.21,4.68,1.66,7.1.45,2.57.76,5.14,1.06,7.86.3,3.17.45,6.35.45,9.37,0,53.5-43.52,97.02-97.17,97.02Z"/>
        <path class="cls-46" d="M490.13,255.97c-.3-2.72-.61-5.29-1.06-7.86-.45-2.42-.91-4.84-1.66-7.1-10.58-35.66-45.19-61.66-83.42-60.45h-1.21c-3.02.15-6.05.3-8.92.91-.61,0-1.21.15-1.81.3-2.27.15-4.38.6-6.5,1.21-.76,0-1.66.3-2.42.45-1.51.3-3.17.76-4.68,1.36-3.02.76-6.05,1.81-8.92,3.17-26.3,10.73-47,33.25-55.16,60.75-.45,1.21-.91,2.57-1.21,3.93-.3,1.51-.76,2.87-.91,4.38-.76,3.17-1.21,6.2-1.66,9.22,0,1.06-.15,2.12-.3,3.02-.15,2.57-.3,5.29-.3,7.86v.91c0,2.87.15,5.89.45,8.76,0,.91,0,1.66.15,2.57.15,1.36.45,2.72.76,4.08,0,1.21.3,2.27.6,3.48,7.56,34.3,37.03,60.9,71.93,64.98,3.02.3,5.89.45,8.92.45h.6c53.65,0,97.17-43.52,97.17-97.02,0-3.02-.15-6.2-.45-9.37ZM420.01,336.07c-34.15,0-61.51-30.07-61.51-67.4s27.35-67.25,61.51-67.25,61.36,30.22,61.36,67.25-27.5,67.4-61.36,67.4Z"/>
        <path class="cls-31" d="M420.01,201.42c-34.15,0-61.51,30.22-61.51,67.25s27.35,67.4,61.51,67.4,61.36-30.07,61.36-67.4-27.5-67.25-61.36-67.25ZM374.52,242.22c0-12.69,9.22-22.97,20.85-22.97,4.84,0,9.07,1.51,12.54,4.53,1.36,1.06,2.72,2.42,3.78,3.93,3.02,3.93,4.99,9.07,4.99,14.51,0,12.85-9.52,23.12-21.31,23.12-3.17,0-6.2-.76-8.92-2.27-1.66-.91-3.02-1.96-4.38-3.33-4.68-3.93-7.56-10.28-7.56-17.53ZM446.46,321.86c-3.93,0-7.25-2.27-9.37-5.44-.61-.91-1.06-1.96-1.36-3.02-.45-1.21-.6-2.57-.6-3.93,0-6.8,5.14-12.24,11.33-12.24,3.02,0,5.74,1.36,7.71,3.48,1.06,1.06,1.96,2.27,2.57,3.78.45,1.51,1.06,3.17,1.06,4.99,0,6.8-5.14,12.39-11.33,12.39Z"/>
        <path class="cls-46" d="M416.68,242.22c0,12.85-9.52,23.12-21.31,23.12-3.17,0-6.2-.76-8.92-2.27-1.66-.91-3.02-1.96-4.38-3.33-4.68-3.93-7.56-10.28-7.56-17.53,0-12.69,9.22-22.97,20.85-22.97,4.84,0,9.07,1.51,12.54,4.53,1.36,1.06,2.72,2.42,3.78,3.93,3.02,3.93,4.99,9.07,4.99,14.51Z"/>
        <path class="cls-46" d="M457.79,309.47c0,6.8-5.14,12.39-11.33,12.39-3.93,0-7.25-2.27-9.37-5.44-.61-.91-1.06-1.96-1.36-3.02-.45-1.21-.6-2.57-.6-3.93,0-6.8,5.14-12.24,11.33-12.24,3.02,0,5.74,1.36,7.71,3.48,1.06,1.06,1.96,2.27,2.57,3.78.45,1.51,1.06,3.17,1.06,4.99Z"/>
      </g>
      <path class="cls-202" d="M350.05,133.98c-1.77-.39-3.4-1.39-4.56-2.96-2.52-3.43-1.82-8.24,1.6-10.77,1.37-1.02,34.05-24.72,76.13-8.15,3.98,1.56,5.93,6.05,4.36,10.02-1.56,3.97-6.04,5.91-10.01,4.36-33.9-13.32-60.19,5.4-61.3,6.2-1.86,1.36-4.13,1.77-6.23,1.31Z"/>
      <path class="cls-202" d="M464.74,270.03c0,11.79-3.93,22.67-10.58,30.68-1.96-2.12-4.68-3.48-7.71-3.48-6.2,0-11.33,5.44-11.33,12.24,0,1.36.15,2.72.6,3.93-3.32,1.06-6.8,1.66-10.28,1.66-21.76,0-39.44-20.1-39.44-45.04,0-2.42.15-4.68.45-6.95,2.72,1.51,5.74,2.27,8.92,2.27,11.79,0,21.31-10.28,21.31-23.12,0-5.44-1.96-10.58-4.99-14.51,4.23-1.66,8.92-2.72,13.75-2.72,21.61,0,39.29,20.1,39.29,45.03Z"/>
      <g>
        <path class="cls-202" d="M806.13,198.7c-3.93-1.51-8.46.45-9.97,4.38-.76,1.66-6.8,15.26-21.16,13-.15,0-.3-.15-.45,0-.45-1.06-1.06-2.12-1.81-3.17,8.16-3.02,13.15-9.82,14.96-14.36,1.66-3.93-.15-8.46-4.08-10.12-3.93-1.66-8.46.15-10.12,4.08-.61,1.21-3.78,7.4-11.03,6.35h-.15c-18.29-21.16-45.49-34.46-75.71-34.46s-55.31,12.24-73.6,31.89c-17.08,17.98-27.35,42.31-27.35,69.06,0,55.61,45.19,100.8,100.95,100.8,22.52,0,43.22-7.25,60-19.8,24.94-18.29,40.95-47.75,40.95-81,0-11.79-1.96-23.27-5.89-33.7,16.17-1.66,25.69-14.81,28.86-22.82,1.51-3.93-.45-8.46-4.38-10.12ZM770.01,278.04c0,2.87-.15,5.89-.45,8.76,0,.91,0,1.66-.15,2.57-.15,1.36-.45,2.72-.76,4.08,0,1.21-.3,2.27-.61,3.48-7.56,34.3-37.02,60.9-71.93,64.98-3.02.3-5.89.45-8.92.45h-.6c-53.65,0-97.17-43.52-97.17-97.02,0-3.02.15-6.2.45-9.37.3-2.72.6-5.29,1.06-7.86.45-2.42.91-4.84,1.66-7.1,10.58-35.66,45.19-61.66,83.42-60.45h1.21c3.02.15,6.04.3,8.92.91.6,0,1.21.15,1.81.3,2.27.15,4.38.6,6.5,1.21.76,0,1.66.3,2.42.45,1.51.3,3.17.76,4.68,1.36,3.02.76,6.04,1.81,8.92,3.17,26.3,10.73,47,33.25,55.16,60.75.45,1.21.91,2.57,1.21,3.93.3,1.51.76,2.87.91,4.38.76,3.17,1.21,6.2,1.66,9.22,0,1.06.15,2.12.3,3.02.15,2.57.3,5.29.3,7.86v.91Z"/>
        <path class="cls-46" d="M769.71,269.27c-.15-.91-.3-1.96-.3-3.02-.45-3.02-.91-6.04-1.66-9.22-.15-1.51-.61-2.87-.91-4.38-.3-1.36-.76-2.72-1.21-3.93-8.16-27.5-28.86-50.02-55.16-60.75-2.87-1.36-5.89-2.42-8.92-3.17-1.51-.6-3.17-1.06-4.68-1.36-.76-.15-1.66-.45-2.42-.45-2.12-.6-4.23-1.06-6.5-1.21-.6-.15-1.21-.3-1.81-.3-2.87-.6-5.89-.76-8.92-.91h-1.21c-38.23-1.21-72.84,24.78-83.42,60.45-.76,2.27-1.21,4.68-1.66,7.1-.45,2.57-.76,5.14-1.06,7.86-.3,3.17-.45,6.35-.45,9.37,0,53.5,43.52,97.02,97.17,97.02h.6c3.02,0,5.89-.15,8.92-.45,34.91-4.08,64.38-30.68,71.93-64.98.3-1.21.61-2.27.61-3.48.3-1.36.6-2.72.76-4.08.15-.91.15-1.66.15-2.57.3-2.87.45-5.89.45-8.76v-.91c0-2.57-.15-5.29-.3-7.86ZM659.99,336.07c-33.85,0-61.36-30.07-61.36-67.4s27.5-67.25,61.36-67.25,61.51,30.22,61.51,67.25-27.35,67.4-61.51,67.4Z"/>
        <path class="cls-31" d="M659.99,201.42c-33.85,0-61.36,30.22-61.36,67.25s27.5,67.4,61.36,67.4,61.51-30.07,61.51-67.4-27.35-67.25-61.51-67.25ZM642.91,316.42c-2.12,3.17-5.44,5.44-9.37,5.44-6.2,0-11.33-5.59-11.33-12.39,0-1.81.6-3.48,1.06-4.99.6-1.51,1.51-2.72,2.57-3.78,1.96-2.12,4.68-3.48,7.71-3.48,6.2,0,11.33,5.44,11.33,12.24,0,1.36-.15,2.72-.61,3.93-.3,1.06-.76,2.12-1.36,3.02ZM697.92,259.75c-1.36,1.36-2.72,2.42-4.38,3.33-2.72,1.51-5.74,2.27-8.92,2.27-11.79,0-21.31-10.28-21.31-23.12,0-5.44,1.96-10.58,4.99-14.51,1.06-1.51,2.42-2.87,3.78-3.93,3.48-3.02,7.71-4.53,12.54-4.53,11.64,0,20.85,10.28,20.85,22.97,0,7.25-2.87,13.6-7.56,17.53Z"/>
        <path class="cls-46" d="M644.88,309.47c0,1.36-.15,2.72-.61,3.93-.3,1.06-.76,2.12-1.36,3.02-2.12,3.17-5.44,5.44-9.37,5.44-6.2,0-11.33-5.59-11.33-12.39,0-1.81.6-3.48,1.06-4.99.6-1.51,1.51-2.72,2.57-3.78,1.96-2.12,4.68-3.48,7.71-3.48,6.2,0,11.33,5.44,11.33,12.24Z"/>
        <path class="cls-46" d="M705.48,242.22c0,7.25-2.87,13.6-7.56,17.53-1.36,1.36-2.72,2.42-4.38,3.33-2.72,1.51-5.74,2.27-8.92,2.27-11.79,0-21.31-10.28-21.31-23.12,0-5.44,1.96-10.58,4.99-14.51,1.06-1.51,2.42-2.87,3.78-3.93,3.48-3.02,7.71-4.53,12.54-4.53,11.64,0,20.85,10.28,20.85,22.97Z"/>
      </g>
      <path class="cls-202" d="M730,133.98c1.77-.39,3.4-1.39,4.56-2.96,2.52-3.43,1.82-8.24-1.6-10.77-1.37-1.02-34.05-24.72-76.13-8.15-3.98,1.56-5.93,6.05-4.36,10.02,1.56,3.97,6.04,5.91,10.01,4.36,33.9-13.32,60.19,5.4,61.3,6.2,1.86,1.36,4.13,1.77,6.23,1.31Z"/>
      <path class="cls-202" d="M693.99,270.03c0,24.94-17.68,45.04-39.44,45.04-3.48,0-6.95-.61-10.28-1.66.45-1.21.61-2.57.61-3.93,0-6.8-5.14-12.24-11.33-12.24-3.02,0-5.74,1.36-7.71,3.48-6.65-8.01-10.58-18.89-10.58-30.68,0-24.93,17.68-45.03,39.29-45.03,4.84,0,9.52,1.06,13.75,2.72-3.02,3.93-4.99,9.07-4.99,14.51,0,12.85,9.52,23.12,21.31,23.12,3.17,0,6.2-.76,8.92-2.27.3,2.27.45,4.53.45,6.95Z"/>
    </g>
  </g>
</svg>