<?xml version="1.0" encoding="UTF-8"?>
<svg id="Layer_1" data-name="Layer 1" xmlns="http://www.w3.org/2000/svg" viewBox="0 0 1080 1080">
  <defs>
    <style>
      .cls-1 {
        fill: #ff7b6c;
      }
    </style>
  </defs>
  <g>
    <path class="cls-1" d="M610.45,396.78c-8.87-12.36-23.4,9.6-63.53,10.32-38.09.73-54.51-23.84-61.35-9.89-11.05,21.95,16.28,69.05,67.02,68.33,43.9-.73,70.65-51.32,57.86-68.76ZM589.08,444.02c-5.67,5.38-17.59,14.97-32.13,15.41-21.81.73-32.85-6.69-37.51-10.9-1.45-1.31-1.45-3.78.15-5.09,5.52-4.51,15.85-13.96,32.42-14.25,20.79-.44,28.64,5.96,36.05,9.16,2.18,1.02,2.76,3.92,1.02,5.67Z"/>
    <g>
      <path class="cls-1" d="M473.98,207.96c-17.59-18.9-42.88-30.67-70.8-30.67s-55.24,12.79-72.83,33.14h-.14c-6.98,1.02-10.03-4.94-10.61-6.11-1.6-3.78-5.96-5.52-9.74-3.93-3.78,1.6-5.52,5.96-3.93,9.74,1.74,4.36,6.54,10.9,14.39,13.81-.73,1.02-1.31,2.04-1.74,3.05-.14-.15-.29,0-.44,0-13.81,2.18-19.63-10.9-20.35-12.5-1.45-3.78-5.81-5.67-9.59-4.22-3.78,1.6-5.67,5.96-4.22,9.74,3.05,7.7,12.21,20.35,27.77,21.95-3.78,10.03-5.67,21.08-5.67,32.42,0,31.98,15.41,60.33,39.4,77.92,16.14,12.07,36.05,19.04,57.71,19.04,53.64,0,97.11-43.47,97.11-96.96,0-25.73-9.89-49.14-26.31-66.44ZM403.19,367.72h-.58c-2.91,0-5.67-.15-8.58-.44-33.58-3.93-61.93-29.51-69.2-62.51-.29-1.16-.58-2.18-.58-3.34-.29-1.31-.58-2.62-.73-3.92-.15-.87-.15-1.6-.15-2.47-.29-2.76-.44-5.67-.44-8.43v-.87c0-2.47.14-5.09.29-7.56.15-.87.29-1.89.29-2.91.44-2.91.87-5.82,1.6-8.87.15-1.45.58-2.76.87-4.22.29-1.31.73-2.62,1.16-3.78,7.85-26.46,27.77-48.12,53.06-58.44,2.76-1.31,5.67-2.33,8.58-3.05,1.45-.58,3.05-1.02,4.51-1.31.73-.15,1.6-.44,2.33-.44,2.03-.58,4.07-1.02,6.25-1.16.58-.14,1.16-.29,1.74-.29,2.76-.58,5.67-.73,8.58-.87h1.16c36.78-1.16,70.07,23.84,80.25,58.15.73,2.18,1.16,4.51,1.6,6.83.44,2.47.73,4.94,1.02,7.56.29,3.05.44,6.11.44,9.01,0,51.46-41.87,93.33-93.47,93.33Z"/>
      <path class="cls-1" d="M428.79,212.86c-32.76,0-59.07,29.02-59.07,64.67s26.31,64.84,59.07,64.84,59.07-28.86,59.07-64.84-26.48-64.67-59.07-64.67ZM405.19,274.3c-4.92,0-9.34-1.87-12.9-5.26-4.41-3.9-7.3-10.01-7.3-16.97,0-12.22,9-22.07,20.2-22.07,4.58,0,8.66,1.53,12.05,4.41,4.92,3.73,8.32,10.35,8.32,17.65,0,12.39-9.17,22.24-20.37,22.24ZM454.25,328.79c-3.73,0-6.96-2.21-9-5.26-1.19-2.04-1.87-4.24-1.87-6.79,0-6.45,4.92-11.71,10.86-11.71,4.41,0,8.15,2.89,9.84,6.96.51,1.53,1.02,3.06,1.02,4.75,0,6.62-4.92,12.05-10.86,12.05Z"/>
    </g>
    <path class="cls-1" d="M361.52,147.96c-1.7-.37-3.27-1.34-4.38-2.85-2.43-3.3-1.75-7.93,1.54-10.36,1.31-.98,32.76-23.78,73.23-7.84,3.82,1.5,5.7,5.82,4.2,9.64-1.5,3.82-5.81,5.68-9.63,4.19-32.61-12.81-57.9,5.19-58.97,5.96-1.79,1.31-3.98,1.7-5.99,1.26Z"/>
    <g>
      <path class="cls-1" d="M579.7,274.39c0,53.5,43.47,96.96,97.11,96.96,21.66,0,41.58-6.98,57.71-19.04,23.99-17.59,39.4-45.94,39.4-77.92,0-11.34-1.89-22.39-5.67-32.42,15.56-1.6,24.71-14.25,27.77-21.95,1.45-3.78-.44-8.14-4.22-9.74-3.78-1.45-8.14.44-9.59,4.22-.73,1.6-6.54,14.68-20.35,12.5-.15,0-.29-.15-.44,0-.44-1.02-1.02-2.04-1.74-3.05,7.85-2.91,12.65-9.45,14.39-13.81,1.6-3.78-.15-8.14-3.93-9.74-3.78-1.6-8.14.15-9.74,3.93-.58,1.16-3.63,7.12-10.61,6.11h-.14c-17.59-20.35-43.76-33.14-72.83-33.14-27.91,0-53.21,11.78-70.8,30.67-16.43,17.3-26.31,40.7-26.31,66.44ZM583.34,274.39c0-2.91.14-5.96.44-9.01.29-2.62.58-5.09,1.02-7.56.44-2.33.87-4.65,1.6-6.83,10.18-34.31,43.47-59.31,80.25-58.15h1.16c2.91.15,5.81.29,8.58.87.58,0,1.16.15,1.74.29,2.18.15,4.22.58,6.25,1.16.73,0,1.6.29,2.33.44,1.45.29,3.05.73,4.51,1.31,2.91.73,5.82,1.74,8.58,3.05,25.3,10.32,45.21,31.98,53.06,58.44.44,1.16.87,2.47,1.16,3.78.29,1.45.73,2.76.87,4.22.73,3.05,1.16,5.96,1.6,8.87,0,1.02.15,2.04.29,2.91.15,2.47.29,5.09.29,7.56v.87c0,2.76-.14,5.67-.44,8.43,0,.87,0,1.6-.15,2.47-.15,1.31-.44,2.62-.73,3.92,0,1.16-.29,2.18-.58,3.34-7.27,33-35.62,58.58-69.2,62.51-2.91.29-5.67.44-8.58.44h-.58c-51.61,0-93.47-41.87-93.47-93.33Z"/>
      <path class="cls-1" d="M595.16,277.53c0,35.98,26.48,64.84,59.07,64.84,32.76,0,59.07-28.86,59.07-64.84,0-35.65-26.31-64.67-59.07-64.67-32.59,0-59.07,29.02-59.07,64.67ZM657.46,252.07c0-7.3,3.39-13.92,8.32-17.65,3.39-2.89,7.47-4.41,12.05-4.41,11.2,0,20.2,9.84,20.2,22.07,0,6.96-2.89,13.07-7.3,16.97-3.56,3.39-7.98,5.26-12.9,5.26-11.2,0-20.37-9.84-20.37-22.24ZM617.91,316.74c0-1.7.51-3.23,1.02-4.75,1.7-4.07,5.43-6.96,9.84-6.96,5.94,0,10.86,5.26,10.86,11.71,0,2.55-.68,4.75-1.87,6.79-2.04,3.06-5.26,5.26-9,5.26-5.94,0-10.86-5.43-10.86-12.05Z"/>
    </g>
    <path class="cls-1" d="M718.48,147.96c1.7-.37,3.27-1.34,4.38-2.85,2.43-3.3,1.75-7.93-1.54-10.36-1.31-.98-32.76-23.78-73.23-7.84-3.82,1.5-5.7,5.82-4.2,9.64,1.5,3.82,5.81,5.68,9.63,4.19,32.61-12.81,57.9,5.19,58.97,5.96,1.79,1.31,3.98,1.7,5.99,1.26Z"/>
  </g>
  <g>
    <path class="cls-1" d="M341.91,739.82c-4.13,0-7.55-.51-10.28-1.55-2.73-1.03-4.9-2.87-6.52-5.52-1.62-2.65-2.76-6.26-3.42-10.83-.66-4.56-1-10.39-1-17.46s.04-14.58.11-22.1c.07-7.51.11-14.88.11-22.1,0-14.58.37-29.09,1.1-43.53.74-14.44,1.1-28.95,1.1-43.53v-24.97c0-5.15,1.4-8.76,4.2-10.83,2.8-2.06,6.26-3.09,10.39-3.09,4.71,0,8.25.3,10.61.88,2.35.59,3.98,1.44,4.86,2.54.88,1.1,1.33,2.54,1.33,4.31v6.41c0,.88.11,1.47.33,1.77.22.3.77.44,1.66.44,7.95,0,15.65.63,23.09,1.88,7.44,1.25,14.1,3.46,20,6.63,5.89,3.17,10.61,7.51,14.14,13.04,3.54,5.52,5.3,12.56,5.3,21.1,0,6.48-.88,11.97-2.65,16.46-1.77,4.5-3.94,8.25-6.52,11.27-2.58,3.02-5.41,5.41-8.51,7.18-3.09,1.77-5.93,3.24-8.51,4.42-2.58,1.18-4.75,2.14-6.52,2.87-1.77.74-2.65,1.62-2.65,2.65,0,.3,1.03.55,3.09.77,2.06.22,4.6.74,7.62,1.55,3.02.81,6.3,2.06,9.83,3.76,3.54,1.7,6.81,4.24,9.83,7.62,3.02,3.39,5.56,7.81,7.62,13.26,2.06,5.45,3.09,12.23,3.09,20.33,0,12.52-2.54,22.43-7.62,29.72-5.08,7.29-11.6,12.74-19.56,16.35-7.95,3.61-16.83,5.89-26.62,6.85-9.8.96-19.48,1.44-29.06,1.44ZM350.75,616.08c0,1.62.37,3.13,1.1,4.53.74,1.4,2.06,2.1,3.98,2.1,4.27,0,8.62-.81,13.04-2.43,4.42-1.62,8.43-3.72,12.04-6.3,3.61-2.58,6.59-5.52,8.95-8.84,2.35-3.31,3.54-6.74,3.54-10.27,0-4.71-1.21-8.47-3.65-11.27-2.43-2.8-5.49-4.97-9.17-6.52-3.68-1.55-7.66-2.58-11.93-3.09-4.27-.51-8.25-.77-11.93-.77-1.62,0-2.73.48-3.31,1.44-.59.96-1.03,2.25-1.33,3.87-.88,5.75-1.33,11.97-1.33,18.67v18.89ZM357.6,712.86c7.36,0,13.55-.7,18.56-2.1,5.01-1.4,9.06-3.35,12.15-5.86,3.09-2.5,5.3-5.56,6.63-9.17,1.33-3.61,1.99-7.62,1.99-12.04,0-5.74-1.55-10.75-4.64-15.02-3.09-4.27-6.63-7.81-10.61-10.61-3.98-2.8-7.92-4.86-11.82-6.19-3.91-1.33-6.74-1.99-8.51-1.99-.88,0-1.92.04-3.09.11-1.18.08-2.32.3-3.42.66-1.11.37-2.06.92-2.87,1.66-.81.74-1.21,1.77-1.21,3.09v38.45c0,2.8.14,5.6.44,8.4.29,2.8.96,5.27,1.99,7.4,1.03,2.14,2.5,3.2,4.42,3.2Z"/>
    <path class="cls-1" d="M431.84,654.31c0-6.48.85-12.85,2.54-19.11,1.69-6.26,4.27-11.82,7.73-16.68,3.46-4.86,7.84-8.76,13.15-11.71,5.3-2.94,11.63-4.42,19-4.42,2.65,0,5.27.22,7.84.66,2.58.44,5.12.66,7.62.66,3.68,0,5.52-1.84,5.52-5.52v-13.37c0-4.05-.37-7.58-1.1-10.61-.74-3.02-1.99-5.38-3.76-7.07-1.77-1.69-4.35-2.54-7.73-2.54-2.21,0-4.09.41-5.63,1.22-1.55.81-2.91,1.88-4.09,3.2-1.18,1.33-2.14,2.76-2.87,4.31-.74,1.55-1.33,3.06-1.77,4.53-.74,2.36-1.77,3.79-3.09,4.31-1.33.52-3.02.77-5.08.77-1.77,0-3.46-.11-5.08-.33-1.62-.22-3.06-.7-4.31-1.44-1.25-.74-2.25-1.73-2.98-2.98-.74-1.25-1.11-2.98-1.11-5.19,0-4.56,1.07-8.84,3.2-12.82,2.13-3.98,4.9-7.44,8.29-10.39,3.39-2.94,7.18-5.26,11.38-6.96,4.2-1.69,8.36-2.54,12.48-2.54,10.02,0,17.93,1.47,23.75,4.42,5.82,2.95,10.2,7.11,13.15,12.48,2.95,5.38,4.86,11.86,5.75,19.44.88,7.59,1.33,16.1,1.33,25.52,0,7.51-.11,15.1-.33,22.76-.22,7.66-.33,15.25-.33,22.76,0,1.62-.04,3.54-.11,5.75-.08,2.21-.11,4.42-.11,6.63v6.41c0,2.06.07,3.76.22,5.08.14.88.51,2.06,1.1,3.54.59,1.47,1.21,2.95,1.88,4.42.66,1.47,1.25,2.76,1.77,3.87.51,1.1.77,1.81.77,2.1,0,2.21-.74,4.09-2.21,5.63-1.47,1.55-3.24,2.8-5.3,3.76-2.06.96-4.16,1.66-6.3,2.1-2.14.44-3.94.66-5.41.66-2.06,0-3.9-.96-5.52-2.87-1.62-1.91-2.98-4.16-4.09-6.74-1.1-2.58-1.95-5.23-2.54-7.95-.59-2.72-.88-4.82-.88-6.3-2.06,6.48-5.97,11.6-11.71,15.36s-11.93,5.63-18.56,5.63c-5.3,0-10.16-1.18-14.58-3.54-4.42-2.35-8.25-5.45-11.49-9.28-3.24-3.83-5.78-8.14-7.62-12.93-1.84-4.79-2.76-9.68-2.76-14.69ZM446.65,735.62c-2.21,0-4.09-1.22-5.63-3.65-1.55-2.43-2.32-5.49-2.32-9.17,0-8.54,2.58-12.82,7.73-12.82,2.65,0,6,.04,10.05.11,4.05.08,8.47.11,13.26.11s9.76.08,14.91.22c5.16.15,10.16.22,15.03.22s9.35.04,13.48.11c4.12.08,7.58.11,10.38.11,1.77,0,3.17.44,4.2,1.33,1.03.88,1.84,1.99,2.43,3.31.59,1.33.96,2.76,1.11,4.31.14,1.55.22,2.98.22,4.31s-.08,2.65-.22,3.98c-.15,1.33-.52,2.58-1.11,3.76-.59,1.18-1.36,2.14-2.32,2.87-.96.74-2.32,1.1-4.09,1.1h-16.68c-7,0-14.25-.03-21.76-.11-7.51-.07-14.77-.11-21.76-.11h-16.9ZM493.49,631.33c0-.88-.44-1.58-1.33-2.1-.88-.51-1.88-.88-2.98-1.1-1.11-.22-2.25-.37-3.42-.44-1.18-.07-2.06-.11-2.65-.11-8.84,0-15.17,2.14-19,6.41-3.83,4.27-5.75,10.09-5.75,17.46,0,4.57,1.22,8.51,3.65,11.82,2.43,3.31,6.15,4.97,11.16,4.97,3.39,0,6.33-1.4,8.84-4.2,2.5-2.8,4.6-6.15,6.3-10.05,1.69-3.9,2.98-7.95,3.87-12.15s1.33-7.7,1.33-10.5Z"/>
    <path class="cls-1" d="M595.57,742.03c-8.69,0-15.99-.7-21.88-2.1-5.89-1.4-10.64-3.5-14.25-6.3-3.61-2.8-6.19-6.19-7.73-10.16-1.55-3.98-2.32-8.54-2.32-13.7,0-25.92-.33-51.56-.99-76.89-.66-25.33-.99-51.04-.99-77.11,0-4.86.25-8.84.77-11.93.51-3.09,1.47-5.56,2.87-7.4,1.4-1.84,3.39-3.13,5.97-3.87,2.58-.74,5.93-1.1,10.05-1.1,2.95,0,5.23.41,6.85,1.22,1.62.81,2.83,2.21,3.65,4.2.81,1.99,1.29,4.61,1.44,7.84.15,3.24.22,7.22.22,11.93,0,4.27-.04,9.17-.11,14.69-.08,5.52-.11,10.83-.11,15.91s.04,9.58.11,13.48c.07,3.9.18,6.3.33,7.18.88-2.35,2.1-5.12,3.65-8.29,1.55-3.17,3.65-6.19,6.3-9.06,2.65-2.87,5.97-5.3,9.94-7.29,3.98-1.99,8.84-2.98,14.58-2.98,13.4,0,23.83,6.56,31.27,19.67,7.44,13.11,11.16,33.22,11.16,60.32,0,10.16-1.07,20.15-3.2,29.94-2.14,9.8-5.56,18.53-10.27,26.18-4.72,7.66-10.94,13.85-18.67,18.56-7.73,4.72-17.27,7.07-28.61,7.07ZM608.61,611.44c-3.98,0-7.66,2.54-11.05,7.62-3.39,5.08-6.3,11.6-8.73,19.56-2.43,7.95-4.35,16.76-5.75,26.4-1.4,9.65-2.1,18.97-2.1,27.95,0,3.09.33,6.04.99,8.84.66,2.8,1.66,5.3,2.98,7.51,1.33,2.21,3.09,3.98,5.3,5.3,2.21,1.33,4.86,1.99,7.96,1.99,3.68,0,6.92-.99,9.72-2.98,2.8-1.99,5.23-4.64,7.29-7.95,2.06-3.31,3.76-6.99,5.08-11.05,1.33-4.05,2.39-8.18,3.2-12.37.81-4.2,1.36-8.21,1.66-12.04.29-3.83.44-7.14.44-9.94,0-6.19-.33-12.23-.99-18.12-.66-5.89-1.7-11.08-3.09-15.58-1.4-4.49-3.17-8.14-5.3-10.94-2.14-2.8-4.68-4.2-7.62-4.2Z"/>
    <path class="cls-1" d="M703.18,670.44c-8.1,0-14.73-1.58-19.89-4.75-5.16-3.17-9.21-7.4-12.15-12.71-2.95-5.3-5.01-11.45-6.19-18.45-1.18-6.99-1.77-14.4-1.77-22.21,0-8.69.07-16.94.22-24.75.14-7.81.22-15.98.22-24.53,0-1.91.22-3.87.66-5.86.44-1.99,1.29-3.76,2.54-5.3,1.25-1.55,2.95-2.8,5.08-3.76,2.13-.96,4.82-1.44,8.07-1.44,3.54,0,6.15.44,7.84,1.33,1.69.88,2.87,2.03,3.54,3.42.66,1.4.96,3.02.88,4.86-.08,1.84-.11,3.72-.11,5.63v51.26c0,10.46,1.66,18.38,4.97,23.75,3.31,5.38,7.7,8.06,13.15,8.06,3.98,0,7.36-.96,10.16-2.87,2.8-1.91,5.08-4.53,6.85-7.84,1.77-3.31,3.02-7.22,3.76-11.71.74-4.49,1.1-9.39,1.1-14.69v-34.69c0-4.27.26-7.88.77-10.83.51-2.94,1.44-5.3,2.76-7.07,1.33-1.77,3.05-3.02,5.19-3.76,2.13-.74,4.82-1.1,8.06-1.1,4.71,0,8.07.99,10.05,2.98s2.98,4.9,2.98,8.73v128.38c0,8.99-1.29,16.76-3.87,23.31-2.58,6.56-6.11,11.97-10.61,16.24-4.5,4.27-9.91,7.4-16.24,9.39-6.33,1.99-13.26,2.98-20.77,2.98-6.93,0-13.26-1.03-19-3.09s-10.72-4.97-14.91-8.73-7.48-8.18-9.83-13.26c-2.36-5.08-3.54-10.72-3.54-16.9s1.18-11.19,3.54-15.03c2.35-3.83,6.48-5.74,12.37-5.74,5.15,0,8.62.96,10.38,2.87,1.77,1.92,2.65,5.38,2.65,10.38,0,3.24.33,6.41.99,9.5.66,3.09,1.69,5.82,3.09,8.18,1.4,2.36,3.28,4.24,5.63,5.63,2.35,1.4,5.3,2.1,8.84,2.1,8.25,0,14.29-2.32,18.12-6.96,3.83-4.64,5.75-11.45,5.75-20.44v-26.07c0-.74-.59-1.1-1.77-1.1-1.33,0-3.13.33-5.41.99-2.29.66-4.79,1.44-7.51,2.32-2.73.88-5.56,1.66-8.51,2.32-2.95.66-5.67.99-8.18.99Z"/>
    <path class="cls-1" d="M386.22,789.9c0,4.27-.3,7.62-.88,10.05-.59,2.43-1.44,4.2-2.54,5.3-1.11,1.1-2.54,1.77-4.31,1.99-1.77.22-3.83.33-6.19.33-3.83,0-6.45-1.55-7.84-4.64-1.4-3.09-2.1-7.22-2.1-12.37,0-5.75-2.1-9.87-6.3-12.37-4.2-2.5-9.32-3.76-15.36-3.76-4.42,0-8.21.85-11.38,2.54-3.17,1.69-5.78,3.87-7.84,6.52-2.06,2.65-3.57,5.6-4.53,8.84-.96,3.24-1.44,6.41-1.44,9.5,0,6.63,1.88,11.97,5.63,16.02,3.76,4.05,8.47,7.59,14.14,10.61,5.67,3.02,11.82,5.93,18.45,8.73,6.63,2.8,12.78,6.26,18.45,10.39,5.67,4.13,10.38,9.36,14.14,15.69,3.76,6.34,5.63,14.51,5.63,24.53,0,7.51-1.47,14.51-4.42,20.99-2.95,6.48-7.04,12.15-12.26,17.01-5.23,4.86-11.42,8.69-18.56,11.49-7.15,2.8-14.92,4.2-23.31,4.2-7.22,0-13.96-1.25-20.22-3.76-6.26-2.5-11.71-5.86-16.35-10.05-4.64-4.2-8.29-9.09-10.94-14.69-2.65-5.6-3.98-11.56-3.98-17.9,0-7.95,1-13.4,2.98-16.35,1.99-2.94,5.41-4.42,10.27-4.42s7.88.96,9.5,2.87c1.62,1.92,2.43,5.74,2.43,11.49,0,3.39.7,6.59,2.1,9.61,1.4,3.02,3.24,5.63,5.52,7.84,2.28,2.21,4.9,3.98,7.84,5.3,2.94,1.33,5.97,1.99,9.06,1.99,3.83,0,7.55-.55,11.16-1.66,3.61-1.1,6.85-2.69,9.72-4.75,2.87-2.06,5.15-4.53,6.85-7.4,1.69-2.87,2.54-6,2.54-9.39,0-6.33-1.88-11.49-5.63-15.47-3.76-3.98-8.43-7.55-14.03-10.72-5.6-3.17-11.68-6.26-18.23-9.28-6.56-3.02-12.63-6.66-18.23-10.94-5.6-4.27-10.28-9.46-14.03-15.58-3.76-6.11-5.63-13.88-5.63-23.31,0-7.51,1.33-14.69,3.98-21.54s6.37-12.89,11.16-18.12c4.79-5.23,10.53-9.39,17.24-12.48,6.7-3.09,14.1-4.64,22.21-4.64,7.36,0,13.88,1.1,19.55,3.31,5.67,2.21,10.42,5.23,14.25,9.06,3.83,3.83,6.74,8.25,8.73,13.26,1.99,5.01,2.98,10.39,2.98,16.13Z"/>
    <path class="cls-1" d="M403.45,893.31c0-8.69-.04-18.78-.11-30.27-.08-11.49-.15-23.2-.22-35.13-.08-11.93-.15-23.53-.22-34.8-.08-11.27-.11-21.03-.11-29.28,0-3.83,1.03-7.03,3.09-9.61,2.06-2.58,6.33-3.87,12.82-3.87,5.3,0,9.09,1.03,11.38,3.09,2.28,2.06,3.42,5.89,3.42,11.49,0,2.21-.04,4.38-.11,6.52-.08,2.14-.11,4.09-.11,5.85,0,1.47.4,2.4,1.21,2.76.81.37,2.24.55,4.31.55,2.65,0,6.08-.07,10.27-.22,4.2-.15,9.24-.22,15.14-.22,1.91,0,3.68.08,5.3.22,1.62.15,3.05.55,4.31,1.22,1.25.66,2.24,1.77,2.98,3.31.74,1.55,1.1,3.79,1.1,6.74,0,4.27-1.03,7.51-3.09,9.72-2.06,2.21-4.72,3.31-7.96,3.31h-26.74c-2.95,0-4.79.52-5.52,1.55-.74,1.03-1.1,2.14-1.1,3.31v73.58c0,12.23.74,20.96,2.21,26.18,1.47,5.23,4.05,7.84,7.73,7.84,2.5,0,4.56-1.29,6.19-3.87,1.62-2.58,2.87-5.97,3.76-10.16s1.51-8.98,1.88-14.36c.37-5.38.55-10.79.55-16.24,0-1.03-.04-2.47-.11-4.31-.08-1.84.18-3.68.77-5.52.59-1.84,1.62-3.43,3.09-4.75,1.47-1.33,3.83-1.99,7.07-1.99,3.68,0,6.41.52,8.18,1.55,1.77,1.03,2.98,2.29,3.65,3.76.66,1.47.99,3.06.99,4.75v4.31c0,9.72-.44,19.04-1.33,27.95-.88,8.91-2.58,16.76-5.08,23.53-2.51,6.78-6.11,12.19-10.83,16.24-4.72,4.05-10.9,6.08-18.56,6.08-14.88,0-25.3-4.31-31.27-12.93-5.97-8.62-8.95-21.25-8.95-37.89Z"/>
    <path class="cls-1" d="M538.46,901.27c-8.84,0-16.5-1.73-22.98-5.19-6.48-3.46-11.82-8.18-16.02-14.14s-7.33-13-9.39-21.1c-2.06-8.1-3.09-16.79-3.09-26.07,0-10.46.92-20.66,2.76-30.6,1.84-9.94,4.97-18.78,9.39-26.52,4.42-7.73,10.28-13.95,17.57-18.67,7.29-4.71,16.31-7.07,27.07-7.07,6.04,0,11.41,1.29,16.13,3.87,4.71,2.58,8.69,5.97,11.93,10.16,3.24,4.2,5.67,9.06,7.29,14.58,1.62,5.52,2.43,11.23,2.43,17.12,0,6.93-1.1,13.3-3.31,19.11-2.21,5.82-5.3,10.83-9.28,15.02s-8.69,7.48-14.14,9.83c-5.45,2.36-11.42,3.54-17.9,3.54-4.27,0-7.95-.59-11.05-1.77-3.09-1.18-5.97-2.72-8.62-4.64,0,1.47.25,4.16.77,8.06.51,3.9,1.51,7.95,2.98,12.15,1.47,4.2,3.61,7.92,6.41,11.16,2.8,3.24,6.63,4.86,11.49,4.86,4.27,0,7.59-.33,9.94-.99,2.35-.66,4.09-1.58,5.19-2.76,1.11-1.18,1.8-2.61,2.1-4.31.29-1.69.44-3.65.44-5.85,0-1.77.07-3.35.22-4.75.14-1.4.59-2.58,1.33-3.54.74-.96,1.99-1.69,3.76-2.21,1.77-.51,4.2-.77,7.29-.77s5.49.52,7.18,1.55c1.69,1.03,2.91,2.21,3.65,3.54.74,1.33,1.18,2.65,1.33,3.98.14,1.33.22,2.36.22,3.09,0,5.6-.92,10.79-2.76,15.58-1.84,4.79-4.61,8.95-8.29,12.48-3.68,3.54-8.18,6.3-13.48,8.29-5.3,1.99-11.49,2.98-18.56,2.98ZM500.01,938.17c-2.21,0-4.09-1.22-5.63-3.65-1.55-2.43-2.32-5.49-2.32-9.17,0-8.54,2.58-12.82,7.73-12.82,2.65,0,6,.04,10.05.11,4.05.08,8.47.11,13.26.11s9.76.08,14.91.22c5.16.15,10.16.22,15.03.22s9.35.04,13.48.11c4.12.08,7.58.11,10.38.11,1.77,0,3.17.44,4.2,1.33,1.03.88,1.84,1.99,2.43,3.31.59,1.33.96,2.76,1.11,4.31.14,1.55.22,2.98.22,4.31s-.08,2.65-.22,3.98c-.15,1.33-.52,2.58-1.11,3.76-.59,1.18-1.36,2.14-2.32,2.87-.96.74-2.32,1.1-4.09,1.1h-16.68c-7,0-14.25-.03-21.76-.11-7.51-.07-14.77-.11-21.76-.11h-16.9ZM517.24,809.35c0,1.77.66,3.42,1.99,4.97,1.33,1.55,2.91,2.87,4.75,3.98,1.84,1.1,3.83,1.99,5.97,2.65,2.13.66,4.01.99,5.63.99,6.33,0,11.67-1.88,16.02-5.63,4.34-3.76,6.52-9.83,6.52-18.23,0-7.07-1.4-12.82-4.2-17.23-2.8-4.42-7.15-6.63-13.04-6.63-3.98,0-7.44,1.14-10.38,3.42-2.95,2.29-5.41,5.19-7.4,8.73-1.99,3.54-3.46,7.37-4.42,11.49-.96,4.13-1.44,7.95-1.44,11.49Z"/>
    <path class="cls-1" d="M651.81,752.56c8.25,0,15.32,1.99,21.21,5.97,5.89,3.98,10.72,9.43,14.47,16.35,3.76,6.93,6.55,14.99,8.4,24.19,1.84,9.21,2.76,19.11,2.76,29.72,0,9.43-1.07,18.27-3.2,26.52-2.14,8.25-5.34,15.47-9.61,21.65-4.27,6.19-9.72,11.05-16.35,14.58-6.63,3.54-14.44,5.3-23.42,5.3-3.54,0-6.59-.29-9.17-.88-2.58-.59-4.68-.88-6.3-.88-1.18,0-2.1.33-2.76.99-.66.66-.99,1.88-.99,3.65v35.8c0,4.72-.99,8.69-2.98,11.93-1.99,3.24-4.9,4.86-8.73,4.86-2.06,0-4.12-.19-6.19-.55-2.06-.37-3.94-.96-5.63-1.77-1.7-.81-3.06-1.95-4.09-3.42-1.03-1.47-1.55-3.31-1.55-5.52v-161.3c0-3.39-.55-6.33-1.66-8.84-1.11-2.5-2.25-4.71-3.42-6.63-.88-1.33-.92-2.8-.11-4.42.81-1.62,2.06-3.17,3.76-4.64,1.69-1.47,3.65-2.69,5.86-3.65,2.21-.96,4.27-1.44,6.19-1.44,3.39,0,6.33,1.4,8.84,4.2,2.5,2.8,4.71,6.11,6.63,9.94.29.59.59,1.1.88,1.55.29.44.74.66,1.33.66.74,0,1.84-.74,3.31-2.21,2.65-2.95,5.82-5.63,9.5-8.06,3.68-2.43,8.03-3.65,13.04-3.65ZM670.37,828.35c0-5.74-.33-11.52-.99-17.35-.66-5.82-1.84-11.08-3.54-15.8-1.7-4.71-3.87-8.58-6.52-11.6-2.65-3.02-5.97-4.53-9.94-4.53-2.65,0-5.3.88-7.96,2.65-2.65,1.77-5.08,4.02-7.29,6.74-2.21,2.73-4.02,5.86-5.41,9.39-1.4,3.54-2.1,7.07-2.1,10.61v49.94c0,5.01,1.03,8.51,3.09,10.5,2.06,1.99,6.55,2.98,13.48,2.98,4.27,0,8.1-1.07,11.49-3.2,3.39-2.13,6.26-5.12,8.62-8.95,2.35-3.83,4.12-8.43,5.3-13.81,1.18-5.38,1.77-11.23,1.77-17.57Z"/>
    <path class="cls-1" d="M764.49,894.42c0-5.45-1.47-10.27-4.42-14.47-2.95-4.2-6.67-8.14-11.16-11.82-4.5-3.68-9.32-7.33-14.47-10.94-5.16-3.61-9.98-7.62-14.47-12.04-4.5-4.42-8.21-9.43-11.16-15.03-2.95-5.6-4.42-12.23-4.42-19.89s1.1-14.91,3.31-21.32,5.38-11.93,9.5-16.57c4.12-4.64,9.13-8.25,15.03-10.83,5.89-2.58,12.59-3.87,20.11-3.87,6.48,0,12.41,1.03,17.79,3.09,5.38,2.06,9.94,4.94,13.7,8.62,3.76,3.68,6.66,8.14,8.73,13.37,2.06,5.23,3.09,11.09,3.09,17.57s-1.14,10.75-3.42,13.26c-2.29,2.51-6.22,3.76-11.82,3.76-4.72,0-7.99-.96-9.83-2.87-1.84-1.91-2.76-5.3-2.76-10.16,0-6.63-1.33-11.97-3.98-16.02-2.65-4.05-6.11-6.08-10.38-6.08-2.51,0-4.9.7-7.18,2.1-2.29,1.4-4.27,3.24-5.97,5.52-1.7,2.29-3.06,4.97-4.09,8.06-1.03,3.09-1.55,6.34-1.55,9.72,0,5.89,1.55,11.01,4.64,15.36,3.09,4.35,6.92,8.43,11.49,12.26,4.56,3.83,9.57,7.59,15.03,11.27,5.45,3.68,10.46,7.81,15.03,12.37,4.56,4.57,8.4,9.8,11.49,15.69,3.09,5.89,4.64,12.89,4.64,20.99,0,7.22-1.36,13.96-4.09,20.22-2.73,6.26-6.41,11.75-11.05,16.46-4.64,4.72-9.98,8.43-16.02,11.16-6.04,2.72-12.45,4.09-19.22,4.09s-12.78-1.14-18.45-3.42c-5.67-2.28-10.53-5.45-14.58-9.5-4.05-4.05-7.22-8.84-9.5-14.36-2.29-5.52-3.42-11.6-3.42-18.23,0-11.19,4.42-16.79,13.26-16.79,6.19,0,10.05,1.4,11.6,4.2,1.55,2.8,2.32,6.63,2.32,11.49,0,2.06.4,4.35,1.21,6.85.81,2.51,2.02,4.83,3.65,6.96,1.62,2.14,3.57,3.94,5.85,5.41,2.28,1.47,4.82,2.21,7.62,2.21,2.21,0,4.42-.74,6.63-2.21,2.21-1.47,4.2-3.46,5.97-5.97,1.77-2.5,3.17-5.45,4.2-8.84,1.03-3.39,1.55-6.99,1.55-10.83Z"/>
  </g>
</svg>