<?xml version="1.0" encoding="UTF-8"?>
<svg id="Layer_1" data-name="Layer 1" xmlns="http://www.w3.org/2000/svg" viewBox="0 0 1080 1080">
  <defs>
    <style>
      .cls-1 {
        fill: #f8c23e;
      }

      .cls-2 {
        fill: #ff7b6c;
      }

      .cls-3 {
        fill: #fff;
      }

      .cls-4 {
        fill: #0274bb;
      }

      .cls-5 {
        fill: #3e4b5b;
      }
    </style>
  </defs>
  <rect class="cls-4" width="1080" height="1080"/>
  <g>
    <g>
      <path class="cls-1" d="M341.91,725.99c-4.13,0-7.55-.51-10.28-1.55-2.73-1.03-4.9-2.87-6.52-5.52-1.62-2.65-2.76-6.26-3.42-10.83-.66-4.56-1-10.39-1-17.46s.04-14.58.11-22.1c.07-7.51.11-14.88.11-22.1,0-14.58.37-29.09,1.1-43.53.74-14.44,1.1-28.95,1.1-43.53v-24.97c0-5.15,1.4-8.76,4.2-10.83,2.8-2.06,6.26-3.09,10.39-3.09,4.71,0,8.25.3,10.61.88,2.35.59,3.98,1.44,4.86,2.54.88,1.1,1.33,2.54,1.33,4.31v6.41c0,.88.11,1.47.33,1.77.22.3.77.44,1.66.44,7.95,0,15.65.63,23.09,1.88,7.44,1.25,14.1,3.46,20,6.63,5.89,3.17,10.61,7.51,14.14,13.04,3.54,5.52,5.3,12.56,5.3,21.1,0,6.48-.88,11.97-2.65,16.46-1.77,4.5-3.94,8.25-6.52,11.27-2.58,3.02-5.41,5.41-8.51,7.18-3.09,1.77-5.93,3.24-8.51,4.42-2.58,1.18-4.75,2.14-6.52,2.87-1.77.74-2.65,1.62-2.65,2.65,0,.3,1.03.55,3.09.77,2.06.22,4.6.74,7.62,1.55,3.02.81,6.3,2.06,9.83,3.76,3.54,1.7,6.81,4.24,9.83,7.62,3.02,3.39,5.56,7.81,7.62,13.26,2.06,5.45,3.09,12.23,3.09,20.33,0,12.52-2.54,22.43-7.62,29.72-5.08,7.29-11.6,12.74-19.56,16.35-7.95,3.61-16.83,5.89-26.62,6.85-9.8.96-19.48,1.44-29.06,1.44ZM350.75,602.25c0,1.62.37,3.13,1.1,4.53.74,1.4,2.06,2.1,3.98,2.1,4.27,0,8.62-.81,13.04-2.43,4.42-1.62,8.43-3.72,12.04-6.3,3.61-2.58,6.59-5.52,8.95-8.84,2.35-3.31,3.54-6.74,3.54-10.27,0-4.71-1.21-8.47-3.65-11.27-2.43-2.8-5.49-4.97-9.17-6.52-3.68-1.55-7.66-2.58-11.93-3.09-4.27-.51-8.25-.77-11.93-.77-1.62,0-2.73.48-3.31,1.44-.59.96-1.03,2.25-1.33,3.87-.88,5.75-1.33,11.97-1.33,18.67v18.89ZM357.6,699.03c7.36,0,13.55-.7,18.56-2.1,5.01-1.4,9.06-3.35,12.15-5.86,3.09-2.5,5.3-5.56,6.63-9.17,1.33-3.61,1.99-7.62,1.99-12.04,0-5.74-1.55-10.75-4.64-15.02-3.09-4.27-6.63-7.81-10.61-10.61-3.98-2.8-7.92-4.86-11.82-6.19-3.91-1.33-6.74-1.99-8.51-1.99-.88,0-1.92.04-3.09.11-1.18.08-2.32.3-3.42.66-1.11.37-2.06.92-2.87,1.66-.81.74-1.21,1.77-1.21,3.09v38.45c0,2.8.14,5.6.44,8.4.29,2.8.96,5.27,1.99,7.4,1.03,2.14,2.5,3.2,4.42,3.2Z"/>
      <path class="cls-1" d="M431.84,640.48c0-6.48.85-12.85,2.54-19.11,1.69-6.26,4.27-11.82,7.73-16.68,3.46-4.86,7.84-8.76,13.15-11.71,5.3-2.94,11.63-4.42,19-4.42,2.65,0,5.27.22,7.84.66,2.58.44,5.12.66,7.62.66,3.68,0,5.52-1.84,5.52-5.52v-13.37c0-4.05-.37-7.58-1.1-10.61-.74-3.02-1.99-5.38-3.76-7.07-1.77-1.69-4.35-2.54-7.73-2.54-2.21,0-4.09.41-5.63,1.22-1.55.81-2.91,1.88-4.09,3.2-1.18,1.33-2.14,2.76-2.87,4.31-.74,1.55-1.33,3.06-1.77,4.53-.74,2.36-1.77,3.79-3.09,4.31-1.33.52-3.02.77-5.08.77-1.77,0-3.46-.11-5.08-.33-1.62-.22-3.06-.7-4.31-1.44-1.25-.74-2.25-1.73-2.98-2.98-.74-1.25-1.11-2.98-1.11-5.19,0-4.56,1.07-8.84,3.2-12.82,2.13-3.98,4.9-7.44,8.29-10.39,3.39-2.94,7.18-5.26,11.38-6.96,4.2-1.69,8.36-2.54,12.48-2.54,10.02,0,17.93,1.47,23.75,4.42,5.82,2.95,10.2,7.11,13.15,12.48,2.95,5.38,4.86,11.86,5.75,19.44.88,7.59,1.33,16.1,1.33,25.52,0,7.51-.11,15.1-.33,22.76-.22,7.66-.33,15.25-.33,22.76,0,1.62-.04,3.54-.11,5.75-.08,2.21-.11,4.42-.11,6.63v6.41c0,2.06.07,3.76.22,5.08.14.88.51,2.06,1.1,3.54.59,1.47,1.21,2.95,1.88,4.42.66,1.47,1.25,2.76,1.77,3.87.51,1.1.77,1.81.77,2.1,0,2.21-.74,4.09-2.21,5.63-1.47,1.55-3.24,2.8-5.3,3.76-2.06.96-4.16,1.66-6.3,2.1-2.14.44-3.94.66-5.41.66-2.06,0-3.9-.96-5.52-2.87-1.62-1.91-2.98-4.16-4.09-6.74-1.1-2.58-1.95-5.23-2.54-7.95-.59-2.72-.88-4.82-.88-6.3-2.06,6.48-5.97,11.6-11.71,15.36s-11.93,5.63-18.56,5.63c-5.3,0-10.16-1.18-14.58-3.54-4.42-2.35-8.25-5.45-11.49-9.28-3.24-3.83-5.78-8.14-7.62-12.93-1.84-4.79-2.76-9.68-2.76-14.69ZM446.64,721.79c-2.21,0-4.09-1.22-5.63-3.65-1.55-2.43-2.32-5.49-2.32-9.17,0-8.54,2.58-12.82,7.73-12.82,2.65,0,6,.04,10.05.11,4.05.08,8.47.11,13.26.11s9.76.08,14.91.22c5.16.15,10.16.22,15.03.22s9.35.04,13.48.11c4.12.08,7.58.11,10.38.11,1.77,0,3.17.44,4.2,1.33,1.03.88,1.84,1.99,2.43,3.31.59,1.33.96,2.76,1.11,4.31.14,1.55.22,2.98.22,4.31s-.08,2.65-.22,3.98c-.15,1.33-.52,2.58-1.11,3.76-.59,1.18-1.36,2.14-2.32,2.87-.96.74-2.32,1.1-4.09,1.1h-16.68c-7,0-14.25-.03-21.76-.11-7.51-.07-14.77-.11-21.76-.11h-16.9ZM493.49,617.5c0-.88-.44-1.58-1.33-2.1-.88-.51-1.88-.88-2.98-1.1-1.11-.22-2.25-.37-3.42-.44-1.18-.07-2.06-.11-2.65-.11-8.84,0-15.17,2.14-19,6.41-3.83,4.27-5.75,10.09-5.75,17.46,0,4.57,1.22,8.51,3.65,11.82,2.43,3.31,6.15,4.97,11.16,4.97,3.39,0,6.33-1.4,8.84-4.2,2.5-2.8,4.6-6.15,6.3-10.05,1.69-3.9,2.98-7.95,3.87-12.15s1.33-7.7,1.33-10.5Z"/>
      <path class="cls-1" d="M595.57,728.2c-8.69,0-15.99-.7-21.88-2.1-5.89-1.4-10.64-3.5-14.25-6.3-3.61-2.8-6.19-6.19-7.73-10.16-1.55-3.98-2.32-8.54-2.32-13.7,0-25.92-.33-51.56-.99-76.89-.66-25.33-.99-51.04-.99-77.11,0-4.86.25-8.84.77-11.93.51-3.09,1.47-5.56,2.87-7.4,1.4-1.84,3.39-3.13,5.97-3.87,2.58-.74,5.93-1.1,10.05-1.1,2.95,0,5.23.41,6.85,1.22,1.62.81,2.83,2.21,3.65,4.2.81,1.99,1.29,4.61,1.44,7.84.15,3.24.22,7.22.22,11.93,0,4.27-.04,9.17-.11,14.69-.08,5.52-.11,10.83-.11,15.91s.04,9.58.11,13.48c.07,3.9.18,6.3.33,7.18.88-2.35,2.1-5.12,3.65-8.29,1.55-3.17,3.65-6.19,6.3-9.06,2.65-2.87,5.97-5.3,9.94-7.29,3.98-1.99,8.84-2.98,14.58-2.98,13.4,0,23.83,6.56,31.27,19.67,7.44,13.11,11.16,33.22,11.16,60.32,0,10.16-1.07,20.15-3.2,29.94-2.14,9.8-5.56,18.53-10.27,26.18-4.72,7.66-10.94,13.85-18.67,18.56-7.73,4.72-17.27,7.07-28.61,7.07ZM608.61,597.61c-3.98,0-7.66,2.54-11.05,7.62-3.39,5.08-6.3,11.6-8.73,19.56-2.43,7.95-4.35,16.76-5.75,26.4-1.4,9.65-2.1,18.97-2.1,27.95,0,3.09.33,6.04.99,8.84.66,2.8,1.66,5.3,2.98,7.51,1.33,2.21,3.09,3.98,5.3,5.3,2.21,1.33,4.86,1.99,7.96,1.99,3.68,0,6.92-.99,9.72-2.98,2.8-1.99,5.23-4.64,7.29-7.95,2.06-3.31,3.76-6.99,5.08-11.05,1.33-4.05,2.39-8.18,3.2-12.37.81-4.2,1.36-8.21,1.66-12.04.29-3.83.44-7.14.44-9.94,0-6.19-.33-12.23-.99-18.12-.66-5.89-1.7-11.08-3.09-15.58-1.4-4.49-3.17-8.14-5.3-10.94-2.14-2.8-4.68-4.2-7.62-4.2Z"/>
      <path class="cls-1" d="M703.18,656.61c-8.1,0-14.73-1.58-19.89-4.75-5.16-3.17-9.21-7.4-12.15-12.71-2.95-5.3-5.01-11.45-6.19-18.45-1.18-6.99-1.77-14.4-1.77-22.21,0-8.69.07-16.94.22-24.75.14-7.81.22-15.98.22-24.53,0-1.91.22-3.87.66-5.86.44-1.99,1.29-3.76,2.54-5.3,1.25-1.55,2.95-2.8,5.08-3.76,2.13-.96,4.82-1.44,8.07-1.44,3.54,0,6.15.44,7.84,1.33,1.69.88,2.87,2.03,3.54,3.42.66,1.4.96,3.02.88,4.86-.08,1.84-.11,3.72-.11,5.63v51.26c0,10.46,1.66,18.38,4.97,23.75,3.31,5.38,7.7,8.06,13.15,8.06,3.98,0,7.36-.96,10.16-2.87,2.8-1.91,5.08-4.53,6.85-7.84,1.77-3.31,3.02-7.22,3.76-11.71.74-4.49,1.1-9.39,1.1-14.69v-34.69c0-4.27.26-7.88.77-10.83.51-2.94,1.44-5.3,2.76-7.07,1.33-1.77,3.05-3.02,5.19-3.76,2.13-.74,4.82-1.1,8.06-1.1,4.71,0,8.07.99,10.05,2.98s2.98,4.9,2.98,8.73v128.38c0,8.99-1.29,16.76-3.87,23.31-2.58,6.56-6.11,11.97-10.61,16.24-4.5,4.27-9.91,7.4-16.24,9.39-6.33,1.99-13.26,2.98-20.77,2.98-6.93,0-13.26-1.03-19-3.09s-10.72-4.97-14.91-8.73-7.48-8.18-9.83-13.26c-2.36-5.08-3.54-10.72-3.54-16.9s1.18-11.19,3.54-15.03c2.35-3.83,6.48-5.74,12.37-5.74,5.15,0,8.62.96,10.38,2.87,1.77,1.92,2.65,5.38,2.65,10.38,0,3.24.33,6.41.99,9.5.66,3.09,1.69,5.82,3.09,8.18,1.4,2.36,3.28,4.24,5.63,5.63,2.35,1.4,5.3,2.1,8.84,2.1,8.25,0,14.29-2.32,18.12-6.96,3.83-4.64,5.75-11.45,5.75-20.44v-26.07c0-.74-.59-1.1-1.77-1.1-1.33,0-3.13.33-5.41.99-2.29.66-4.79,1.44-7.51,2.32-2.73.88-5.56,1.66-8.51,2.32-2.95.66-5.67.99-8.18.99Z"/>
      <path class="cls-1" d="M386.21,776.07c0,4.27-.3,7.62-.88,10.05-.59,2.43-1.44,4.2-2.54,5.3-1.11,1.1-2.54,1.77-4.31,1.99-1.77.22-3.83.33-6.19.33-3.83,0-6.45-1.55-7.84-4.64-1.4-3.09-2.1-7.22-2.1-12.37,0-5.75-2.1-9.87-6.3-12.37-4.2-2.5-9.32-3.76-15.36-3.76-4.42,0-8.21.85-11.38,2.54-3.17,1.69-5.78,3.87-7.84,6.52-2.06,2.65-3.57,5.6-4.53,8.84-.96,3.24-1.44,6.41-1.44,9.5,0,6.63,1.88,11.97,5.63,16.02,3.76,4.05,8.47,7.59,14.14,10.61,5.67,3.02,11.82,5.93,18.45,8.73,6.63,2.8,12.78,6.26,18.45,10.39,5.67,4.13,10.38,9.36,14.14,15.69,3.76,6.34,5.63,14.51,5.63,24.53,0,7.51-1.47,14.51-4.42,20.99-2.95,6.48-7.04,12.15-12.26,17.01-5.23,4.86-11.42,8.69-18.56,11.49-7.15,2.8-14.92,4.2-23.31,4.2-7.22,0-13.96-1.25-20.22-3.76-6.26-2.5-11.71-5.86-16.35-10.05-4.64-4.2-8.29-9.09-10.94-14.69-2.65-5.6-3.98-11.56-3.98-17.9,0-7.95,1-13.4,2.98-16.35,1.99-2.94,5.41-4.42,10.27-4.42s7.88.96,9.5,2.87c1.62,1.92,2.43,5.74,2.43,11.49,0,3.39.7,6.59,2.1,9.61,1.4,3.02,3.24,5.63,5.52,7.84,2.28,2.21,4.9,3.98,7.84,5.3,2.94,1.33,5.97,1.99,9.06,1.99,3.83,0,7.55-.55,11.16-1.66,3.61-1.1,6.85-2.69,9.72-4.75,2.87-2.06,5.15-4.53,6.85-7.4,1.69-2.87,2.54-6,2.54-9.39,0-6.33-1.88-11.49-5.63-15.47-3.76-3.98-8.43-7.55-14.03-10.72-5.6-3.17-11.68-6.26-18.23-9.28-6.56-3.02-12.63-6.66-18.23-10.94-5.6-4.27-10.28-9.46-14.03-15.58-3.76-6.11-5.63-13.88-5.63-23.31,0-7.51,1.33-14.69,3.98-21.54s6.37-12.89,11.16-18.12c4.79-5.23,10.53-9.39,17.24-12.48,6.7-3.09,14.1-4.64,22.21-4.64,7.36,0,13.88,1.1,19.55,3.31,5.67,2.21,10.42,5.23,14.25,9.06,3.83,3.83,6.74,8.25,8.73,13.26,1.99,5.01,2.98,10.39,2.98,16.13Z"/>
      <path class="cls-1" d="M403.45,879.48c0-8.69-.04-18.78-.11-30.27-.08-11.49-.15-23.2-.22-35.13-.08-11.93-.15-23.53-.22-34.8-.08-11.27-.11-21.03-.11-29.28,0-3.83,1.03-7.03,3.09-9.61,2.06-2.58,6.33-3.87,12.82-3.87,5.3,0,9.09,1.03,11.38,3.09,2.28,2.06,3.42,5.89,3.42,11.49,0,2.21-.04,4.38-.11,6.52-.08,2.14-.11,4.09-.11,5.85,0,1.47.4,2.4,1.21,2.76.81.37,2.24.55,4.31.55,2.65,0,6.08-.07,10.27-.22,4.2-.15,9.24-.22,15.14-.22,1.91,0,3.68.08,5.3.22,1.62.15,3.05.55,4.31,1.22,1.25.66,2.24,1.77,2.98,3.31.74,1.55,1.1,3.79,1.1,6.74,0,4.27-1.03,7.51-3.09,9.72-2.06,2.21-4.72,3.31-7.96,3.31h-26.74c-2.95,0-4.79.52-5.52,1.55-.74,1.03-1.1,2.14-1.1,3.31v73.58c0,12.23.74,20.96,2.21,26.18,1.47,5.23,4.05,7.84,7.73,7.84,2.5,0,4.56-1.29,6.19-3.87,1.62-2.58,2.87-5.97,3.76-10.16s1.51-8.98,1.88-14.36c.37-5.38.55-10.79.55-16.24,0-1.03-.04-2.47-.11-4.31-.08-1.84.18-3.68.77-5.52.59-1.84,1.62-3.43,3.09-4.75,1.47-1.33,3.83-1.99,7.07-1.99,3.68,0,6.41.52,8.18,1.55,1.77,1.03,2.98,2.29,3.65,3.76.66,1.47.99,3.06.99,4.75v4.31c0,9.72-.44,19.04-1.33,27.95-.88,8.91-2.58,16.76-5.08,23.53-2.51,6.78-6.11,12.19-10.83,16.24-4.72,4.05-10.9,6.08-18.56,6.08-14.88,0-25.3-4.31-31.27-12.93-5.97-8.62-8.95-21.25-8.95-37.89Z"/>
      <path class="cls-1" d="M538.46,887.44c-8.84,0-16.5-1.73-22.98-5.19-6.48-3.46-11.82-8.18-16.02-14.14s-7.33-13-9.39-21.1c-2.06-8.1-3.09-16.79-3.09-26.07,0-10.46.92-20.66,2.76-30.6,1.84-9.94,4.97-18.78,9.39-26.52,4.42-7.73,10.28-13.95,17.57-18.67,7.29-4.71,16.31-7.07,27.07-7.07,6.04,0,11.41,1.29,16.13,3.87,4.71,2.58,8.69,5.97,11.93,10.16,3.24,4.2,5.67,9.06,7.29,14.58,1.62,5.52,2.43,11.23,2.43,17.12,0,6.93-1.1,13.3-3.31,19.11-2.21,5.82-5.3,10.83-9.28,15.02s-8.69,7.48-14.14,9.83c-5.45,2.36-11.42,3.54-17.9,3.54-4.27,0-7.95-.59-11.05-1.77-3.09-1.18-5.97-2.72-8.62-4.64,0,1.47.25,4.16.77,8.06.51,3.9,1.51,7.95,2.98,12.15,1.47,4.2,3.61,7.92,6.41,11.16,2.8,3.24,6.63,4.86,11.49,4.86,4.27,0,7.59-.33,9.94-.99,2.35-.66,4.09-1.58,5.19-2.76,1.11-1.18,1.8-2.61,2.1-4.31.29-1.69.44-3.65.44-5.85,0-1.77.07-3.35.22-4.75.14-1.4.59-2.58,1.33-3.54.74-.96,1.99-1.69,3.76-2.21,1.77-.51,4.2-.77,7.29-.77s5.49.52,7.18,1.55c1.69,1.03,2.91,2.21,3.65,3.54.74,1.33,1.18,2.65,1.33,3.98.14,1.33.22,2.36.22,3.09,0,5.6-.92,10.79-2.76,15.58-1.84,4.79-4.61,8.95-8.29,12.48-3.68,3.54-8.18,6.3-13.48,8.29-5.3,1.99-11.49,2.98-18.56,2.98ZM500.01,924.34c-2.21,0-4.09-1.22-5.63-3.65-1.55-2.43-2.32-5.49-2.32-9.17,0-8.54,2.58-12.82,7.73-12.82,2.65,0,6,.04,10.05.11,4.05.08,8.47.11,13.26.11s9.76.08,14.91.22c5.16.15,10.16.22,15.03.22s9.35.04,13.48.11c4.12.08,7.58.11,10.38.11,1.77,0,3.17.44,4.2,1.33,1.03.88,1.84,1.99,2.43,3.31.59,1.33.96,2.76,1.11,4.31.14,1.55.22,2.98.22,4.31s-.08,2.65-.22,3.98c-.15,1.33-.52,2.58-1.11,3.76-.59,1.18-1.36,2.14-2.32,2.87-.96.74-2.32,1.1-4.09,1.1h-16.68c-7,0-14.25-.03-21.76-.11-7.51-.07-14.77-.11-21.76-.11h-16.9ZM517.24,795.52c0,1.77.66,3.42,1.99,4.97,1.33,1.55,2.91,2.87,4.75,3.98,1.84,1.1,3.83,1.99,5.97,2.65,2.13.66,4.01.99,5.63.99,6.33,0,11.67-1.88,16.02-5.63,4.34-3.76,6.52-9.83,6.52-18.23,0-7.07-1.4-12.82-4.2-17.23-2.8-4.42-7.15-6.63-13.04-6.63-3.98,0-7.44,1.14-10.38,3.42-2.95,2.29-5.41,5.19-7.4,8.73-1.99,3.54-3.46,7.37-4.42,11.49-.96,4.13-1.44,7.95-1.44,11.49Z"/>
      <path class="cls-1" d="M651.81,738.73c8.25,0,15.32,1.99,21.21,5.97,5.89,3.98,10.72,9.43,14.47,16.35,3.76,6.93,6.55,14.99,8.4,24.19,1.84,9.21,2.76,19.11,2.76,29.72,0,9.43-1.07,18.27-3.2,26.52-2.14,8.25-5.34,15.47-9.61,21.65-4.27,6.19-9.72,11.05-16.35,14.58-6.63,3.54-14.44,5.3-23.42,5.3-3.54,0-6.59-.29-9.17-.88-2.58-.59-4.68-.88-6.3-.88-1.18,0-2.1.33-2.76.99-.66.66-.99,1.88-.99,3.65v35.8c0,4.72-.99,8.69-2.98,11.93-1.99,3.24-4.9,4.86-8.73,4.86-2.06,0-4.12-.19-6.19-.55-2.06-.37-3.94-.96-5.63-1.77-1.7-.81-3.06-1.95-4.09-3.42-1.03-1.47-1.55-3.31-1.55-5.52v-161.3c0-3.39-.55-6.33-1.66-8.84-1.11-2.5-2.25-4.71-3.42-6.63-.88-1.33-.92-2.8-.11-4.42.81-1.62,2.06-3.17,3.76-4.64,1.69-1.47,3.65-2.69,5.86-3.65,2.21-.96,4.27-1.44,6.19-1.44,3.39,0,6.33,1.4,8.84,4.2,2.5,2.8,4.71,6.11,6.63,9.94.29.59.59,1.1.88,1.55.29.44.74.66,1.33.66.74,0,1.84-.74,3.31-2.21,2.65-2.95,5.82-5.63,9.5-8.06,3.68-2.43,8.03-3.65,13.04-3.65ZM670.37,814.52c0-5.74-.33-11.52-.99-17.35-.66-5.82-1.84-11.08-3.54-15.8-1.7-4.71-3.87-8.58-6.52-11.6-2.65-3.02-5.97-4.53-9.94-4.53-2.65,0-5.3.88-7.96,2.65-2.65,1.77-5.08,4.02-7.29,6.74-2.21,2.73-4.02,5.86-5.41,9.39-1.4,3.54-2.1,7.07-2.1,10.61v49.94c0,5.01,1.03,8.51,3.09,10.5,2.06,1.99,6.55,2.98,13.48,2.98,4.27,0,8.1-1.07,11.49-3.2,3.39-2.13,6.26-5.12,8.62-8.95,2.35-3.83,4.12-8.43,5.3-13.81,1.18-5.38,1.77-11.23,1.77-17.57Z"/>
      <path class="cls-1" d="M764.49,880.59c0-5.45-1.47-10.27-4.42-14.47-2.95-4.2-6.67-8.14-11.16-11.82-4.5-3.68-9.32-7.33-14.47-10.94-5.16-3.61-9.98-7.62-14.47-12.04-4.5-4.42-8.21-9.43-11.16-15.03-2.95-5.6-4.42-12.23-4.42-19.89s1.1-14.91,3.31-21.32,5.38-11.93,9.5-16.57c4.12-4.64,9.13-8.25,15.03-10.83,5.89-2.58,12.59-3.87,20.11-3.87,6.48,0,12.41,1.03,17.79,3.09,5.38,2.06,9.94,4.94,13.7,8.62,3.76,3.68,6.66,8.14,8.73,13.37,2.06,5.23,3.09,11.09,3.09,17.57s-1.14,10.75-3.42,13.26c-2.29,2.51-6.22,3.76-11.82,3.76-4.72,0-7.99-.96-9.83-2.87-1.84-1.91-2.76-5.3-2.76-10.16,0-6.63-1.33-11.97-3.98-16.02-2.65-4.05-6.11-6.08-10.38-6.08-2.51,0-4.9.7-7.18,2.1-2.29,1.4-4.27,3.24-5.97,5.52-1.7,2.29-3.06,4.97-4.09,8.06-1.03,3.09-1.55,6.34-1.55,9.72,0,5.89,1.55,11.01,4.64,15.36,3.09,4.35,6.92,8.43,11.49,12.26,4.56,3.83,9.57,7.59,15.03,11.27,5.45,3.68,10.46,7.81,15.03,12.37,4.56,4.57,8.4,9.8,11.49,15.69,3.09,5.89,4.64,12.89,4.64,20.99,0,7.22-1.36,13.96-4.09,20.22-2.73,6.26-6.41,11.75-11.05,16.46-4.64,4.72-9.98,8.43-16.02,11.16-6.04,2.72-12.45,4.09-19.22,4.09s-12.78-1.14-18.45-3.42c-5.67-2.28-10.53-5.45-14.58-9.5-4.05-4.05-7.22-8.84-9.5-14.36-2.29-5.52-3.42-11.6-3.42-18.23,0-11.19,4.42-16.79,13.26-16.79,6.19,0,10.05,1.4,11.6,4.2,1.55,2.8,2.32,6.63,2.32,11.49,0,2.06.4,4.35,1.21,6.85.81,2.51,2.02,4.83,3.65,6.96,1.62,2.14,3.57,3.94,5.85,5.41,2.28,1.47,4.82,2.21,7.62,2.21,2.21,0,4.42-.74,6.63-2.21,2.21-1.47,4.2-3.46,5.97-5.97,1.77-2.5,3.17-5.45,4.2-8.84,1.03-3.39,1.55-6.99,1.55-10.83Z"/>
    </g>
    <g>
      <path class="cls-5" d="M600.77,378.7c-8.68-12.1-22.91,9.39-62.2,10.11-37.29.71-53.37-23.34-60.06-9.68-10.82,21.49,15.94,67.61,65.61,66.89,42.98-.71,69.17-50.24,56.65-67.32ZM579.85,424.96c-5.55,5.27-17.22,14.66-31.45,15.09-21.35.71-32.17-6.55-36.72-10.67-1.42-1.28-1.42-3.7.14-4.98,5.41-4.41,15.51-13.66,31.74-13.95,20.35-.43,28.04,5.84,35.3,8.97,2.14,1,2.7,3.84,1,5.55Z"/>
      <path class="cls-2" d="M579.85,424.96c-5.55,5.27-17.22,14.66-31.45,15.09-21.35.71-32.17-6.55-36.72-10.67-1.42-1.28-1.42-3.7.14-4.98,5.41-4.41,15.51-13.66,31.74-13.95,20.35-.43,28.04,5.84,35.3,8.97,2.14,1,2.7,3.84,1,5.55Z"/>
      <g>
        <path class="cls-5" d="M471.26,186.56c-17.22-18.5-41.99-30.03-69.31-30.03s-54.08,12.52-71.31,32.45h-.14c-6.83,1-9.82-4.84-10.39-5.98-1.57-3.7-5.84-5.41-9.54-3.84-3.7,1.57-5.41,5.84-3.84,9.54,1.71,4.27,6.4,10.67,14.09,13.52-.71,1-1.28,1.99-1.71,2.99-.14-.14-.28,0-.43,0-13.52,2.14-19.21-10.67-19.93-12.24-1.42-3.7-5.69-5.55-9.39-4.13-3.7,1.57-5.55,5.84-4.13,9.54,2.99,7.54,11.96,19.93,27.19,21.49-3.7,9.82-5.55,20.64-5.55,31.74,0,31.31,15.09,59.07,38.57,76.29,15.8,11.81,35.3,18.64,56.5,18.64,52.52,0,95.07-42.56,95.07-94.93,0-25.19-9.68-48.11-25.76-65.04ZM401.94,342.98h-.57c-2.85,0-5.55-.14-8.4-.43-32.88-3.84-60.63-28.89-67.75-61.2-.28-1.14-.57-2.14-.57-3.27-.28-1.28-.57-2.56-.71-3.84-.14-.85-.14-1.57-.14-2.42-.28-2.7-.43-5.55-.43-8.25v-.85c0-2.42.14-4.98.28-7.4.14-.85.28-1.85.28-2.85.43-2.85.85-5.69,1.57-8.68.14-1.42.57-2.7.85-4.13.28-1.28.71-2.56,1.14-3.7,7.69-25.9,27.18-47.11,51.95-57.22,2.7-1.28,5.55-2.28,8.4-2.99,1.42-.57,2.99-1,4.41-1.28.71-.14,1.57-.43,2.28-.43,1.99-.57,3.99-1,6.12-1.14.57-.14,1.14-.28,1.71-.28,2.7-.57,5.55-.71,8.4-.85h1.14c36.01-1.14,68.6,23.34,78.56,56.93.71,2.14,1.14,4.41,1.57,6.69.43,2.42.71,4.84,1,7.4.28,2.99.43,5.98.43,8.82,0,50.38-40.99,91.37-91.52,91.37Z"/>
        <path class="cls-3" d="M493.03,242.78c-.28-2.56-.57-4.98-1-7.4-.43-2.28-.85-4.55-1.57-6.69-9.96-33.59-42.56-58.07-78.56-56.93h-1.14c-2.85.14-5.69.28-8.4.85-.57,0-1.14.14-1.71.28-2.13.14-4.13.57-6.12,1.14-.71,0-1.57.28-2.28.43-1.42.28-2.99.71-4.41,1.28-2.85.71-5.69,1.71-8.4,2.99-24.76,10.11-44.26,31.31-51.95,57.22-.43,1.14-.85,2.42-1.14,3.7-.28,1.42-.71,2.7-.85,4.13-.71,2.99-1.14,5.84-1.57,8.68,0,1-.14,1.99-.28,2.85-.14,2.42-.28,4.98-.28,7.4v.85c0,2.7.14,5.55.43,8.25,0,.85,0,1.57.14,2.42.14,1.28.43,2.56.71,3.84,0,1.14.28,2.14.57,3.27,7.12,32.31,34.87,57.36,67.75,61.2,2.85.28,5.55.43,8.4.43h.57c50.53,0,91.52-40.99,91.52-91.37,0-2.85-.14-5.84-.43-8.82ZM426.99,318.21c-32.17,0-57.93-28.32-57.93-63.48s25.76-63.34,57.93-63.34,57.79,28.47,57.79,63.34-25.9,63.48-57.79,63.48Z"/>
        <path class="cls-1" d="M426.99,191.4c-32.17,0-57.93,28.47-57.93,63.34s25.76,63.48,57.93,63.48,57.79-28.32,57.79-63.48-25.9-63.34-57.79-63.34ZM384.15,229.83c0-11.96,8.68-21.63,19.64-21.63,4.55,0,8.54,1.42,11.81,4.27,1.28,1,2.56,2.28,3.56,3.7,2.85,3.7,4.7,8.54,4.7,13.66,0,12.1-8.97,21.78-20.07,21.78-2.99,0-5.84-.71-8.4-2.13-1.57-.85-2.85-1.85-4.13-3.13-4.41-3.7-7.12-9.68-7.12-16.51ZM451.9,304.83c-3.7,0-6.83-2.13-8.82-5.12-.57-.85-1-1.85-1.28-2.85-.43-1.14-.57-2.42-.57-3.7,0-6.4,4.84-11.53,10.67-11.53,2.85,0,5.41,1.28,7.26,3.27,1,1,1.85,2.13,2.42,3.56.43,1.42,1,2.99,1,4.7,0,6.4-4.84,11.67-10.67,11.67Z"/>
        <path class="cls-3" d="M423.86,229.83c0,12.1-8.97,21.78-20.07,21.78-2.99,0-5.84-.71-8.4-2.13-1.57-.85-2.85-1.85-4.13-3.13-4.41-3.7-7.12-9.68-7.12-16.51,0-11.96,8.68-21.63,19.64-21.63,4.55,0,8.54,1.42,11.81,4.27,1.28,1,2.56,2.28,3.56,3.7,2.85,3.7,4.7,8.54,4.7,13.66Z"/>
        <path class="cls-3" d="M462.57,293.16c0,6.4-4.84,11.67-10.67,11.67-3.7,0-6.83-2.13-8.82-5.12-.57-.85-1-1.85-1.28-2.85-.43-1.14-.57-2.42-.57-3.7,0-6.4,4.84-11.53,10.67-11.53,2.85,0,5.41,1.28,7.26,3.27,1,1,1.85,2.13,2.42,3.56.43,1.42,1,2.99,1,4.7Z"/>
      </g>
      <path class="cls-5" d="M361.1,127.88c-1.67-.36-3.2-1.31-4.29-2.79-2.38-3.23-1.71-7.76,1.51-10.15,1.29-.96,32.07-23.29,71.7-7.68,3.74,1.47,5.58,5.7,4.11,9.44-1.47,3.74-5.69,5.57-9.43,4.11-31.93-12.54-56.69,5.08-57.73,5.84-1.75,1.28-3.89,1.67-5.86,1.24Z"/>
      <path class="cls-5" d="M469.12,256.02c0,11.1-3.7,21.35-9.96,28.89-1.85-1.99-4.41-3.27-7.26-3.27-5.84,0-10.67,5.12-10.67,11.53,0,1.28.14,2.56.57,3.7-3.13,1-6.4,1.57-9.68,1.57-20.5,0-37.15-18.93-37.15-42.41,0-2.28.14-4.41.43-6.55,2.56,1.42,5.41,2.13,8.4,2.13,11.1,0,20.07-9.68,20.07-21.78,0-5.12-1.85-9.96-4.7-13.66,3.98-1.57,8.4-2.56,12.95-2.56,20.35,0,37,18.93,37,42.41Z"/>
      <g>
        <path class="cls-5" d="M790.64,188.84c-3.7-1.42-7.97.43-9.39,4.13-.71,1.57-6.4,14.38-19.93,12.24-.14,0-.28-.14-.43,0-.43-1-1-1.99-1.71-2.99,7.69-2.85,12.38-9.25,14.09-13.52,1.57-3.7-.14-7.97-3.84-9.54-3.7-1.57-7.97.14-9.54,3.84-.57,1.14-3.56,6.97-10.39,5.98h-.14c-17.22-19.93-42.84-32.45-71.31-32.45s-52.09,11.53-69.31,30.03c-16.08,16.94-25.76,39.85-25.76,65.04,0,52.38,42.56,94.93,95.08,94.93,21.21,0,40.71-6.83,56.5-18.64,23.48-17.22,38.57-44.98,38.57-76.29,0-11.1-1.85-21.92-5.55-31.74,15.23-1.57,24.2-13.95,27.18-21.49,1.42-3.7-.43-7.97-4.13-9.54ZM756.62,263.56c0,2.7-.14,5.55-.43,8.25,0,.85,0,1.57-.14,2.42-.14,1.28-.43,2.56-.71,3.84,0,1.14-.28,2.14-.57,3.27-7.12,32.31-34.87,57.36-67.75,61.2-2.85.28-5.55.43-8.4.43h-.57c-50.53,0-91.52-40.99-91.52-91.37,0-2.85.14-5.84.43-8.82.28-2.56.57-4.98,1-7.4.43-2.28.85-4.55,1.57-6.69,9.96-33.59,42.56-58.07,78.57-56.93h1.14c2.85.14,5.69.28,8.4.85.57,0,1.14.14,1.71.28,2.14.14,4.13.57,6.12,1.14.71,0,1.57.28,2.28.43,1.42.28,2.99.71,4.41,1.28,2.85.71,5.69,1.71,8.4,2.99,24.76,10.11,44.26,31.31,51.95,57.22.43,1.14.85,2.42,1.14,3.7.28,1.42.71,2.7.85,4.13.71,2.99,1.14,5.84,1.57,8.68,0,1,.14,1.99.28,2.85.14,2.42.28,4.98.28,7.4v.85Z"/>
        <path class="cls-3" d="M756.34,255.3c-.14-.85-.28-1.85-.28-2.85-.43-2.85-.85-5.69-1.57-8.68-.14-1.42-.57-2.7-.85-4.13-.28-1.28-.71-2.56-1.14-3.7-7.69-25.9-27.19-47.11-51.95-57.22-2.7-1.28-5.55-2.28-8.4-2.99-1.42-.57-2.99-1-4.41-1.28-.71-.14-1.57-.43-2.28-.43-1.99-.57-3.98-1-6.12-1.14-.57-.14-1.14-.28-1.71-.28-2.7-.57-5.55-.71-8.4-.85h-1.14c-36.01-1.14-68.6,23.34-78.57,56.93-.71,2.14-1.14,4.41-1.57,6.69-.43,2.42-.71,4.84-1,7.4-.28,2.99-.43,5.98-.43,8.82,0,50.38,40.99,91.37,91.52,91.37h.57c2.85,0,5.55-.14,8.4-.43,32.88-3.84,60.63-28.89,67.75-61.2.28-1.14.57-2.14.57-3.27.28-1.28.57-2.56.71-3.84.14-.85.14-1.57.14-2.42.28-2.7.43-5.55.43-8.25v-.85c0-2.42-.14-4.98-.28-7.4ZM653.01,318.21c-31.88,0-57.79-28.32-57.79-63.48s25.9-63.34,57.79-63.34,57.93,28.47,57.93,63.34-25.76,63.48-57.93,63.48Z"/>
        <path class="cls-1" d="M653.01,191.4c-31.88,0-57.79,28.47-57.79,63.34s25.9,63.48,57.79,63.48,57.93-28.32,57.93-63.48-25.76-63.34-57.93-63.34ZM636.93,299.71c-1.99,2.99-5.12,5.12-8.82,5.12-5.84,0-10.67-5.27-10.67-11.67,0-1.71.57-3.27,1-4.7.57-1.42,1.42-2.56,2.42-3.56,1.85-1.99,4.41-3.27,7.26-3.27,5.84,0,10.67,5.12,10.67,11.53,0,1.28-.14,2.56-.57,3.7-.28,1-.71,1.99-1.28,2.85ZM688.73,246.34c-1.28,1.28-2.56,2.28-4.13,3.13-2.56,1.42-5.41,2.13-8.4,2.13-11.1,0-20.07-9.68-20.07-21.78,0-5.12,1.85-9.96,4.7-13.66,1-1.42,2.28-2.7,3.56-3.7,3.27-2.85,7.26-4.27,11.81-4.27,10.96,0,19.64,9.68,19.64,21.63,0,6.83-2.7,12.81-7.12,16.51Z"/>
        <path class="cls-3" d="M638.78,293.16c0,1.28-.14,2.56-.57,3.7-.28,1-.71,1.99-1.28,2.85-1.99,2.99-5.12,5.12-8.82,5.12-5.84,0-10.67-5.27-10.67-11.67,0-1.71.57-3.27,1-4.7.57-1.42,1.42-2.56,2.42-3.56,1.85-1.99,4.41-3.27,7.26-3.27,5.84,0,10.67,5.12,10.67,11.53Z"/>
        <path class="cls-3" d="M695.85,229.83c0,6.83-2.7,12.81-7.12,16.51-1.28,1.28-2.56,2.28-4.13,3.13-2.56,1.42-5.41,2.13-8.4,2.13-11.1,0-20.07-9.68-20.07-21.78,0-5.12,1.85-9.96,4.7-13.66,1-1.42,2.28-2.7,3.56-3.7,3.27-2.85,7.26-4.27,11.81-4.27,10.96,0,19.64,9.68,19.64,21.63Z"/>
      </g>
      <path class="cls-5" d="M718.95,127.88c1.67-.36,3.2-1.31,4.29-2.79,2.38-3.23,1.71-7.76-1.51-10.15-1.29-.96-32.07-23.29-71.7-7.68-3.74,1.47-5.58,5.7-4.11,9.44,1.47,3.74,5.69,5.57,9.43,4.11,31.93-12.54,56.69,5.08,57.73,5.84,1.75,1.28,3.89,1.67,5.86,1.24Z"/>
      <path class="cls-5" d="M685.03,256.02c0,23.48-16.65,42.41-37.15,42.41-3.27,0-6.55-.57-9.68-1.57.43-1.14.57-2.42.57-3.7,0-6.4-4.84-11.53-10.67-11.53-2.85,0-5.41,1.28-7.26,3.27-6.26-7.54-9.96-17.79-9.96-28.89,0-23.48,16.65-42.41,37.01-42.41,4.55,0,8.97,1,12.95,2.56-2.85,3.7-4.7,8.54-4.7,13.66,0,12.1,8.97,21.78,20.07,21.78,2.99,0,5.84-.71,8.4-2.13.28,2.13.43,4.27.43,6.55Z"/>
    </g>
  </g>
</svg>