<?xml version="1.0" encoding="UTF-8"?>
<svg id="Layer_1" data-name="Layer 1" xmlns="http://www.w3.org/2000/svg" xmlns:xlink="http://www.w3.org/1999/xlink" viewBox="0 0 824.41 1080">
  <defs>
    <style>
      .cls-1 {
        fill: url(#linear-gradient-2);
      }

      .cls-2 {
        fill: #f8c23e;
      }

      .cls-3 {
        fill: #ff7b6c;
      }

      .cls-4 {
        fill: #fff;
      }

      .cls-5 {
        fill: url(#linear-gradient-4);
      }

      .cls-6 {
        fill: url(#radial-gradient);
      }

      .cls-7 {
        fill: url(#radial-gradient-3);
      }

      .cls-8 {
        fill: url(#linear-gradient-3);
      }

      .cls-9 {
        fill: url(#linear-gradient-5);
      }

      .cls-10 {
        fill: #3bddd2;
      }

      .cls-11 {
        fill: url(#radial-gradient-2);
      }

      .cls-12 {
        fill: url(#linear-gradient-6);
      }

      .cls-13 {
        fill: #0274bb;
      }

      .cls-14 {
        fill: none;
        stroke: #6ff;
        stroke-miterlimit: 10;
        stroke-width: 2.35px;
      }

      .cls-15 {
        fill: #066391;
      }

      .cls-16 {
        fill: url(#linear-gradient);
      }

      .cls-17 {
        clip-path: url(#clippath);
      }

      .cls-18 {
        fill: #3e4b5b;
      }
    </style>
    <linearGradient id="linear-gradient" x1="-3239.73" y1="1011.45" x2="-3224.34" y2="675.05" gradientTransform="translate(-2745.34) rotate(-180) scale(1 -1)" gradientUnits="userSpaceOnUse">
      <stop offset="0" stop-color="#f8c23e"/>
      <stop offset=".89" stop-color="#fe8266"/>
      <stop offset="1" stop-color="#ff7b6c"/>
    </linearGradient>
    <linearGradient id="linear-gradient-2" x1="344.34" y1="1011.45" x2="359.73" y2="675.05" gradientTransform="matrix(1,0,0,1,0,0)" xlink:href="#linear-gradient"/>
    <radialGradient id="radial-gradient" cx="16.17" cy="985.71" fx="16.17" fy="985.71" r="238.11" gradientTransform="translate(218.08 -325.82) rotate(-12.41)" gradientUnits="userSpaceOnUse">
      <stop offset="0" stop-color="#ff7b6c"/>
      <stop offset=".11" stop-color="#fe8266"/>
      <stop offset="1" stop-color="#f8c23e"/>
    </radialGradient>
    <radialGradient id="radial-gradient-2" cx="-3471.15" cy="218.36" fx="-3471.15" fy="218.36" r="238.11" gradientTransform="translate(-2966.02 -325.82) rotate(-167.59) scale(1 -1)" xlink:href="#radial-gradient"/>
    <clipPath id="clippath">
      <path class="cls-13" d="M600.24,893.78c-10.66,5.11-19.46-8.52-31.26-8.52s-14.49,26.28-38.07,27.56c-23.58,1.42-20.88-18.47-42.05-18.47s-16.91,28.56-51.29,33.1c-34.52,4.4-35.38-18.61-64.93-27.7-29.41-9.09-26.28,14.92-52.28,14.92s-37.51-32.68-51.57-33.95c-13.92-1.42-30.57,19.92-38.1,11.61-7.03-7.76,28.67-67.35,48.21-131.49,20.79-68.26,25.96-141.37,33.58-152.65h200.6s8.09,78.49,32.39,150.39c23.3,68.94,63.04,131.32,54.77,135.22Z"/>
    </clipPath>
    <linearGradient id="linear-gradient-3" x1="410.14" y1="753.76" x2="423.63" y2="753.76" gradientUnits="userSpaceOnUse">
      <stop offset="0" stop-color="#8a4000"/>
      <stop offset=".36" stop-color="#c45904"/>
      <stop offset=".68" stop-color="#f8b133"/>
      <stop offset="1" stop-color="#fff5a6"/>
    </linearGradient>
    <linearGradient id="linear-gradient-4" x1="427.15" y1="744.94" x2="441.18" y2="744.94" xlink:href="#linear-gradient-3"/>
    <linearGradient id="linear-gradient-5" x1="-5551.91" x2="-5538.41" gradientTransform="translate(-5132.56) rotate(-180) scale(1 -1)" xlink:href="#linear-gradient-3"/>
    <linearGradient id="linear-gradient-6" x1="-5534.9" y1="744.94" x2="-5520.86" y2="744.94" gradientTransform="translate(-5132.56) rotate(-180) scale(1 -1)" xlink:href="#linear-gradient-3"/>
    <radialGradient id="radial-gradient-3" cx="414.6" cy="384.67" fx="414.6" fy="384.67" r="1028.66" gradientUnits="userSpaceOnUse">
      <stop offset="0" stop-color="#f8c23e"/>
      <stop offset=".89" stop-color="#fe8266"/>
      <stop offset="1" stop-color="#ff7b6c"/>
    </radialGradient>
  </defs>
  <path class="cls-16" d="M432.24,918.41c0,49.51,22.97,89.64,51.31,89.64,11.25,0,40.35,15.16,44.67,2.74,8.4-24.16-11.55-22.57-10.87-28.92,2.14-19.95,13.86-46.36,17.51-63.46,9.18-43.06,34.3-105.29-51.31-89.64-28.11,5.14-51.31,40.13-51.31,89.64Z"/>
  <path class="cls-13" d="M444.65,976.09l16.44,16.05,1.42,1.42c15.47-19.34,48.16-17.47,53.13-17.47s6.96,10.32,6.96,10.32c0,0,11.35,7.8,24.11,20.57,12.77,12.77,6.38,28.17-4.32,33.91-10.7,5.8-31.08,6.58-59.89,0-28.82-6.58-39.52-17.86-41.78-26.5-2.26-8.64,3.93-38.3,3.93-38.3ZM517.06,1009.04c23.85-6.19,2.06-22.63,2.06-22.63,0,0-25.72-4.58-45.9,13.35,0,0,19.99,15.41,43.84,9.28Z"/>
  <path class="cls-1" d="M406.48,918.41c0,49.51-22.97,89.64-51.31,89.64-11.25,0-40.35,15.16-44.67,2.74-8.4-24.16,11.55-22.57,10.87-28.92-2.14-19.95-13.86-46.36-17.51-63.46-9.18-43.06-34.3-105.29,51.31-89.64,28.11,5.14,51.31,40.13,51.31,89.64Z"/>
  <path class="cls-6" d="M327.15,585.67c-46.55,10.88-109.48,83.25-129.51,156.41-20.03,73.16,27.42,74.34,44.09,45.41,0,0,6.15,7.86,12.5,7.39,6.35-.47,15.28-5.94,13.23-22.82-2.05-16.88,53.04-125.04,53.04-125.04l6.64-61.36Z"/>
  <path class="cls-11" d="M495.66,585.67c46.55,10.88,109.48,83.25,129.51,156.41,20.03,73.16-27.42,74.34-44.09,45.41,0,0-6.15,7.86-12.5,7.39-6.35-.47-15.28-5.94-13.23-22.82,2.05-16.88-53.04-125.04-53.04-125.04l-6.64-61.36Z"/>
  <g>
    <path class="cls-13" d="M600.24,893.78c-10.66,5.11-19.46-8.52-31.26-8.52s-14.49,26.28-38.07,27.56c-23.58,1.42-20.88-18.47-42.05-18.47s-16.91,28.56-51.29,33.1c-34.52,4.4-35.38-18.61-64.93-27.7-29.41-9.09-26.28,14.92-52.28,14.92s-37.51-32.68-51.57-33.95c-13.92-1.42-30.57,19.92-38.1,11.61-7.03-7.76,28.67-67.35,48.21-131.49,20.79-68.26,25.96-141.37,33.58-152.65h200.6s8.09,78.49,32.39,150.39c23.3,68.94,63.04,131.32,54.77,135.22Z"/>
    <g class="cls-17">
      <path class="cls-15" d="M603.59,715.46c0,7.57-84.85,77.89-189.87,77.89s-190.44-70.31-190.44-77.89,85.42,50.46,190.44,50.46,189.87-58.03,189.87-50.46Z"/>
    </g>
  </g>
  <path class="cls-13" d="M394.07,976.09l-16.44,16.05-1.42,1.42c-15.47-19.34-48.16-17.47-53.13-17.47s-6.96,10.32-6.96,10.32c0,0-11.35,7.8-24.11,20.57-12.77,12.77-6.38,28.17,4.32,33.91,10.7,5.8,31.08,6.58,59.89,0,28.82-6.58,39.52-17.86,41.78-26.5,2.26-8.64-3.93-38.3-3.93-38.3ZM321.67,1009.04c-23.85-6.19-2.06-22.63-2.06-22.63,0,0,25.72-4.58,45.9,13.35,0,0-19.99,15.41-43.84,9.28Z"/>
  <path class="cls-2" d="M472.21,634.14c.44,17.01-28.34,30.82-63.3,30.82s-62.47-13.82-63.3-30.82c-3.97-81.59,26.7-76.22,61.66-76.22s62.76-7.42,64.94,76.22Z"/>
  <g>
    <polyline class="cls-14" points="330.51 609.79 410.14 679.86 482.46 606.57"/>
    <g>
      <g>
        <polygon class="cls-10" points="443.02 757.75 428.67 755.86 421.69 768.34 408.76 742.27 430.09 731.69 443.02 757.75"/>
        <g>
          <polygon class="cls-8" points="411.69 740.82 410.14 741.59 422.6 766.71 423.63 764.87 411.69 740.82"/>
          <polygon class="cls-5" points="441.18 757.51 428.71 732.37 427.15 733.15 439.11 757.23 441.18 757.51"/>
        </g>
      </g>
      <g>
        <polygon class="cls-10" points="386.46 757.75 400.81 755.86 407.79 768.34 420.73 742.27 399.4 731.69 386.46 757.75"/>
        <g>
          <polygon class="cls-9" points="417.79 740.82 419.35 741.59 406.88 766.71 405.85 764.87 417.79 740.82"/>
          <polygon class="cls-12" points="388.3 757.51 400.78 732.37 402.33 733.15 390.38 757.23 388.3 757.51"/>
        </g>
      </g>
    </g>
    <path class="cls-3" d="M458.82,705.18c0,2.87-3.91,5.32-4.44,8.04-.55,2.8,2.11,6.55,1.04,9.12-1.09,2.62-5.63,3.39-7.19,5.71-1.57,2.34-.55,6.84-2.54,8.83-1.99,1.99-6.48.97-8.83,2.54-2.33,1.56-3.1,6.11-5.71,7.19-2.57,1.07-6.33-1.59-9.12-1.04-2.71.54-5.17,4.44-8.04,4.44s-5.32-3.91-8.04-4.44c-2.8-.55-6.55,2.11-9.12,1.04-2.62-1.09-3.39-5.63-5.71-7.19-2.34-1.57-6.84-.55-8.83-2.54-1.99-1.99-.97-6.48-2.54-8.83-1.56-2.33-6.11-3.1-7.19-5.71-1.07-2.57,1.59-6.33,1.04-9.12-.54-2.71-4.44-5.16-4.44-8.04s3.91-5.32,4.44-8.04c.55-2.8-2.11-6.55-1.04-9.12,1.09-2.62,5.63-3.39,7.19-5.71,1.57-2.34.55-6.84,2.54-8.83,1.99-1.99,6.48-.97,8.83-2.54,2.33-1.56,3.1-6.11,5.71-7.19,2.57-1.07,6.33,1.59,9.12,1.04,2.71-.54,5.16-4.44,8.04-4.44s5.32,3.91,8.04,4.44c2.8.55,6.55-2.11,9.12-1.04,2.62,1.09,3.39,5.63,5.71,7.19,2.34,1.57,6.84.55,8.83,2.54,1.99,1.99.97,6.48,2.54,8.83,1.56,2.33,6.11,3.1,7.19,5.71,1.07,2.57-1.59,6.33-1.04,9.12.54,2.71,4.44,5.16,4.44,8.04Z"/>
    <circle class="cls-2" cx="413.99" cy="705.18" r="37.26"/>
  </g>
  <g>
    <g>
      <path class="cls-18" d="M83.07,482.35s-4.58,29.49,34.07,26.05c38.65-3.44,48.67-43.8,48.67-43.8l-41.45-24.91-41.28,42.65Z"/>
      <path class="cls-18" d="M118.57,367.84c-7.16,33.49-17.75,72.43-36.64,62.41-18.89-10.02,5.73-20.9,5.73-20.9,0,0-38.07-24.33-50.67,24.33-12.6,48.67,36.64,78.44,71.28,49.52,34.64-28.91,39.22-90.85,39.22-90.85l-28.91-24.52Z"/>
    </g>
    <g>
      <path class="cls-18" d="M736.75,482.25s4.58,29.49-34.07,26.05c-38.65-3.44-48.67-43.8-48.67-43.8l41.45-24.91,41.28,42.65Z"/>
      <path class="cls-18" d="M701.25,367.74c7.16,33.49,17.75,72.43,36.64,62.41s-5.73-20.9-5.73-20.9c0,0,38.07-24.33,50.67,24.33,12.6,48.67-36.64,78.44-71.28,49.52-34.64-28.91-39.22-90.85-39.22-90.85l28.91-24.52Z"/>
    </g>
    <path class="cls-7" d="M709.88,344.4c0,15.21-1.17,30.13-3.51,44.61-2.93,18.14-7.61,35.69-13.9,52.36-1.32,3.51-2.63,6.87-4.24,10.24-5.41,13.6-12.14,26.62-19.89,39.05-51.63,84.1-146.71,140.56-255.53,140.56s-206.82-58.21-257.87-144.66c-7.61-12.87-14.33-26.33-19.75-40.37-.29-.44-.44-.88-.59-1.46-8.78-22.52-14.63-46.22-17.26-71.09v-.15c-.88-9.51-1.46-19.31-1.46-29.11,0-27.94,4.1-55,11.85-80.59,35.98-119.21,150.07-206.38,285.08-206.38,105.46,0,198.05,52.95,250.7,132.96,29.4,44.47,46.37,97.27,46.37,154.02Z"/>
    <g>
      <path class="cls-18" d="M352.3,382.12c0,48.5-39.35,87.86-87.93,87.86-19.58,0-37.67-6.39-52.27-17.22-21.66-16.01-35.65-41.71-35.65-70.64,0-48.57,39.35-87.93,87.93-87.93,25.29,0,48.1,10.7,64.11,27.78,14.8,15.67,23.81,36.87,23.81,60.14Z"/>
      <path class="cls-4" d="M352.3,382.12c0,48.5-39.35,87.86-87.93,87.86-19.58,0-37.67-6.39-52.27-17.22-14.67-15.67-23.61-36.8-23.61-59.94,0-48.57,39.35-87.92,87.93-87.92,19.44,0,37.47,6.32,52.07,17.09,14.8,15.67,23.81,36.87,23.81,60.14Z"/>
      <g>
        <ellipse class="cls-2" cx="289.83" cy="375.21" rx="57.46" ry="62.95"/>
        <ellipse class="cls-18" cx="295.55" cy="375.21" rx="41.94" ry="45.95"/>
        <ellipse class="cls-4" cx="266.95" cy="350.42" rx="19.71" ry="21.59"/>
        <ellipse class="cls-4" cx="314.62" cy="413.35" rx="10.49" ry="11.49"/>
      </g>
      <path class="cls-18" d="M184.53,352.95c-15.77,0-25.14-12.67-28.05-20.04-1.37-3.46.33-7.36,3.78-8.73,3.4-1.35,7.33.31,8.71,3.75.58,1.41,5.96,13.35,18.43,11.33,3.74-.62,7.13,1.9,7.73,5.56.6,3.67-1.89,7.12-5.56,7.72-1.75.29-3.43.42-5.05.42Z"/>
      <path class="cls-18" d="M196.68,337.82c-11.45,0-18.28-8.75-20.41-13.85-1.44-3.43.18-7.37,3.6-8.8,3.42-1.42,7.33.16,8.78,3.55.51,1.12,3.37,6.48,9.61,5.53,3.73-.57,7.11,1.95,7.67,5.63.56,3.67-1.95,7.1-5.62,7.67-1.26.19-2.47.28-3.63.28Z"/>
    </g>
    <g>
      <path class="cls-18" d="M466.89,382.12c0,48.5,39.35,87.86,87.93,87.86,19.58,0,37.67-6.39,52.27-17.22,21.66-16.01,35.65-41.71,35.65-70.64,0-48.57-39.35-87.93-87.93-87.93-25.29,0-48.1,10.7-64.11,27.78-14.8,15.67-23.81,36.87-23.81,60.14Z"/>
      <path class="cls-4" d="M466.89,382.12c0,48.5,39.35,87.86,87.93,87.86,19.58,0,37.67-6.39,52.27-17.22,14.67-15.67,23.61-36.8,23.61-59.94,0-48.57-39.35-87.92-87.93-87.92-19.44,0-37.47,6.32-52.07,17.09-14.8,15.67-23.81,36.87-23.81,60.14Z"/>
      <g>
        <ellipse class="cls-2" cx="529.36" cy="375.21" rx="57.46" ry="62.95"/>
        <ellipse class="cls-18" cx="523.64" cy="375.21" rx="41.94" ry="45.95"/>
        <ellipse class="cls-4" cx="552.24" cy="350.42" rx="19.71" ry="21.59"/>
        <ellipse class="cls-4" cx="504.57" cy="413.35" rx="10.49" ry="11.49"/>
      </g>
      <path class="cls-18" d="M634.66,352.95c15.77,0,25.14-12.67,28.05-20.04,1.37-3.46-.33-7.36-3.78-8.73-3.4-1.35-7.33.31-8.71,3.75-.58,1.41-5.96,13.35-18.43,11.33-3.74-.62-7.13,1.9-7.73,5.56-.6,3.67,1.89,7.12,5.56,7.72,1.75.29,3.43.42,5.05.42Z"/>
      <path class="cls-18" d="M622.52,337.82c11.45,0,18.28-8.75,20.41-13.85,1.44-3.43-.18-7.37-3.6-8.8-3.42-1.42-7.33.16-8.78,3.55-.51,1.12-3.37,6.48-9.61,5.53-3.73-.57-7.11,1.95-7.67,5.63-.56,3.67,1.95,7.1,5.62,7.67,1.26.19,2.47.28,3.63.28Z"/>
    </g>
    <path class="cls-18" d="M356.52,458.57c6.28-12.59,21.15,9.63,55.56,9.02,36.33-.64,49.49-20.61,57.59-9.45,11.49,15.84-12.64,61.71-52.39,62.26-45.95.64-70.69-41.93-60.76-61.83Z"/>
    <path class="cls-3" d="M387.3,505.11c-1.38-1.27-1.34-3.44.1-4.64,4.91-4.12,14.35-12.61,29.38-12.9,18.78-.36,25.92,5.33,32.55,8.29,2.02.9,2.49,3.53.89,5.07-5.06,4.85-15.92,13.57-29,13.98-19.73.62-29.81-6.02-33.92-9.8Z"/>
    <path class="cls-18" d="M229.56,274.15c-1.58,0-3.15-.55-4.43-1.67-2.79-2.45-3.08-6.67-.64-9.46.97-1.12,24.36-27.38,63.24-21.12,3.67.59,6.17,4.04,5.58,7.71-.59,3.67-4.04,6.15-7.71,5.57-31.32-5.01-50.2,15.8-50.99,16.69-1.33,1.5-3.19,2.28-5.05,2.28Z"/>
    <path class="cls-18" d="M596.36,270.19c1.58,0,3.15-.55,4.43-1.67,2.79-2.45,3.08-6.67.64-9.46-.97-1.12-24.36-27.38-63.24-21.12-3.67.59-6.17,4.04-5.58,7.71.59,3.67,4.04,6.15,7.71,5.57,31.32-5.01,50.2,15.8,50.99,16.69,1.33,1.5,3.19,2.28,5.05,2.28Z"/>
    <path class="cls-18" d="M109.83,401.86S27.47,54.94,388.89,35.33c361.42-19.61,332.64,299.55,320.99,366.53,0,0-81.98-348.79-461.04-287.17-54.86,8.92-132.96,316.41-132.96,316.41l-6.06-29.24Z"/>
  </g>
</svg>