<?xml version="1.0" encoding="UTF-8"?>
<svg id="Layer_1" data-name="Layer 1" xmlns="http://www.w3.org/2000/svg" viewBox="0 0 1080 256.07">
  <defs>
    <style>
      .cls-1 {
        fill: #f8c23e;
      }

      .cls-2 {
        fill: #ff7b6c;
      }

      .cls-3 {
        fill: #0274bb;
      }
    </style>
  </defs>
  <rect class="cls-1" x="-6.17" y="-7.62" width="1086.18" height="263.69"/>
  <g>
    <path class="cls-2" d="M115.36,231.71c-84.02,0-104.53-20.51-104.53-104.53S31.35,22.66,115.36,22.66s104.53,20.51,104.53,104.53-20.51,104.53-104.53,104.53ZM115.36,36.01c-76.69,0-91.18,14.48-91.18,91.18s14.48,91.18,91.18,91.18,91.18-14.48,91.18-91.18-14.48-91.18-91.18-91.18Z"/>
    <path class="cls-2" d="M667.23,235.88c-5.89,0-10.51-3.7-14.21-6.67-1.85-1.48-4.15-3.32-5.37-3.57-1.36-.28-4.29.58-6.64,1.26-4.73,1.37-10.09,2.93-15.39.72-5.38-2.23-8.2-7.38-10.48-11.53-1.16-2.11-2.59-4.73-3.68-5.45-1.11-.75-4.11-1.08-6.52-1.35-4.67-.52-10.48-1.17-14.57-5.25-4.09-4.09-4.74-9.9-5.25-14.58-.27-2.41-.6-5.41-1.35-6.52-.72-1.08-3.34-2.52-5.45-3.67-4.14-2.27-9.3-5.1-11.53-10.48-2.2-5.3-.65-10.66.73-15.38.68-2.35,1.53-5.28,1.26-6.64-.24-1.23-2.09-3.53-3.57-5.37-2.97-3.71-6.67-8.32-6.67-14.21s3.7-10.5,6.67-14.21c1.48-1.85,3.33-4.15,3.57-5.37.27-1.37-.58-4.29-1.26-6.64-1.37-4.73-2.92-10.09-.73-15.39,2.23-5.38,7.39-8.21,11.53-10.48,2.11-1.15,4.73-2.59,5.45-3.67.75-1.11,1.08-4.11,1.35-6.52.52-4.67,1.17-10.49,5.25-14.57,4.09-4.08,9.9-4.73,14.57-5.25,2.41-.27,5.41-.6,6.52-1.35,1.08-.72,2.52-3.35,3.68-5.45,2.27-4.14,5.1-9.3,10.48-11.53,5.3-2.2,10.66-.65,15.39.73,2.35.68,5.28,1.53,6.64,1.26,1.22-.24,3.52-2.09,5.37-3.57,3.71-2.97,8.32-6.67,14.21-6.67s10.51,3.7,14.21,6.67c1.85,1.48,4.15,3.33,5.37,3.57,1.34.26,4.28-.58,6.63-1.26,4.73-1.37,10.09-2.93,15.39-.72,5.38,2.23,8.21,7.38,10.48,11.52,1.15,2.11,2.59,4.73,3.68,5.46,1.11.75,4.11,1.08,6.52,1.35,4.67.52,10.48,1.17,14.57,5.25,4.09,4.08,4.74,9.9,5.25,14.57.27,2.41.6,5.41,1.35,6.52.72,1.08,3.34,2.52,5.45,3.67,4.14,2.27,9.3,5.1,11.53,10.49,2.2,5.3.64,10.66-.73,15.39-.68,2.35-1.53,5.27-1.26,6.64.24,1.22,2.09,3.52,3.57,5.37,2.97,3.71,6.67,8.32,6.67,14.21s-3.7,10.51-6.67,14.21c-1.48,1.85-3.33,4.15-3.57,5.37-.27,1.36.58,4.28,1.26,6.63,1.37,4.73,2.92,10.09.73,15.39-2.23,5.38-7.39,8.21-11.53,10.48-2.11,1.16-4.73,2.59-5.46,3.68-.74,1.11-1.08,4.11-1.34,6.52-.52,4.67-1.17,10.49-5.25,14.57-4.09,4.08-9.9,4.73-14.57,5.25-2.41.27-5.41.6-6.53,1.35-1.08.72-2.52,3.34-3.67,5.45-2.27,4.15-5.1,9.3-10.49,11.53-5.3,2.2-10.66.65-15.39-.73-2.35-.68-5.25-1.54-6.64-1.26-1.22.24-3.52,2.09-5.37,3.57-3.71,2.97-8.32,6.67-14.21,6.67ZM647.06,212.24c1.05,0,2.12.09,3.18.3,4.43.88,7.99,3.73,11.13,6.25,1.86,1.49,4.66,3.74,5.86,3.74s4.01-2.25,5.86-3.74c3.14-2.52,6.7-5.37,11.13-6.25,4.56-.9,9.01.39,12.94,1.53,2.09.61,5.59,1.61,6.55,1.22,1.06-.44,2.84-3.68,3.9-5.62,1.95-3.55,4.16-7.58,7.95-10.12,3.83-2.56,8.42-3.07,12.48-3.53,2.18-.24,5.83-.65,6.61-1.42.78-.77,1.18-4.42,1.42-6.61.45-4.05.96-8.65,3.52-12.47,2.54-3.79,6.57-6,10.13-7.95,1.94-1.07,5.19-2.85,5.62-3.89.4-.97-.61-4.47-1.22-6.56-1.14-3.93-2.43-8.4-1.54-12.94.88-4.43,3.73-7.99,6.25-11.13,1.49-1.86,3.74-4.66,3.74-5.86s-2.25-4.01-3.74-5.86c-2.52-3.14-5.37-6.7-6.25-11.13-.9-4.55.39-9.01,1.54-12.95.61-2.09,1.62-5.59,1.22-6.55-.43-1.05-3.68-2.83-5.62-3.9-3.56-1.95-7.58-4.16-10.12-7.95-2.56-3.82-3.07-8.42-3.52-12.47-.24-2.18-.65-5.83-1.42-6.61-.78-.78-4.43-1.19-6.61-1.43-4.05-.45-8.65-.96-12.47-3.52-3.79-2.54-6.01-6.57-7.96-10.13-1.07-1.94-2.84-5.18-3.89-5.61-.98-.41-4.47.61-6.56,1.22-3.93,1.14-8.4,2.43-12.94,1.53-4.43-.88-7.99-3.73-11.13-6.25-1.86-1.49-4.66-3.74-5.86-3.74s-4.01,2.25-5.86,3.74c-3.14,2.52-6.7,5.37-11.12,6.25-4.56.9-9.01-.39-12.95-1.53-2.09-.61-5.6-1.6-6.56-1.22-1.05.44-2.83,3.68-3.89,5.62-1.95,3.56-4.16,7.59-7.96,10.13-3.82,2.56-8.42,3.07-12.47,3.52-2.18.24-5.83.65-6.61,1.42s-1.18,4.43-1.42,6.61c-.45,4.05-.96,8.65-3.52,12.47-2.54,3.79-6.57,6-10.12,7.95-1.94,1.07-5.19,2.85-5.62,3.89-.4.97.61,4.47,1.22,6.56,1.14,3.93,2.43,8.4,1.53,12.95-.87,4.43-3.73,7.99-6.25,11.13-1.49,1.86-3.74,4.66-3.74,5.86s2.25,4,3.74,5.86c2.52,3.14,5.37,6.7,6.25,11.13.9,4.55-.39,9.01-1.53,12.95-.61,2.09-1.62,5.59-1.22,6.55.43,1.05,3.68,2.83,5.62,3.89,3.56,1.95,7.59,4.16,10.13,7.96,2.56,3.82,3.07,8.42,3.52,12.47.24,2.18.65,5.83,1.42,6.61.78.77,4.43,1.18,6.61,1.42,4.05.45,8.65.96,12.47,3.52,3.79,2.54,6,6.57,7.96,10.13,1.06,1.94,2.84,5.18,3.89,5.62.98.42,4.48-.61,6.56-1.22,3.01-.87,6.33-1.84,9.76-1.84Z"/>
    <g>
      <path class="cls-3" d="M305.41,126.31c-1.75,0-3.2-.22-4.36-.66-1.16-.44-2.08-1.22-2.77-2.34-.69-1.13-1.17-2.66-1.45-4.59-.28-1.94-.42-4.41-.42-7.4s.01-6.19.05-9.38c.03-3.18.05-6.31.05-9.37,0-6.19.15-12.34.47-18.47.31-6.12.47-12.28.47-18.47v-10.59c0-2.19.59-3.72,1.78-4.59,1.19-.88,2.66-1.31,4.41-1.31,2,0,3.5.13,4.5.38,1,.25,1.69.61,2.06,1.08.37.47.56,1.08.56,1.83v2.72c0,.38.05.62.14.75.09.13.33.19.7.19,3.37,0,6.64.27,9.8.8,3.16.53,5.98,1.47,8.48,2.81,2.5,1.35,4.5,3.19,6,5.53,1.5,2.34,2.25,5.33,2.25,8.95,0,2.75-.38,5.08-1.13,6.98-.75,1.91-1.67,3.5-2.76,4.78-1.09,1.28-2.3,2.3-3.61,3.05-1.31.75-2.52,1.38-3.61,1.87-1.09.5-2.02.91-2.76,1.22-.75.31-1.13.69-1.13,1.12,0,.13.44.23,1.31.33s1.95.31,3.23.66c1.28.34,2.67.88,4.17,1.59s2.89,1.8,4.17,3.23c1.28,1.44,2.36,3.31,3.23,5.63.88,2.31,1.31,5.19,1.31,8.62,0,5.31-1.08,9.51-3.23,12.61-2.16,3.09-4.92,5.41-8.29,6.94-3.38,1.53-7.14,2.5-11.29,2.91-4.16.41-8.27.61-12.33.61ZM309.16,73.82c0,.69.15,1.33.47,1.92s.88.89,1.69.89c1.81,0,3.65-.34,5.53-1.03,1.87-.69,3.58-1.58,5.11-2.67,1.53-1.09,2.8-2.34,3.8-3.75,1-1.4,1.5-2.86,1.5-4.36,0-2-.51-3.59-1.55-4.78-1.03-1.19-2.33-2.11-3.89-2.76-1.56-.66-3.25-1.09-5.06-1.31-1.81-.22-3.5-.33-5.06-.33-.69,0-1.16.2-1.41.61-.25.41-.44.95-.56,1.64-.38,2.44-.56,5.08-.56,7.92v8.02ZM312.07,114.87c3.12,0,5.75-.3,7.87-.89,2.12-.59,3.84-1.42,5.15-2.48,1.31-1.06,2.25-2.36,2.81-3.89.56-1.53.85-3.23.85-5.11,0-2.44-.66-4.56-1.97-6.37-1.31-1.81-2.81-3.31-4.5-4.5-1.69-1.19-3.36-2.06-5.01-2.63-1.66-.56-2.86-.84-3.61-.84-.38,0-.81.02-1.31.05-.5.03-.98.13-1.45.28-.47.16-.88.39-1.22.7s-.51.75-.51,1.31v16.31c0,1.19.06,2.37.19,3.56.12,1.19.41,2.24.85,3.14.44.9,1.06,1.36,1.87,1.36Z"/>
      <path class="cls-3" d="M343.56,90.03c0-2.75.36-5.45,1.08-8.11.72-2.66,1.81-5.01,3.28-7.08,1.47-2.06,3.33-3.72,5.58-4.97,2.25-1.25,4.94-1.87,8.06-1.87,1.13,0,2.24.09,3.33.28,1.09.19,2.17.28,3.23.28,1.56,0,2.34-.78,2.34-2.34v-5.67c0-1.72-.16-3.22-.47-4.5-.31-1.28-.85-2.28-1.59-3-.75-.72-1.84-1.08-3.28-1.08-.94,0-1.73.17-2.39.51-.66.35-1.24.8-1.74,1.36s-.9,1.17-1.22,1.83-.56,1.3-.75,1.92c-.31,1-.75,1.61-1.31,1.83-.56.22-1.28.33-2.16.33-.75,0-1.47-.04-2.16-.14s-1.3-.3-1.83-.61c-.53-.31-.95-.73-1.27-1.27-.31-.53-.47-1.27-.47-2.2,0-1.94.45-3.75,1.36-5.44.9-1.69,2.08-3.16,3.52-4.41,1.44-1.25,3.05-2.23,4.83-2.95,1.78-.72,3.55-1.08,5.3-1.08,4.25,0,7.61.62,10.08,1.87,2.47,1.25,4.33,3.02,5.58,5.3,1.25,2.28,2.06,5.03,2.44,8.25.38,3.22.56,6.83.56,10.83,0,3.19-.05,6.41-.14,9.66-.09,3.25-.14,6.47-.14,9.65,0,.69-.02,1.5-.05,2.44-.03.94-.05,1.87-.05,2.81v2.72c0,.88.03,1.59.09,2.16.06.38.22.88.47,1.5.25.63.51,1.25.8,1.87.28.63.53,1.17.75,1.64.22.47.33.77.33.89,0,.94-.31,1.74-.94,2.39s-1.37,1.19-2.25,1.59c-.88.41-1.77.7-2.67.89-.91.19-1.67.28-2.3.28-.88,0-1.66-.41-2.34-1.22-.69-.81-1.27-1.77-1.74-2.86-.47-1.09-.83-2.22-1.08-3.37-.25-1.16-.37-2.05-.37-2.67-.88,2.75-2.53,4.92-4.97,6.51-2.44,1.59-5.06,2.39-7.87,2.39-2.25,0-4.31-.5-6.19-1.5-1.87-1-3.5-2.31-4.87-3.94-1.38-1.62-2.45-3.45-3.23-5.48-.78-2.03-1.17-4.11-1.17-6.23ZM349.84,124.53c-.94,0-1.74-.52-2.39-1.55-.66-1.03-.98-2.33-.98-3.89,0-3.62,1.09-5.44,3.28-5.44,1.12,0,2.55.02,4.26.05,1.72.03,3.59.05,5.62.05s4.14.03,6.33.09c2.19.06,4.31.09,6.37.09s3.97.02,5.72.05c1.75.03,3.22.05,4.41.05.75,0,1.34.19,1.78.56s.78.85,1.03,1.41c.25.56.41,1.17.47,1.83.06.66.09,1.27.09,1.83s-.03,1.13-.09,1.69c-.06.56-.22,1.09-.47,1.59-.25.5-.58.9-.98,1.22-.41.31-.98.47-1.73.47h-7.08c-2.97,0-6.05-.01-9.23-.04-3.18-.03-6.27-.05-9.23-.05h-7.17ZM369.71,80.28c0-.38-.19-.67-.56-.89s-.8-.38-1.27-.47c-.47-.09-.95-.15-1.45-.19-.5-.03-.88-.05-1.13-.05-3.75,0-6.44.91-8.06,2.72-1.63,1.81-2.44,4.28-2.44,7.4,0,1.94.51,3.61,1.55,5.01,1.03,1.41,2.61,2.11,4.73,2.11,1.44,0,2.69-.59,3.75-1.78,1.06-1.19,1.95-2.61,2.67-4.26s1.27-3.38,1.64-5.16c.38-1.78.56-3.26.56-4.45Z"/>
      <path class="cls-3" d="M413.02,127.24c-3.69,0-6.78-.3-9.28-.89-2.5-.59-4.51-1.48-6.05-2.67-1.53-1.19-2.62-2.62-3.28-4.31s-.98-3.62-.98-5.81c0-11-.14-21.87-.42-32.62-.28-10.75-.42-21.65-.42-32.71,0-2.06.11-3.75.33-5.06.22-1.31.62-2.36,1.22-3.14.59-.78,1.44-1.33,2.53-1.64,1.09-.31,2.51-.47,4.26-.47,1.25,0,2.22.17,2.91.51.69.35,1.2.94,1.55,1.78.34.85.55,1.95.61,3.33.06,1.37.09,3.06.09,5.06,0,1.81-.02,3.89-.05,6.23-.03,2.34-.05,4.59-.05,6.75s.01,4.06.05,5.72c.03,1.66.08,2.67.14,3.05.38-1,.89-2.17,1.55-3.52.65-1.34,1.55-2.63,2.67-3.84,1.12-1.22,2.53-2.25,4.22-3.09,1.69-.84,3.75-1.27,6.19-1.27,5.69,0,10.11,2.78,13.26,8.34,3.16,5.56,4.73,14.09,4.73,25.59,0,4.31-.45,8.55-1.36,12.7-.91,4.16-2.36,7.86-4.36,11.11-2,3.25-4.64,5.87-7.92,7.87-3.28,2-7.33,3-12.14,3ZM418.55,71.85c-1.69,0-3.25,1.08-4.69,3.23-1.44,2.16-2.67,4.92-3.7,8.29-1.03,3.38-1.84,7.11-2.44,11.2-.6,4.09-.89,8.05-.89,11.86,0,1.31.14,2.56.42,3.75.28,1.19.7,2.25,1.27,3.19s1.31,1.69,2.25,2.25c.94.56,2.06.84,3.37.84,1.56,0,2.94-.42,4.12-1.27,1.19-.84,2.22-1.97,3.09-3.37.88-1.41,1.59-2.97,2.16-4.69.56-1.72,1.02-3.47,1.36-5.25.34-1.78.58-3.48.7-5.11.12-1.63.19-3.03.19-4.22,0-2.62-.14-5.19-.42-7.68-.28-2.5-.72-4.7-1.31-6.61-.59-1.91-1.35-3.45-2.25-4.64-.91-1.19-1.98-1.78-3.23-1.78Z"/>
      <path class="cls-3" d="M458.67,96.87c-3.44,0-6.25-.67-8.44-2.01-2.19-1.34-3.91-3.14-5.15-5.39-1.25-2.25-2.13-4.86-2.63-7.83-.5-2.97-.75-6.11-.75-9.42,0-3.69.03-7.19.09-10.5.06-3.31.09-6.78.09-10.4,0-.81.09-1.64.28-2.48s.55-1.59,1.08-2.25c.53-.66,1.25-1.19,2.16-1.59.9-.41,2.05-.61,3.42-.61,1.5,0,2.61.19,3.33.56.72.38,1.22.86,1.5,1.45.28.59.41,1.28.38,2.06-.03.78-.05,1.58-.05,2.39v21.75c0,4.44.7,7.79,2.11,10.08,1.4,2.28,3.26,3.42,5.58,3.42,1.69,0,3.13-.41,4.31-1.22,1.19-.81,2.16-1.92,2.91-3.33.75-1.4,1.28-3.06,1.59-4.97.31-1.9.47-3.98.47-6.23v-14.72c0-1.81.11-3.34.33-4.59.22-1.25.61-2.25,1.17-3,.56-.75,1.3-1.28,2.2-1.59.9-.31,2.05-.47,3.42-.47,2,0,3.42.42,4.26,1.27.85.84,1.27,2.08,1.27,3.7v54.46c0,3.81-.55,7.11-1.64,9.89-1.09,2.78-2.6,5.08-4.5,6.89-1.91,1.81-4.2,3.14-6.89,3.98-2.69.85-5.62,1.27-8.81,1.27-2.94,0-5.62-.44-8.06-1.31-2.44-.88-4.54-2.11-6.33-3.7-1.78-1.59-3.17-3.47-4.17-5.62-1-2.16-1.5-4.54-1.5-7.17s.5-4.75,1.5-6.37c1-1.62,2.75-2.44,5.25-2.44,2.19,0,3.65.41,4.41,1.22.75.81,1.12,2.28,1.12,4.41,0,1.37.14,2.72.42,4.03s.72,2.47,1.31,3.47c.59,1,1.39,1.8,2.39,2.39s2.25.89,3.75.89c3.5,0,6.06-.98,7.69-2.95,1.62-1.97,2.44-4.86,2.44-8.67v-11.06c0-.31-.25-.47-.75-.47-.56,0-1.33.14-2.3.42-.97.28-2.03.61-3.19.98-1.16.38-2.36.7-3.61.98-1.25.28-2.41.42-3.47.42Z"/>
      <path class="cls-3" d="M324.21,147.55c0,1.81-.13,3.23-.38,4.27-.25,1.03-.61,1.78-1.08,2.25s-1.08.75-1.83.84-1.63.14-2.63.14c-1.63,0-2.73-.66-3.33-1.97s-.89-3.06-.89-5.25c0-2.44-.89-4.19-2.67-5.25-1.78-1.06-3.95-1.59-6.51-1.59-1.87,0-3.49.36-4.83,1.08-1.35.72-2.45,1.64-3.33,2.76s-1.52,2.38-1.92,3.75c-.41,1.37-.61,2.72-.61,4.03,0,2.81.8,5.08,2.39,6.8s3.59,3.22,6,4.5c2.41,1.28,5.01,2.52,7.83,3.7s5.42,2.66,7.83,4.41c2.4,1.75,4.41,3.97,6,6.66,1.59,2.69,2.39,6.16,2.39,10.4,0,3.18-.63,6.16-1.87,8.9-1.25,2.75-2.99,5.16-5.2,7.22-2.22,2.06-4.84,3.69-7.87,4.88-3.03,1.19-6.33,1.78-9.89,1.78-3.06,0-5.92-.53-8.58-1.59-2.66-1.06-4.97-2.48-6.94-4.26-1.97-1.78-3.52-3.86-4.64-6.23-1.13-2.37-1.69-4.91-1.69-7.59,0-3.38.42-5.69,1.27-6.94.84-1.25,2.3-1.87,4.36-1.87s3.34.41,4.03,1.22c.69.81,1.03,2.44,1.03,4.87,0,1.44.3,2.8.89,4.08.59,1.28,1.37,2.39,2.34,3.33.97.94,2.08,1.69,3.33,2.25,1.25.56,2.53.84,3.84.84,1.62,0,3.2-.23,4.73-.7,1.53-.47,2.91-1.14,4.12-2.01s2.19-1.92,2.91-3.14c.72-1.22,1.08-2.55,1.08-3.99,0-2.69-.8-4.87-2.39-6.56s-3.58-3.2-5.95-4.54c-2.38-1.35-4.95-2.66-7.73-3.94-2.78-1.28-5.36-2.83-7.73-4.64-2.38-1.81-4.36-4.02-5.95-6.61-1.59-2.59-2.39-5.89-2.39-9.89,0-3.19.56-6.23,1.69-9.14,1.13-2.91,2.7-5.47,4.73-7.68,2.03-2.22,4.47-3.99,7.31-5.3,2.84-1.31,5.98-1.97,9.42-1.97,3.12,0,5.89.47,8.3,1.4,2.4.94,4.42,2.22,6.04,3.84,1.63,1.63,2.86,3.5,3.7,5.62.84,2.13,1.27,4.41,1.27,6.84Z"/>
      <path class="cls-3" d="M331.52,191.42c0-3.69-.01-7.97-.04-12.84-.03-4.88-.06-9.84-.09-14.9-.03-5.06-.06-9.98-.09-14.76s-.05-8.92-.05-12.42c0-1.63.44-2.98,1.31-4.08.88-1.09,2.69-1.64,5.44-1.64,2.25,0,3.86.44,4.83,1.31.97.88,1.45,2.5,1.45,4.87,0,.94-.01,1.86-.05,2.76-.03.91-.05,1.74-.05,2.48,0,.63.17,1.02.52,1.17.34.16.95.23,1.83.23,1.12,0,2.58-.03,4.36-.09,1.78-.06,3.92-.09,6.42-.09.81,0,1.56.03,2.25.09.69.06,1.3.23,1.83.52.53.28.95.75,1.27,1.4.31.66.47,1.61.47,2.86,0,1.81-.44,3.19-1.31,4.12-.88.94-2,1.4-3.37,1.4h-11.34c-1.25,0-2.03.22-2.34.66-.31.44-.47.91-.47,1.41v31.21c0,5.19.31,8.89.94,11.11.62,2.22,1.72,3.33,3.28,3.33,1.06,0,1.93-.55,2.62-1.64.69-1.09,1.22-2.53,1.59-4.31.38-1.78.64-3.81.8-6.09.15-2.28.23-4.58.23-6.89,0-.44-.02-1.05-.05-1.83-.03-.78.08-1.56.33-2.34.25-.78.69-1.45,1.31-2.01.62-.56,1.62-.85,3-.85,1.56,0,2.72.22,3.47.66.75.44,1.27.97,1.55,1.59.28.63.42,1.3.42,2.02v1.83c0,4.12-.19,8.08-.56,11.86-.38,3.78-1.09,7.11-2.16,9.98-1.06,2.87-2.6,5.17-4.59,6.89-2,1.72-4.62,2.58-7.87,2.58-6.31,0-10.73-1.83-13.26-5.48-2.53-3.65-3.8-9.01-3.8-16.08Z"/>
      <path class="cls-3" d="M388.79,194.8c-3.75,0-7-.73-9.75-2.2-2.75-1.47-5.02-3.47-6.8-6-1.78-2.53-3.11-5.51-3.98-8.95-.88-3.44-1.31-7.13-1.31-11.06,0-4.44.39-8.76,1.17-12.98.78-4.22,2.11-7.97,3.99-11.25,1.87-3.28,4.36-5.92,7.45-7.92,3.09-2,6.92-3,11.48-3,2.56,0,4.84.55,6.84,1.64,2,1.09,3.68,2.53,5.06,4.31,1.37,1.78,2.4,3.84,3.09,6.19.69,2.34,1.03,4.77,1.03,7.26,0,2.94-.47,5.64-1.41,8.11-.94,2.47-2.25,4.59-3.94,6.37-1.69,1.78-3.69,3.17-6,4.17-2.31,1-4.85,1.5-7.59,1.5-1.81,0-3.38-.25-4.69-.75-1.31-.5-2.53-1.15-3.66-1.97,0,.62.11,1.77.33,3.42.22,1.66.64,3.37,1.27,5.15.62,1.78,1.53,3.36,2.72,4.73,1.19,1.38,2.81,2.06,4.88,2.06,1.81,0,3.22-.14,4.22-.42,1-.28,1.73-.67,2.2-1.17.47-.5.76-1.11.89-1.83.12-.72.19-1.55.19-2.48,0-.75.03-1.42.09-2.02.06-.59.25-1.09.56-1.5s.84-.72,1.59-.94,1.78-.33,3.09-.33,2.33.22,3.05.66c.72.44,1.23.94,1.55,1.5.31.56.5,1.12.56,1.69.06.56.09,1,.09,1.31,0,2.38-.39,4.58-1.17,6.61-.78,2.03-1.95,3.8-3.52,5.3-1.56,1.5-3.47,2.67-5.72,3.51-2.25.85-4.88,1.27-7.87,1.27ZM372.48,210.45c-.94,0-1.73-.52-2.39-1.55-.66-1.03-.98-2.33-.98-3.89,0-3.62,1.09-5.44,3.28-5.44,1.12,0,2.55.02,4.26.05,1.72.03,3.59.05,5.62.05s4.14.03,6.33.09c2.19.06,4.31.09,6.37.09s3.97.02,5.72.05c1.75.03,3.22.05,4.41.05.75,0,1.34.19,1.78.56s.78.85,1.03,1.41c.25.56.41,1.17.47,1.83s.09,1.27.09,1.83-.03,1.13-.09,1.69-.22,1.09-.47,1.59c-.25.5-.58.9-.98,1.22-.41.31-.98.47-1.74.47h-7.08c-2.97,0-6.05-.01-9.23-.04-3.19-.03-6.27-.05-9.23-.05h-7.17ZM379.79,155.8c0,.75.28,1.45.84,2.11.56.65,1.24,1.22,2.02,1.69.78.47,1.62.84,2.53,1.13.9.28,1.7.42,2.39.42,2.69,0,4.95-.8,6.8-2.39,1.84-1.59,2.76-4.17,2.76-7.73,0-3-.59-5.43-1.78-7.31-1.19-1.87-3.03-2.81-5.53-2.81-1.69,0-3.16.48-4.41,1.45-1.25.97-2.29,2.2-3.14,3.7-.84,1.5-1.47,3.13-1.87,4.88-.41,1.75-.61,3.37-.61,4.87Z"/>
      <path class="cls-3" d="M436.88,131.71c3.5,0,6.5.84,9,2.53,2.5,1.69,4.55,4,6.14,6.94,1.59,2.94,2.78,6.36,3.56,10.26.78,3.91,1.17,8.11,1.17,12.61,0,4-.45,7.75-1.36,11.25-.9,3.5-2.26,6.56-4.08,9.19-1.81,2.63-4.12,4.69-6.94,6.19-2.81,1.5-6.12,2.25-9.93,2.25-1.5,0-2.8-.12-3.89-.37-1.09-.25-1.98-.38-2.67-.38-.5,0-.89.14-1.17.42s-.42.8-.42,1.55v15.19c0,2-.42,3.69-1.27,5.06-.85,1.37-2.08,2.06-3.7,2.06-.88,0-1.75-.08-2.62-.24-.88-.16-1.67-.41-2.39-.75-.72-.35-1.3-.83-1.73-1.45-.44-.62-.66-1.4-.66-2.34v-68.43c0-1.44-.23-2.69-.7-3.75-.47-1.06-.95-2-1.45-2.81-.38-.56-.39-1.19-.05-1.87.34-.69.88-1.34,1.59-1.97.72-.62,1.55-1.14,2.48-1.55.94-.41,1.81-.61,2.63-.61,1.44,0,2.69.59,3.75,1.78,1.06,1.19,2,2.6,2.81,4.22.12.25.25.47.38.66.12.19.31.28.56.28.31,0,.78-.31,1.4-.94,1.13-1.25,2.47-2.39,4.03-3.42,1.56-1.03,3.4-1.55,5.53-1.55ZM444.75,163.86c0-2.44-.14-4.89-.42-7.36-.28-2.47-.78-4.7-1.5-6.7-.72-2-1.64-3.64-2.76-4.92-1.13-1.28-2.53-1.92-4.22-1.92-1.12,0-2.25.38-3.37,1.12-1.12.75-2.16,1.71-3.09,2.86-.94,1.16-1.7,2.48-2.3,3.99-.59,1.5-.89,3-.89,4.5v21.19c0,2.13.44,3.61,1.31,4.45.88.84,2.78,1.27,5.72,1.27,1.81,0,3.44-.45,4.87-1.36,1.44-.9,2.66-2.17,3.66-3.8,1-1.62,1.75-3.58,2.25-5.86.5-2.28.75-4.76.75-7.45Z"/>
      <path class="cls-3" d="M484.68,191.89c0-2.31-.63-4.36-1.87-6.14-1.25-1.78-2.83-3.45-4.73-5.01-1.91-1.56-3.95-3.11-6.14-4.64-2.19-1.53-4.23-3.23-6.14-5.11-1.91-1.87-3.48-4-4.73-6.37-1.25-2.37-1.87-5.19-1.87-8.44s.47-6.33,1.4-9.04c.94-2.72,2.28-5.06,4.03-7.03,1.75-1.97,3.87-3.5,6.37-4.59,2.5-1.09,5.34-1.64,8.53-1.64,2.75,0,5.27.44,7.55,1.31,2.28.88,4.22,2.09,5.81,3.65,1.59,1.56,2.83,3.45,3.7,5.67.88,2.22,1.31,4.7,1.31,7.45s-.48,4.56-1.45,5.63c-.97,1.06-2.64,1.59-5.01,1.59-2,0-3.39-.41-4.17-1.22-.78-.81-1.17-2.25-1.17-4.31,0-2.81-.56-5.08-1.69-6.79-1.13-1.72-2.59-2.58-4.41-2.58-1.06,0-2.08.3-3.05.89-.97.59-1.81,1.37-2.53,2.34-.72.97-1.3,2.11-1.74,3.42-.44,1.31-.66,2.69-.66,4.12,0,2.5.66,4.67,1.97,6.51,1.31,1.84,2.94,3.58,4.87,5.2,1.94,1.63,4.06,3.22,6.37,4.78,2.31,1.56,4.44,3.31,6.37,5.25,1.94,1.94,3.56,4.15,4.87,6.65,1.31,2.5,1.97,5.47,1.97,8.91,0,3.06-.58,5.92-1.73,8.58-1.16,2.66-2.72,4.98-4.69,6.98-1.97,2-4.23,3.58-6.8,4.73-2.56,1.15-5.28,1.73-8.15,1.73s-5.42-.48-7.83-1.45c-2.41-.97-4.47-2.31-6.19-4.03-1.72-1.72-3.06-3.75-4.03-6.09-.97-2.34-1.45-4.92-1.45-7.73,0-4.75,1.87-7.12,5.62-7.12,2.63,0,4.27.59,4.92,1.78.65,1.19.98,2.81.98,4.88,0,.88.17,1.84.52,2.91.34,1.06.86,2.05,1.55,2.95.69.91,1.51,1.67,2.48,2.3.97.63,2.05.94,3.23.94.94,0,1.87-.31,2.81-.94.94-.62,1.78-1.47,2.53-2.53.75-1.06,1.34-2.31,1.78-3.75.44-1.44.66-2.97.66-4.59Z"/>
    </g>
    <g>
      <path class="cls-3" d="M869.97,126.31c-1.75,0-3.2-.22-4.36-.66-1.16-.44-2.08-1.22-2.77-2.34-.69-1.13-1.17-2.66-1.45-4.59-.28-1.94-.42-4.41-.42-7.4s.01-6.19.05-9.38c.03-3.18.05-6.31.05-9.37,0-6.19.15-12.34.47-18.47s.47-12.28.47-18.47v-10.59c0-2.19.59-3.72,1.78-4.59,1.19-.88,2.66-1.31,4.41-1.31,2,0,3.5.13,4.5.38,1,.25,1.69.61,2.06,1.08.37.47.56,1.08.56,1.83v2.72c0,.38.05.62.14.75.09.13.33.19.7.19,3.37,0,6.64.27,9.8.8,3.16.53,5.98,1.47,8.48,2.81,2.5,1.35,4.5,3.19,6,5.53,1.5,2.34,2.25,5.33,2.25,8.95,0,2.75-.38,5.08-1.13,6.98-.75,1.91-1.67,3.5-2.76,4.78s-2.3,2.3-3.61,3.05c-1.31.75-2.52,1.38-3.61,1.87-1.09.5-2.02.91-2.76,1.22-.75.31-1.13.69-1.13,1.12,0,.13.44.23,1.31.33.88.09,1.95.31,3.23.66,1.28.34,2.67.88,4.17,1.59,1.5.72,2.89,1.8,4.17,3.23,1.28,1.44,2.36,3.31,3.23,5.63s1.31,5.19,1.31,8.62c0,5.31-1.08,9.51-3.23,12.61-2.16,3.09-4.92,5.41-8.29,6.94-3.38,1.53-7.14,2.5-11.29,2.91-4.16.41-8.27.61-12.33.61ZM873.72,73.82c0,.69.15,1.33.47,1.92s.88.89,1.69.89c1.81,0,3.65-.34,5.53-1.03,1.87-.69,3.58-1.58,5.11-2.67s2.8-2.34,3.8-3.75c1-1.4,1.5-2.86,1.5-4.36,0-2-.51-3.59-1.55-4.78-1.03-1.19-2.33-2.11-3.89-2.76-1.56-.66-3.25-1.09-5.06-1.31-1.81-.22-3.5-.33-5.06-.33-.69,0-1.16.2-1.41.61-.25.41-.44.95-.56,1.64-.38,2.44-.56,5.08-.56,7.92v8.02ZM876.62,114.87c3.12,0,5.75-.3,7.87-.89,2.12-.59,3.84-1.42,5.15-2.48,1.31-1.06,2.25-2.36,2.81-3.89.56-1.53.85-3.23.85-5.11,0-2.44-.66-4.56-1.97-6.37-1.31-1.81-2.81-3.31-4.5-4.5-1.69-1.19-3.36-2.06-5.01-2.63-1.66-.56-2.86-.84-3.61-.84-.38,0-.81.02-1.31.05-.5.03-.98.13-1.45.28-.47.16-.88.39-1.22.7s-.51.75-.51,1.31v16.31c0,1.19.06,2.37.19,3.56.12,1.19.41,2.24.85,3.14.44.9,1.06,1.36,1.87,1.36Z"/>
      <path class="cls-3" d="M908.11,90.03c0-2.75.36-5.45,1.08-8.11.72-2.66,1.81-5.01,3.28-7.08,1.47-2.06,3.33-3.72,5.58-4.97,2.25-1.25,4.94-1.87,8.06-1.87,1.13,0,2.24.09,3.33.28,1.09.19,2.17.28,3.23.28,1.56,0,2.34-.78,2.34-2.34v-5.67c0-1.72-.16-3.22-.47-4.5-.31-1.28-.85-2.28-1.59-3-.75-.72-1.84-1.08-3.28-1.08-.94,0-1.73.17-2.39.51-.66.35-1.24.8-1.74,1.36-.5.56-.9,1.17-1.22,1.83s-.56,1.3-.75,1.92c-.31,1-.75,1.61-1.31,1.83-.56.22-1.28.33-2.16.33-.75,0-1.47-.04-2.16-.14s-1.3-.3-1.83-.61c-.53-.31-.95-.73-1.27-1.27-.31-.53-.47-1.27-.47-2.2,0-1.94.45-3.75,1.36-5.44.9-1.69,2.08-3.16,3.52-4.41,1.44-1.25,3.05-2.23,4.83-2.95,1.78-.72,3.55-1.08,5.3-1.08,4.25,0,7.61.62,10.08,1.87,2.47,1.25,4.33,3.02,5.58,5.3,1.25,2.28,2.06,5.03,2.44,8.25.38,3.22.56,6.83.56,10.83,0,3.19-.05,6.41-.14,9.66s-.14,6.47-.14,9.65c0,.69-.02,1.5-.05,2.44-.03.94-.05,1.87-.05,2.81v2.72c0,.88.03,1.59.09,2.16.06.38.22.88.47,1.5.25.63.51,1.25.8,1.87.28.63.53,1.17.75,1.64.22.47.33.77.33.89,0,.94-.31,1.74-.94,2.39s-1.37,1.19-2.25,1.59c-.88.41-1.77.7-2.67.89-.91.19-1.67.28-2.3.28-.88,0-1.66-.41-2.34-1.22-.69-.81-1.27-1.77-1.74-2.86-.47-1.09-.83-2.22-1.08-3.37-.25-1.16-.37-2.05-.37-2.67-.88,2.75-2.53,4.92-4.97,6.51-2.44,1.59-5.06,2.39-7.87,2.39-2.25,0-4.31-.5-6.19-1.5-1.87-1-3.5-2.31-4.87-3.94-1.38-1.62-2.45-3.45-3.23-5.48-.78-2.03-1.17-4.11-1.17-6.23ZM914.4,124.53c-.94,0-1.74-.52-2.39-1.55-.66-1.03-.98-2.33-.98-3.89,0-3.62,1.09-5.44,3.28-5.44,1.12,0,2.55.02,4.26.05,1.72.03,3.59.05,5.62.05s4.14.03,6.33.09c2.19.06,4.31.09,6.37.09s3.97.02,5.72.05c1.75.03,3.22.05,4.41.05.75,0,1.34.19,1.78.56s.78.85,1.03,1.41c.25.56.41,1.17.47,1.83.06.66.09,1.27.09,1.83s-.03,1.13-.09,1.69c-.06.56-.22,1.09-.47,1.59-.25.5-.58.9-.98,1.22-.41.31-.98.47-1.73.47h-7.08c-2.97,0-6.05-.01-9.23-.04-3.18-.03-6.27-.05-9.23-.05h-7.17ZM934.26,80.28c0-.38-.19-.67-.56-.89s-.8-.38-1.27-.47c-.47-.09-.95-.15-1.45-.19-.5-.03-.88-.05-1.13-.05-3.75,0-6.44.91-8.06,2.72-1.63,1.81-2.44,4.28-2.44,7.4,0,1.94.51,3.61,1.55,5.01,1.03,1.41,2.61,2.11,4.73,2.11,1.44,0,2.69-.59,3.75-1.78,1.06-1.19,1.95-2.61,2.67-4.26.72-1.66,1.27-3.38,1.64-5.16.38-1.78.56-3.26.56-4.45Z"/>
      <path class="cls-3" d="M977.57,127.24c-3.69,0-6.78-.3-9.28-.89-2.5-.59-4.51-1.48-6.05-2.67-1.53-1.19-2.62-2.62-3.28-4.31-.66-1.69-.98-3.62-.98-5.81,0-11-.14-21.87-.42-32.62-.28-10.75-.42-21.65-.42-32.71,0-2.06.11-3.75.33-5.06.22-1.31.62-2.36,1.22-3.14.59-.78,1.44-1.33,2.53-1.64,1.09-.31,2.51-.47,4.26-.47,1.25,0,2.22.17,2.91.51.69.35,1.2.94,1.55,1.78.34.85.55,1.95.61,3.33.06,1.37.09,3.06.09,5.06,0,1.81-.02,3.89-.05,6.23-.03,2.34-.05,4.59-.05,6.75s.01,4.06.05,5.72c.03,1.66.08,2.67.14,3.05.38-1,.89-2.17,1.55-3.52.65-1.34,1.55-2.63,2.67-3.84s2.53-2.25,4.22-3.09c1.69-.84,3.75-1.27,6.19-1.27,5.69,0,10.11,2.78,13.26,8.34,3.16,5.56,4.73,14.09,4.73,25.59,0,4.31-.45,8.55-1.36,12.7-.91,4.16-2.36,7.86-4.36,11.11-2,3.25-4.64,5.87-7.92,7.87-3.28,2-7.33,3-12.14,3ZM983.1,71.85c-1.69,0-3.25,1.08-4.69,3.23-1.44,2.16-2.67,4.92-3.7,8.29-1.03,3.38-1.84,7.11-2.44,11.2-.6,4.09-.89,8.05-.89,11.86,0,1.31.14,2.56.42,3.75.28,1.19.7,2.25,1.27,3.19s1.31,1.69,2.25,2.25c.94.56,2.06.84,3.37.84,1.56,0,2.94-.42,4.12-1.27,1.19-.84,2.22-1.97,3.09-3.37.88-1.41,1.59-2.97,2.16-4.69.56-1.72,1.02-3.47,1.36-5.25.34-1.78.58-3.48.7-5.11.12-1.63.19-3.03.19-4.22,0-2.62-.14-5.19-.42-7.68-.28-2.5-.72-4.7-1.31-6.61-.59-1.91-1.35-3.45-2.25-4.64-.91-1.19-1.98-1.78-3.23-1.78Z"/>
      <path class="cls-3" d="M1023.22,96.87c-3.44,0-6.25-.67-8.44-2.01-2.19-1.34-3.91-3.14-5.15-5.39-1.25-2.25-2.13-4.86-2.63-7.83-.5-2.97-.75-6.11-.75-9.42,0-3.69.03-7.19.09-10.5.06-3.31.09-6.78.09-10.4,0-.81.09-1.64.28-2.48s.55-1.59,1.08-2.25c.53-.66,1.25-1.19,2.16-1.59.9-.41,2.05-.61,3.42-.61,1.5,0,2.61.19,3.33.56.72.38,1.22.86,1.5,1.45.28.59.41,1.28.38,2.06-.03.78-.05,1.58-.05,2.39v21.75c0,4.44.7,7.79,2.11,10.08,1.4,2.28,3.26,3.42,5.58,3.42,1.69,0,3.13-.41,4.31-1.22,1.19-.81,2.16-1.92,2.91-3.33.75-1.4,1.28-3.06,1.59-4.97.31-1.9.47-3.98.47-6.23v-14.72c0-1.81.11-3.34.33-4.59.22-1.25.61-2.25,1.17-3,.56-.75,1.3-1.28,2.2-1.59.9-.31,2.05-.47,3.42-.47,2,0,3.42.42,4.26,1.27.85.84,1.27,2.08,1.27,3.7v54.46c0,3.81-.55,7.11-1.64,9.89-1.09,2.78-2.6,5.08-4.5,6.89-1.91,1.81-4.2,3.14-6.89,3.98-2.69.85-5.62,1.27-8.81,1.27-2.94,0-5.62-.44-8.06-1.31-2.44-.88-4.54-2.11-6.33-3.7-1.78-1.59-3.17-3.47-4.17-5.62-1-2.16-1.5-4.54-1.5-7.17s.5-4.75,1.5-6.37c1-1.62,2.75-2.44,5.25-2.44,2.19,0,3.65.41,4.41,1.22.75.81,1.12,2.28,1.12,4.41,0,1.37.14,2.72.42,4.03.28,1.31.72,2.47,1.31,3.47.59,1,1.39,1.8,2.39,2.39s2.25.89,3.75.89c3.5,0,6.06-.98,7.69-2.95,1.62-1.97,2.44-4.86,2.44-8.67v-11.06c0-.31-.25-.47-.75-.47-.56,0-1.33.14-2.3.42-.97.28-2.03.61-3.19.98-1.16.38-2.36.7-3.61.98-1.25.28-2.41.42-3.47.42Z"/>
      <path class="cls-3" d="M888.76,147.55c0,1.81-.13,3.23-.38,4.27-.25,1.03-.61,1.78-1.08,2.25s-1.08.75-1.83.84-1.63.14-2.63.14c-1.63,0-2.73-.66-3.33-1.97-.59-1.31-.89-3.06-.89-5.25,0-2.44-.89-4.19-2.67-5.25-1.78-1.06-3.95-1.59-6.51-1.59-1.87,0-3.49.36-4.83,1.08-1.35.72-2.45,1.64-3.33,2.76s-1.52,2.38-1.92,3.75c-.41,1.37-.61,2.72-.61,4.03,0,2.81.8,5.08,2.39,6.8,1.59,1.72,3.59,3.22,6,4.5,2.41,1.28,5.01,2.52,7.83,3.7,2.81,1.19,5.42,2.66,7.83,4.41,2.4,1.75,4.41,3.97,6,6.66,1.59,2.69,2.39,6.16,2.39,10.4,0,3.18-.63,6.16-1.87,8.9-1.25,2.75-2.99,5.16-5.2,7.22-2.22,2.06-4.84,3.69-7.87,4.88-3.03,1.19-6.33,1.78-9.89,1.78-3.06,0-5.92-.53-8.58-1.59-2.66-1.06-4.97-2.48-6.94-4.26-1.97-1.78-3.52-3.86-4.64-6.23-1.13-2.37-1.69-4.91-1.69-7.59,0-3.38.42-5.69,1.27-6.94.84-1.25,2.3-1.87,4.36-1.87s3.34.41,4.03,1.22c.69.81,1.03,2.44,1.03,4.87,0,1.44.3,2.8.89,4.08.59,1.28,1.37,2.39,2.34,3.33.97.94,2.08,1.69,3.33,2.25,1.25.56,2.53.84,3.84.84,1.62,0,3.2-.23,4.73-.7,1.53-.47,2.91-1.14,4.12-2.01s2.19-1.92,2.91-3.14c.72-1.22,1.08-2.55,1.08-3.99,0-2.69-.8-4.87-2.39-6.56-1.59-1.69-3.58-3.2-5.95-4.54-2.38-1.35-4.95-2.66-7.73-3.94-2.78-1.28-5.36-2.83-7.73-4.64-2.38-1.81-4.36-4.02-5.95-6.61-1.59-2.59-2.39-5.89-2.39-9.89,0-3.19.56-6.23,1.69-9.14,1.13-2.91,2.7-5.47,4.73-7.68,2.03-2.22,4.47-3.99,7.31-5.3,2.84-1.31,5.98-1.97,9.42-1.97,3.12,0,5.89.47,8.3,1.4,2.4.94,4.42,2.22,6.04,3.84,1.63,1.63,2.86,3.5,3.7,5.62.84,2.13,1.27,4.41,1.27,6.84Z"/>
      <path class="cls-3" d="M896.07,191.42c0-3.69-.01-7.97-.04-12.84-.03-4.88-.06-9.84-.09-14.9-.03-5.06-.06-9.98-.09-14.76-.03-4.78-.05-8.92-.05-12.42,0-1.63.44-2.98,1.31-4.08.88-1.09,2.69-1.64,5.44-1.64,2.25,0,3.86.44,4.83,1.31.97.88,1.45,2.5,1.45,4.87,0,.94-.01,1.86-.05,2.76-.03.91-.05,1.74-.05,2.48,0,.63.17,1.02.52,1.17.34.16.95.23,1.83.23,1.12,0,2.58-.03,4.36-.09,1.78-.06,3.92-.09,6.42-.09.81,0,1.56.03,2.25.09.69.06,1.3.23,1.83.52.53.28.95.75,1.27,1.4.31.66.47,1.61.47,2.86,0,1.81-.44,3.19-1.31,4.12s-2,1.4-3.37,1.4h-11.34c-1.25,0-2.03.22-2.34.66-.31.44-.47.91-.47,1.41v31.21c0,5.19.31,8.89.94,11.11.62,2.22,1.72,3.33,3.28,3.33,1.06,0,1.93-.55,2.62-1.64.69-1.09,1.22-2.53,1.59-4.31.38-1.78.64-3.81.8-6.09.15-2.28.23-4.58.23-6.89,0-.44-.02-1.05-.05-1.83-.03-.78.08-1.56.33-2.34.25-.78.69-1.45,1.31-2.01.62-.56,1.62-.85,3-.85,1.56,0,2.72.22,3.47.66.75.44,1.27.97,1.55,1.59.28.63.42,1.3.42,2.02v1.83c0,4.12-.19,8.08-.56,11.86-.38,3.78-1.09,7.11-2.16,9.98-1.06,2.87-2.6,5.17-4.59,6.89-2,1.72-4.62,2.58-7.87,2.58-6.31,0-10.73-1.83-13.26-5.48-2.53-3.65-3.8-9.01-3.8-16.08Z"/>
      <path class="cls-3" d="M953.34,194.8c-3.75,0-7-.73-9.75-2.2-2.75-1.47-5.02-3.47-6.8-6-1.78-2.53-3.11-5.51-3.98-8.95-.88-3.44-1.31-7.13-1.31-11.06,0-4.44.39-8.76,1.17-12.98.78-4.22,2.11-7.97,3.99-11.25,1.87-3.28,4.36-5.92,7.45-7.92,3.09-2,6.92-3,11.48-3,2.56,0,4.84.55,6.84,1.64,2,1.09,3.68,2.53,5.06,4.31,1.37,1.78,2.4,3.84,3.09,6.19.69,2.34,1.03,4.77,1.03,7.26,0,2.94-.47,5.64-1.41,8.11-.94,2.47-2.25,4.59-3.94,6.37-1.69,1.78-3.69,3.17-6,4.17-2.31,1-4.85,1.5-7.59,1.5-1.81,0-3.38-.25-4.69-.75-1.31-.5-2.53-1.15-3.66-1.97,0,.62.11,1.77.33,3.42.22,1.66.64,3.37,1.27,5.15.62,1.78,1.53,3.36,2.72,4.73,1.19,1.38,2.81,2.06,4.88,2.06,1.81,0,3.22-.14,4.22-.42,1-.28,1.73-.67,2.2-1.17.47-.5.76-1.11.89-1.83.12-.72.19-1.55.19-2.48,0-.75.03-1.42.09-2.02s.25-1.09.56-1.5.84-.72,1.59-.94,1.78-.33,3.09-.33,2.33.22,3.05.66c.72.44,1.23.94,1.55,1.5.31.56.5,1.12.56,1.69.06.56.09,1,.09,1.31,0,2.38-.39,4.58-1.17,6.61-.78,2.03-1.95,3.8-3.52,5.3-1.56,1.5-3.47,2.67-5.72,3.51-2.25.85-4.88,1.27-7.87,1.27ZM937.03,210.45c-.94,0-1.73-.52-2.39-1.55-.66-1.03-.98-2.33-.98-3.89,0-3.62,1.09-5.44,3.28-5.44,1.12,0,2.55.02,4.26.05,1.72.03,3.59.05,5.62.05s4.14.03,6.33.09c2.19.06,4.31.09,6.37.09s3.97.02,5.72.05c1.75.03,3.22.05,4.41.05.75,0,1.34.19,1.78.56s.78.85,1.03,1.41c.25.56.41,1.17.47,1.83s.09,1.27.09,1.83-.03,1.13-.09,1.69-.22,1.09-.47,1.59c-.25.5-.58.9-.98,1.22-.41.31-.98.47-1.74.47h-7.08c-2.97,0-6.05-.01-9.23-.04-3.19-.03-6.27-.05-9.23-.05h-7.17ZM944.34,155.8c0,.75.28,1.45.84,2.11.56.65,1.24,1.22,2.02,1.69.78.47,1.62.84,2.53,1.13.9.28,1.7.42,2.39.42,2.69,0,4.95-.8,6.8-2.39,1.84-1.59,2.76-4.17,2.76-7.73,0-3-.59-5.43-1.78-7.31-1.19-1.87-3.03-2.81-5.53-2.81-1.69,0-3.16.48-4.41,1.45-1.25.97-2.29,2.2-3.14,3.7-.84,1.5-1.47,3.13-1.87,4.88-.41,1.75-.61,3.37-.61,4.87Z"/>
      <path class="cls-3" d="M1001.43,131.71c3.5,0,6.5.84,9,2.53,2.5,1.69,4.55,4,6.14,6.94,1.59,2.94,2.78,6.36,3.56,10.26.78,3.91,1.17,8.11,1.17,12.61,0,4-.45,7.75-1.36,11.25-.9,3.5-2.26,6.56-4.08,9.19s-4.12,4.69-6.94,6.19c-2.81,1.5-6.12,2.25-9.93,2.25-1.5,0-2.8-.12-3.89-.37-1.09-.25-1.98-.38-2.67-.38-.5,0-.89.14-1.17.42s-.42.8-.42,1.55v15.19c0,2-.42,3.69-1.27,5.06-.85,1.37-2.08,2.06-3.7,2.06-.88,0-1.75-.08-2.62-.24-.88-.16-1.67-.41-2.39-.75-.72-.35-1.3-.83-1.73-1.45-.44-.62-.66-1.4-.66-2.34v-68.43c0-1.44-.23-2.69-.7-3.75-.47-1.06-.95-2-1.45-2.81-.38-.56-.39-1.19-.05-1.87.34-.69.88-1.34,1.59-1.97.72-.62,1.55-1.14,2.48-1.55.94-.41,1.81-.61,2.63-.61,1.44,0,2.69.59,3.75,1.78,1.06,1.19,2,2.6,2.81,4.22.12.25.25.47.38.66.12.19.31.28.56.28.31,0,.78-.31,1.4-.94,1.13-1.25,2.47-2.39,4.03-3.42,1.56-1.03,3.4-1.55,5.53-1.55ZM1009.3,163.86c0-2.44-.14-4.89-.42-7.36-.28-2.47-.78-4.7-1.5-6.7-.72-2-1.64-3.64-2.76-4.92-1.13-1.28-2.53-1.92-4.22-1.92-1.12,0-2.25.38-3.37,1.12-1.12.75-2.16,1.71-3.09,2.86-.94,1.16-1.7,2.48-2.3,3.99-.59,1.5-.89,3-.89,4.5v21.19c0,2.13.44,3.61,1.31,4.45.88.84,2.78,1.27,5.72,1.27,1.81,0,3.44-.45,4.87-1.36,1.44-.9,2.66-2.17,3.66-3.8,1-1.62,1.75-3.58,2.25-5.86.5-2.28.75-4.76.75-7.45Z"/>
      <path class="cls-3" d="M1049.24,191.89c0-2.31-.63-4.36-1.87-6.14-1.25-1.78-2.83-3.45-4.73-5.01-1.91-1.56-3.95-3.11-6.14-4.64-2.19-1.53-4.23-3.23-6.14-5.11-1.91-1.87-3.48-4-4.73-6.37-1.25-2.37-1.87-5.19-1.87-8.44s.47-6.33,1.4-9.04c.94-2.72,2.28-5.06,4.03-7.03,1.75-1.97,3.87-3.5,6.37-4.59,2.5-1.09,5.34-1.64,8.53-1.64,2.75,0,5.27.44,7.55,1.31,2.28.88,4.22,2.09,5.81,3.65,1.59,1.56,2.83,3.45,3.7,5.67.88,2.22,1.31,4.7,1.31,7.45s-.48,4.56-1.45,5.63c-.97,1.06-2.64,1.59-5.01,1.59-2,0-3.39-.41-4.17-1.22-.78-.81-1.17-2.25-1.17-4.31,0-2.81-.56-5.08-1.69-6.79-1.13-1.72-2.59-2.58-4.41-2.58-1.06,0-2.08.3-3.05.89-.97.59-1.81,1.37-2.53,2.34-.72.97-1.3,2.11-1.74,3.42-.44,1.31-.66,2.69-.66,4.12,0,2.5.66,4.67,1.97,6.51,1.31,1.84,2.94,3.58,4.87,5.2,1.94,1.63,4.06,3.22,6.37,4.78,2.31,1.56,4.44,3.31,6.37,5.25s3.56,4.15,4.87,6.65c1.31,2.5,1.97,5.47,1.97,8.91,0,3.06-.58,5.92-1.73,8.58-1.16,2.66-2.72,4.98-4.69,6.98-1.97,2-4.23,3.58-6.8,4.73-2.56,1.15-5.28,1.73-8.15,1.73s-5.42-.48-7.83-1.45c-2.41-.97-4.47-2.31-6.19-4.03-1.72-1.72-3.06-3.75-4.03-6.09-.97-2.34-1.45-4.92-1.45-7.73,0-4.75,1.87-7.12,5.62-7.12,2.63,0,4.27.59,4.92,1.78.65,1.19.98,2.81.98,4.88,0,.88.17,1.84.52,2.91.34,1.06.86,2.05,1.55,2.95.69.91,1.51,1.67,2.48,2.3.97.63,2.05.94,3.23.94.94,0,1.87-.31,2.81-.94.94-.62,1.78-1.47,2.53-2.53.75-1.06,1.34-2.31,1.78-3.75.44-1.44.66-2.97.66-4.59Z"/>
    </g>
  </g>
</svg>